<svg xmlns="http://www.w3.org/2000/svg" xmlns:xlink="http://www.w3.org/1999/xlink" width="120" zoomAndPan="magnify" viewBox="0 0 90 89.999999" height="120" preserveAspectRatio="xMidYMid meet" version="1.0"><defs><clipPath id="ba6bab41f7"><path d="M 8.605469 3.035156 L 81.355469 3.035156 L 81.355469 87.035156 L 8.605469 87.035156 Z M 8.605469 3.035156 " clip-rule="nonzero"/></clipPath></defs><path fill="#5fa2ad" d="M 60.359375 59.035156 C 59.988281 59.035156 59.632812 58.964844 59.289062 58.824219 C 58.945312 58.679688 58.644531 58.480469 58.382812 58.214844 C 58.121094 57.953125 57.917969 57.652344 57.773438 57.308594 C 57.632812 56.964844 57.5625 56.605469 57.5625 56.234375 L 57.5625 53.4375 C 57.5625 53.070312 57.527344 52.703125 57.453125 52.34375 C 57.382812 51.984375 57.277344 51.632812 57.136719 51.292969 C 56.996094 50.953125 56.824219 50.628906 56.621094 50.324219 C 56.417969 50.019531 56.183594 49.734375 55.925781 49.476562 C 55.664062 49.214844 55.382812 48.984375 55.078125 48.78125 C 54.773438 48.574219 54.449219 48.402344 54.109375 48.261719 C 53.769531 48.121094 53.421875 48.015625 53.0625 47.945312 C 52.703125 47.871094 52.335938 47.835938 51.96875 47.835938 C 51.785156 47.835938 51.605469 47.871094 51.4375 47.941406 C 51.265625 48.015625 51.113281 48.113281 50.980469 48.246094 C 50.851562 48.378906 50.75 48.527344 50.679688 48.699219 C 50.609375 48.871094 50.574219 49.050781 50.574219 49.234375 C 50.574219 49.421875 50.609375 49.601562 50.679688 49.773438 C 50.75 49.941406 50.851562 50.09375 50.980469 50.226562 C 51.113281 50.355469 51.265625 50.457031 51.4375 50.53125 C 51.605469 50.601562 51.785156 50.636719 51.96875 50.636719 C 52.339844 50.636719 52.699219 50.707031 53.039062 50.847656 C 53.382812 50.992188 53.683594 51.195312 53.949219 51.457031 C 54.210938 51.71875 54.410156 52.023438 54.554688 52.363281 C 54.695312 52.707031 54.765625 53.066406 54.765625 53.4375 L 54.765625 56.234375 C 54.765625 57.039062 54.929688 57.808594 55.261719 58.542969 C 55.59375 59.273438 56.0625 59.90625 56.664062 60.4375 C 56.0625 60.964844 55.59375 61.597656 55.261719 62.332031 C 54.929688 63.0625 54.765625 63.832031 54.765625 64.636719 L 54.765625 67.4375 C 54.765625 67.808594 54.695312 68.164062 54.554688 68.507812 C 54.410156 68.851562 54.210938 69.152344 53.949219 69.414062 C 53.683594 69.679688 53.382812 69.878906 53.039062 70.023438 C 52.699219 70.164062 52.339844 70.234375 51.96875 70.234375 C 51.785156 70.234375 51.605469 70.273438 51.4375 70.34375 C 51.265625 70.414062 51.113281 70.515625 50.980469 70.644531 C 50.851562 70.777344 50.75 70.929688 50.679688 71.101562 C 50.609375 71.273438 50.574219 71.449219 50.574219 71.636719 C 50.574219 71.820312 50.609375 72 50.679688 72.171875 C 50.75 72.34375 50.851562 72.496094 50.980469 72.625 C 51.113281 72.757812 51.265625 72.859375 51.4375 72.929688 C 51.605469 73 51.785156 73.035156 51.96875 73.035156 C 52.335938 73.035156 52.703125 73 53.0625 72.929688 C 53.421875 72.855469 53.769531 72.75 54.109375 72.609375 C 54.449219 72.46875 54.773438 72.296875 55.078125 72.09375 C 55.382812 71.886719 55.664062 71.65625 55.925781 71.394531 C 56.183594 71.136719 56.417969 70.851562 56.621094 70.546875 C 56.824219 70.242188 56.996094 69.917969 57.136719 69.578125 C 57.277344 69.238281 57.382812 68.890625 57.453125 68.527344 C 57.527344 68.167969 57.5625 67.804688 57.5625 67.4375 L 57.5625 64.636719 C 57.5625 64.265625 57.632812 63.90625 57.773438 63.566406 C 57.917969 63.222656 58.121094 62.917969 58.382812 62.65625 C 58.644531 62.394531 58.945312 62.191406 59.289062 62.050781 C 59.632812 61.90625 59.988281 61.835938 60.359375 61.835938 C 60.542969 61.835938 60.722656 61.800781 60.894531 61.730469 C 61.066406 61.660156 61.214844 61.558594 61.347656 61.425781 C 61.476562 61.292969 61.578125 61.144531 61.648438 60.972656 C 61.722656 60.800781 61.757812 60.621094 61.757812 60.4375 C 61.757812 60.25 61.722656 60.070312 61.648438 59.898438 C 61.578125 59.730469 61.476562 59.578125 61.347656 59.445312 C 61.214844 59.316406 61.066406 59.214844 60.894531 59.144531 C 60.722656 59.070312 60.542969 59.035156 60.359375 59.035156 Z M 60.359375 59.035156 " fill-opacity="1" fill-rule="nonzero"/><path fill="#5fa2ad" d="M 29.601562 53.4375 C 29.601562 53.066406 29.675781 52.707031 29.816406 52.363281 C 29.957031 52.023438 30.160156 51.71875 30.421875 51.457031 C 30.683594 51.195312 30.988281 50.992188 31.328125 50.847656 C 31.671875 50.707031 32.027344 50.636719 32.398438 50.636719 C 32.585938 50.636719 32.761719 50.601562 32.933594 50.53125 C 33.105469 50.457031 33.257812 50.355469 33.386719 50.226562 C 33.519531 50.09375 33.621094 49.941406 33.691406 49.773438 C 33.761719 49.601562 33.796875 49.421875 33.796875 49.234375 C 33.796875 49.050781 33.761719 48.871094 33.691406 48.699219 C 33.621094 48.527344 33.519531 48.378906 33.386719 48.246094 C 33.257812 48.113281 33.105469 48.015625 32.933594 47.941406 C 32.761719 47.871094 32.585938 47.835938 32.398438 47.835938 C 32.03125 47.835938 31.667969 47.871094 31.308594 47.945312 C 30.949219 48.015625 30.597656 48.121094 30.257812 48.261719 C 29.921875 48.402344 29.597656 48.574219 29.292969 48.78125 C 28.988281 48.984375 28.703125 49.214844 28.445312 49.476562 C 28.1875 49.734375 27.953125 50.019531 27.75 50.324219 C 27.546875 50.628906 27.375 50.953125 27.234375 51.292969 C 27.09375 51.632812 26.988281 51.984375 26.914062 52.34375 C 26.84375 52.703125 26.808594 53.070312 26.808594 53.4375 L 26.808594 56.234375 C 26.808594 56.605469 26.738281 56.964844 26.59375 57.308594 C 26.453125 57.652344 26.25 57.953125 25.988281 58.214844 C 25.726562 58.480469 25.425781 58.679688 25.082031 58.824219 C 24.738281 58.964844 24.382812 59.035156 24.011719 59.035156 C 23.824219 59.035156 23.648438 59.070312 23.476562 59.144531 C 23.304688 59.214844 23.152344 59.316406 23.023438 59.445312 C 22.890625 59.578125 22.789062 59.730469 22.71875 59.898438 C 22.648438 60.070312 22.613281 60.25 22.613281 60.4375 C 22.613281 60.621094 22.648438 60.800781 22.71875 60.972656 C 22.789062 61.144531 22.890625 61.292969 23.023438 61.425781 C 23.152344 61.558594 23.304688 61.660156 23.476562 61.730469 C 23.648438 61.800781 23.824219 61.835938 24.011719 61.835938 C 24.382812 61.835938 24.738281 61.90625 25.082031 62.050781 C 25.425781 62.191406 25.726562 62.394531 25.988281 62.65625 C 26.25 62.917969 26.453125 63.222656 26.59375 63.566406 C 26.738281 63.90625 26.808594 64.265625 26.808594 64.636719 L 26.808594 67.4375 C 26.808594 67.804688 26.84375 68.167969 26.914062 68.527344 C 26.988281 68.890625 27.09375 69.238281 27.234375 69.578125 C 27.375 69.917969 27.546875 70.242188 27.75 70.546875 C 27.953125 70.851562 28.1875 71.136719 28.445312 71.394531 C 28.703125 71.65625 28.988281 71.886719 29.292969 72.09375 C 29.597656 72.296875 29.921875 72.46875 30.257812 72.609375 C 30.597656 72.75 30.949219 72.855469 31.308594 72.929688 C 31.667969 73 32.03125 73.035156 32.398438 73.035156 C 32.585938 73.035156 32.761719 73 32.933594 72.929688 C 33.105469 72.859375 33.257812 72.757812 33.386719 72.625 C 33.519531 72.496094 33.621094 72.34375 33.691406 72.171875 C 33.761719 72 33.796875 71.820312 33.796875 71.636719 C 33.796875 71.449219 33.761719 71.273438 33.691406 71.101562 C 33.621094 70.929688 33.519531 70.777344 33.386719 70.644531 C 33.257812 70.515625 33.105469 70.414062 32.933594 70.34375 C 32.761719 70.273438 32.585938 70.234375 32.398438 70.234375 C 32.027344 70.234375 31.671875 70.164062 31.328125 70.023438 C 30.988281 69.878906 30.683594 69.679688 30.421875 69.414062 C 30.160156 69.152344 29.957031 68.851562 29.816406 68.507812 C 29.675781 68.164062 29.601562 67.808594 29.601562 67.4375 L 29.601562 64.636719 C 29.605469 63.832031 29.4375 63.0625 29.105469 62.332031 C 28.777344 61.597656 28.308594 60.964844 27.707031 60.4375 C 28.308594 59.90625 28.777344 59.273438 29.105469 58.542969 C 29.4375 57.808594 29.605469 57.039062 29.601562 56.234375 Z M 29.601562 53.4375 " fill-opacity="1" fill-rule="nonzero"/><g clip-path="url(#ba6bab41f7)"><path fill="#5fa2ad" d="M 79.929688 3.035156 L 15.625 3.035156 C 15.4375 3.035156 15.261719 3.070312 15.089844 3.144531 C 14.917969 3.214844 14.765625 3.316406 14.636719 3.445312 C 14.503906 3.578125 14.402344 3.730469 14.332031 3.898438 C 14.261719 4.070312 14.226562 4.25 14.226562 4.4375 L 14.226562 8.636719 L 10.03125 8.636719 C 9.847656 8.636719 9.667969 8.671875 9.496094 8.742188 C 9.324219 8.8125 9.175781 8.914062 9.042969 9.046875 C 8.914062 9.175781 8.8125 9.328125 8.742188 9.5 C 8.667969 9.671875 8.632812 9.851562 8.632812 10.035156 L 8.632812 85.636719 C 8.632812 85.820312 8.667969 86 8.742188 86.171875 C 8.8125 86.34375 8.914062 86.496094 9.042969 86.625 C 9.175781 86.757812 9.324219 86.859375 9.496094 86.929688 C 9.667969 87 9.847656 87.035156 10.03125 87.035156 L 74.339844 87.035156 C 74.523438 87.035156 74.703125 87 74.871094 86.929688 C 75.042969 86.859375 75.195312 86.757812 75.328125 86.625 C 75.457031 86.496094 75.558594 86.34375 75.628906 86.171875 C 75.699219 86 75.734375 85.820312 75.734375 85.636719 L 75.734375 81.4375 L 79.929688 81.4375 C 80.113281 81.4375 80.292969 81.402344 80.464844 81.328125 C 80.636719 81.257812 80.789062 81.15625 80.917969 81.027344 C 81.050781 80.894531 81.148438 80.742188 81.222656 80.570312 C 81.292969 80.398438 81.328125 80.222656 81.328125 80.035156 L 81.328125 4.4375 C 81.328125 4.25 81.292969 4.070312 81.222656 3.898438 C 81.148438 3.730469 81.050781 3.578125 80.917969 3.445312 C 80.789062 3.316406 80.636719 3.214844 80.464844 3.144531 C 80.292969 3.070312 80.113281 3.035156 79.929688 3.035156 Z M 15.625 21.234375 C 15.625 20.777344 15.667969 20.320312 15.757812 19.871094 C 15.847656 19.417969 15.980469 18.980469 16.15625 18.558594 C 16.332031 18.132812 16.546875 17.730469 16.800781 17.347656 C 17.058594 16.964844 17.347656 16.613281 17.671875 16.285156 C 17.996094 15.960938 18.347656 15.671875 18.730469 15.414062 C 19.113281 15.160156 19.515625 14.945312 19.9375 14.769531 C 20.363281 14.59375 20.800781 14.460938 21.25 14.371094 C 21.699219 14.28125 22.15625 14.234375 22.613281 14.234375 L 25.410156 14.234375 C 25.59375 14.234375 25.773438 14.273438 25.945312 14.34375 C 26.117188 14.414062 26.265625 14.515625 26.398438 14.644531 C 26.527344 14.777344 26.628906 14.929688 26.699219 15.101562 C 26.773438 15.273438 26.808594 15.449219 26.808594 15.636719 C 26.808594 15.820312 26.773438 16 26.699219 16.171875 C 26.628906 16.34375 26.527344 16.496094 26.398438 16.625 C 26.265625 16.757812 26.117188 16.859375 25.945312 16.929688 C 25.773438 17 25.59375 17.035156 25.410156 17.035156 L 22.613281 17.035156 C 22.339844 17.035156 22.066406 17.066406 21.796875 17.117188 C 21.527344 17.171875 21.265625 17.253906 21.011719 17.359375 C 20.757812 17.464844 20.515625 17.59375 20.285156 17.746094 C 20.058594 17.902344 19.847656 18.074219 19.652344 18.269531 C 19.457031 18.464844 19.285156 18.675781 19.128906 18.90625 C 18.976562 19.132812 18.847656 19.375 18.742188 19.628906 C 18.636719 19.886719 18.554688 20.148438 18.503906 20.417969 C 18.449219 20.6875 18.421875 20.960938 18.417969 21.234375 L 18.417969 24.035156 C 18.421875 24.3125 18.449219 24.585938 18.503906 24.855469 C 18.554688 25.125 18.636719 25.386719 18.742188 25.640625 C 18.847656 25.894531 18.976562 26.136719 19.128906 26.367188 C 19.285156 26.59375 19.457031 26.808594 19.652344 27.003906 C 19.847656 27.195312 20.058594 27.371094 20.285156 27.523438 C 20.515625 27.679688 20.757812 27.808594 21.011719 27.914062 C 21.265625 28.019531 21.527344 28.097656 21.796875 28.152344 C 22.066406 28.207031 22.339844 28.234375 22.613281 28.234375 L 25.410156 28.234375 C 25.59375 28.234375 25.773438 28.273438 25.945312 28.34375 C 26.117188 28.414062 26.265625 28.515625 26.398438 28.644531 C 26.527344 28.777344 26.628906 28.929688 26.699219 29.101562 C 26.773438 29.273438 26.808594 29.449219 26.808594 29.636719 C 26.808594 29.820312 26.773438 30 26.699219 30.171875 C 26.628906 30.34375 26.527344 30.496094 26.398438 30.625 C 26.265625 30.757812 26.117188 30.859375 25.945312 30.929688 C 25.773438 31 25.59375 31.035156 25.410156 31.035156 L 22.613281 31.035156 C 22.15625 31.035156 21.699219 30.992188 21.25 30.902344 C 20.800781 30.8125 20.363281 30.679688 19.9375 30.503906 C 19.515625 30.328125 19.113281 30.113281 18.730469 29.855469 C 18.347656 29.601562 17.996094 29.3125 17.671875 28.984375 C 17.347656 28.660156 17.058594 28.308594 16.800781 27.925781 C 16.546875 27.542969 16.332031 27.140625 16.15625 26.714844 C 15.980469 26.289062 15.847656 25.851562 15.757812 25.402344 C 15.667969 24.949219 15.625 24.496094 15.625 24.035156 Z M 72.941406 84.234375 L 11.429688 84.234375 L 11.429688 36.636719 L 72.941406 36.636719 Z M 35.894531 24.035156 L 34.496094 24.035156 C 34.175781 24.035156 33.855469 24.003906 33.542969 23.941406 C 33.226562 23.878906 32.921875 23.785156 32.625 23.664062 C 32.328125 23.539062 32.046875 23.390625 31.777344 23.210938 C 31.511719 23.03125 31.261719 22.828125 31.035156 22.601562 C 30.808594 22.375 30.605469 22.125 30.429688 21.859375 C 30.25 21.589844 30.097656 21.308594 29.976562 21.011719 C 29.851562 20.714844 29.761719 20.40625 29.699219 20.09375 C 29.632812 19.777344 29.601562 19.457031 29.601562 19.136719 C 29.601562 18.8125 29.632812 18.496094 29.699219 18.179688 C 29.761719 17.863281 29.851562 17.558594 29.976562 17.261719 C 30.097656 16.964844 30.25 16.679688 30.429688 16.414062 C 30.605469 16.144531 30.808594 15.898438 31.035156 15.671875 C 31.261719 15.445312 31.511719 15.242188 31.777344 15.0625 C 32.046875 14.882812 32.328125 14.730469 32.625 14.609375 C 32.921875 14.484375 33.226562 14.394531 33.542969 14.332031 C 33.855469 14.265625 34.175781 14.234375 34.496094 14.234375 L 36.59375 14.234375 C 36.867188 14.238281 37.140625 14.265625 37.410156 14.320312 C 37.679688 14.375 37.941406 14.453125 38.195312 14.558594 C 38.449219 14.664062 38.691406 14.792969 38.921875 14.949219 C 39.148438 15.101562 39.359375 15.273438 39.554688 15.46875 C 39.75 15.664062 39.921875 15.875 40.078125 16.105469 C 40.230469 16.335938 40.359375 16.578125 40.464844 16.832031 C 40.570312 17.085938 40.648438 17.347656 40.703125 17.617188 C 40.757812 17.886719 40.785156 18.160156 40.785156 18.4375 C 40.785156 18.621094 40.75 18.800781 40.679688 18.972656 C 40.609375 19.144531 40.507812 19.292969 40.378906 19.425781 C 40.246094 19.558594 40.09375 19.660156 39.925781 19.730469 C 39.753906 19.800781 39.574219 19.835938 39.390625 19.835938 C 39.203125 19.835938 39.023438 19.800781 38.855469 19.730469 C 38.683594 19.660156 38.53125 19.558594 38.402344 19.425781 C 38.269531 19.292969 38.167969 19.144531 38.097656 18.972656 C 38.027344 18.800781 37.992188 18.621094 37.992188 18.4375 C 37.992188 18.25 37.957031 18.070312 37.882812 17.898438 C 37.8125 17.730469 37.710938 17.578125 37.582031 17.445312 C 37.449219 17.316406 37.300781 17.214844 37.128906 17.144531 C 36.957031 17.070312 36.777344 17.035156 36.59375 17.035156 L 34.496094 17.035156 C 34.21875 17.035156 33.949219 17.089844 33.695312 17.195312 C 33.4375 17.300781 33.210938 17.453125 33.011719 17.652344 C 32.816406 17.847656 32.664062 18.074219 32.558594 18.332031 C 32.453125 18.589844 32.398438 18.859375 32.398438 19.136719 C 32.398438 19.414062 32.453125 19.683594 32.558594 19.941406 C 32.664062 20.195312 32.816406 20.425781 33.011719 20.621094 C 33.210938 20.816406 33.4375 20.96875 33.695312 21.078125 C 33.949219 21.183594 34.21875 21.234375 34.496094 21.234375 L 35.894531 21.234375 C 36.214844 21.234375 36.535156 21.265625 36.847656 21.332031 C 37.164062 21.394531 37.46875 21.484375 37.765625 21.609375 C 38.0625 21.730469 38.34375 21.882812 38.613281 22.0625 C 38.878906 22.242188 39.125 22.445312 39.355469 22.671875 C 39.582031 22.898438 39.785156 23.144531 39.960938 23.414062 C 40.140625 23.679688 40.292969 23.964844 40.414062 24.261719 C 40.539062 24.558594 40.628906 24.863281 40.691406 25.179688 C 40.753906 25.496094 40.785156 25.8125 40.785156 26.136719 C 40.785156 26.457031 40.753906 26.777344 40.691406 27.09375 C 40.628906 27.40625 40.539062 27.714844 40.414062 28.011719 C 40.292969 28.308594 40.140625 28.589844 39.960938 28.859375 C 39.785156 29.125 39.582031 29.375 39.355469 29.601562 C 39.125 29.828125 38.878906 30.03125 38.613281 30.210938 C 38.34375 30.390625 38.0625 30.539062 37.765625 30.664062 C 37.46875 30.785156 37.164062 30.878906 36.847656 30.941406 C 36.535156 31.003906 36.214844 31.035156 35.894531 31.035156 L 33.796875 31.035156 C 33.523438 31.035156 33.25 31.007812 32.980469 30.953125 C 32.710938 30.898438 32.449219 30.820312 32.195312 30.714844 C 31.941406 30.605469 31.699219 30.476562 31.46875 30.324219 C 31.242188 30.171875 31.03125 29.996094 30.835938 29.800781 C 30.640625 29.609375 30.46875 29.394531 30.3125 29.167969 C 30.160156 28.9375 30.03125 28.695312 29.925781 28.441406 C 29.820312 28.1875 29.738281 27.925781 29.6875 27.65625 C 29.632812 27.382812 29.605469 27.113281 29.601562 26.835938 C 29.601562 26.652344 29.640625 26.472656 29.710938 26.300781 C 29.78125 26.128906 29.882812 25.976562 30.011719 25.847656 C 30.144531 25.714844 30.296875 25.613281 30.464844 25.542969 C 30.636719 25.472656 30.816406 25.4375 31 25.4375 C 31.1875 25.4375 31.363281 25.472656 31.535156 25.542969 C 31.707031 25.613281 31.859375 25.714844 31.988281 25.847656 C 32.121094 25.976562 32.222656 26.128906 32.292969 26.300781 C 32.363281 26.472656 32.398438 26.652344 32.398438 26.835938 C 32.398438 27.023438 32.433594 27.199219 32.503906 27.371094 C 32.578125 27.542969 32.675781 27.695312 32.808594 27.824219 C 32.941406 27.957031 33.089844 28.058594 33.261719 28.128906 C 33.433594 28.199219 33.613281 28.234375 33.796875 28.234375 L 35.894531 28.234375 C 36.171875 28.234375 36.441406 28.183594 36.695312 28.078125 C 36.953125 27.96875 37.179688 27.816406 37.375 27.621094 C 37.574219 27.425781 37.726562 27.195312 37.832031 26.941406 C 37.9375 26.683594 37.992188 26.414062 37.992188 26.136719 C 37.992188 25.859375 37.9375 25.589844 37.832031 25.332031 C 37.726562 25.074219 37.574219 24.847656 37.375 24.652344 C 37.179688 24.453125 36.953125 24.300781 36.695312 24.195312 C 36.441406 24.089844 36.171875 24.035156 35.894531 24.035156 Z M 49.875 24.035156 L 48.476562 24.035156 C 48.15625 24.035156 47.835938 24.003906 47.519531 23.941406 C 47.207031 23.878906 46.898438 23.785156 46.601562 23.664062 C 46.304688 23.539062 46.023438 23.390625 45.757812 23.210938 C 45.492188 23.03125 45.242188 22.828125 45.015625 22.601562 C 44.789062 22.375 44.585938 22.125 44.40625 21.859375 C 44.230469 21.589844 44.078125 21.308594 43.957031 21.011719 C 43.832031 20.714844 43.738281 20.40625 43.675781 20.09375 C 43.613281 19.777344 43.582031 19.457031 43.582031 19.136719 C 43.582031 18.8125 43.613281 18.496094 43.675781 18.179688 C 43.738281 17.863281 43.832031 17.558594 43.957031 17.261719 C 44.078125 16.964844 44.230469 16.679688 44.40625 16.414062 C 44.585938 16.144531 44.789062 15.898438 45.015625 15.671875 C 45.242188 15.445312 45.492188 15.242188 45.757812 15.0625 C 46.023438 14.882812 46.304688 14.730469 46.601562 14.609375 C 46.898438 14.484375 47.207031 14.394531 47.519531 14.332031 C 47.835938 14.265625 48.15625 14.234375 48.476562 14.234375 L 50.574219 14.234375 C 50.847656 14.238281 51.121094 14.265625 51.390625 14.320312 C 51.660156 14.375 51.921875 14.453125 52.175781 14.558594 C 52.429688 14.664062 52.671875 14.792969 52.898438 14.949219 C 53.128906 15.101562 53.339844 15.273438 53.535156 15.46875 C 53.730469 15.664062 53.902344 15.875 54.054688 16.105469 C 54.210938 16.335938 54.339844 16.578125 54.445312 16.832031 C 54.550781 17.085938 54.628906 17.347656 54.683594 17.617188 C 54.738281 17.886719 54.765625 18.160156 54.765625 18.4375 C 54.765625 18.621094 54.730469 18.800781 54.660156 18.972656 C 54.589844 19.144531 54.488281 19.292969 54.355469 19.425781 C 54.226562 19.558594 54.074219 19.660156 53.902344 19.730469 C 53.730469 19.800781 53.554688 19.835938 53.367188 19.835938 C 53.183594 19.835938 53.003906 19.800781 52.832031 19.730469 C 52.664062 19.660156 52.511719 19.558594 52.378906 19.425781 C 52.25 19.292969 52.148438 19.144531 52.078125 18.972656 C 52.007812 18.800781 51.96875 18.621094 51.96875 18.4375 C 51.96875 18.25 51.933594 18.070312 51.863281 17.898438 C 51.792969 17.730469 51.691406 17.578125 51.5625 17.445312 C 51.429688 17.316406 51.277344 17.214844 51.109375 17.144531 C 50.9375 17.070312 50.757812 17.035156 50.574219 17.035156 L 48.476562 17.035156 C 48.199219 17.035156 47.929688 17.089844 47.671875 17.195312 C 47.417969 17.300781 47.191406 17.453125 46.992188 17.652344 C 46.796875 17.847656 46.644531 18.074219 46.539062 18.332031 C 46.433594 18.589844 46.378906 18.859375 46.378906 19.136719 C 46.378906 19.414062 46.433594 19.683594 46.539062 19.941406 C 46.644531 20.195312 46.796875 20.425781 46.992188 20.621094 C 47.191406 20.816406 47.417969 20.96875 47.671875 21.078125 C 47.929688 21.183594 48.199219 21.234375 48.476562 21.234375 L 49.875 21.234375 C 50.195312 21.234375 50.511719 21.265625 50.828125 21.332031 C 51.144531 21.394531 51.449219 21.484375 51.746094 21.609375 C 52.042969 21.730469 52.324219 21.882812 52.59375 22.0625 C 52.859375 22.242188 53.105469 22.445312 53.332031 22.671875 C 53.5625 22.898438 53.761719 23.144531 53.941406 23.414062 C 54.121094 23.679688 54.269531 23.964844 54.394531 24.261719 C 54.515625 24.558594 54.609375 24.863281 54.671875 25.179688 C 54.734375 25.496094 54.765625 25.8125 54.765625 26.136719 C 54.765625 26.457031 54.734375 26.777344 54.671875 27.09375 C 54.609375 27.40625 54.515625 27.714844 54.394531 28.011719 C 54.269531 28.308594 54.121094 28.589844 53.941406 28.859375 C 53.761719 29.125 53.5625 29.375 53.332031 29.601562 C 53.105469 29.828125 52.859375 30.03125 52.59375 30.210938 C 52.324219 30.390625 52.042969 30.539062 51.746094 30.664062 C 51.449219 30.785156 51.144531 30.878906 50.828125 30.941406 C 50.511719 31.003906 50.195312 31.035156 49.875 31.035156 L 47.777344 31.035156 C 47.5 31.035156 47.230469 31.007812 46.960938 30.953125 C 46.691406 30.898438 46.429688 30.820312 46.171875 30.714844 C 45.917969 30.605469 45.679688 30.476562 45.449219 30.324219 C 45.222656 30.171875 45.007812 29.996094 44.816406 29.800781 C 44.621094 29.609375 44.445312 29.394531 44.292969 29.167969 C 44.140625 28.9375 44.011719 28.695312 43.90625 28.441406 C 43.800781 28.1875 43.71875 27.925781 43.664062 27.65625 C 43.609375 27.382812 43.582031 27.113281 43.582031 26.835938 C 43.582031 26.652344 43.617188 26.472656 43.6875 26.300781 C 43.761719 26.128906 43.859375 25.976562 43.992188 25.847656 C 44.125 25.714844 44.273438 25.613281 44.445312 25.542969 C 44.617188 25.472656 44.796875 25.4375 44.980469 25.4375 C 45.167969 25.4375 45.34375 25.472656 45.515625 25.542969 C 45.6875 25.613281 45.839844 25.714844 45.96875 25.847656 C 46.101562 25.976562 46.203125 26.128906 46.273438 26.300781 C 46.34375 26.472656 46.378906 26.652344 46.378906 26.835938 C 46.378906 27.023438 46.414062 27.199219 46.484375 27.371094 C 46.554688 27.542969 46.65625 27.695312 46.789062 27.824219 C 46.917969 27.957031 47.070312 28.058594 47.242188 28.128906 C 47.414062 28.199219 47.589844 28.234375 47.777344 28.234375 L 49.875 28.234375 C 50.152344 28.234375 50.417969 28.183594 50.675781 28.078125 C 50.933594 27.96875 51.160156 27.816406 51.355469 27.621094 C 51.554688 27.425781 51.703125 27.195312 51.8125 26.941406 C 51.917969 26.683594 51.96875 26.414062 51.96875 26.136719 C 51.96875 25.859375 51.917969 25.589844 51.8125 25.332031 C 51.703125 25.074219 51.554688 24.847656 51.355469 24.652344 C 51.160156 24.453125 50.933594 24.300781 50.675781 24.195312 C 50.417969 24.089844 50.152344 24.035156 49.875 24.035156 Z M 61.757812 21.234375 L 61.757812 13.410156 L 70.96875 22.636719 L 63.152344 22.636719 C 62.96875 22.636719 62.789062 22.601562 62.621094 22.53125 C 62.449219 22.457031 62.296875 22.355469 62.164062 22.226562 C 62.035156 22.09375 61.933594 21.941406 61.863281 21.773438 C 61.792969 21.601562 61.757812 21.421875 61.757812 21.234375 Z M 78.53125 78.636719 L 75.734375 78.636719 L 75.734375 24.035156 C 75.734375 23.652344 75.597656 23.320312 75.332031 23.042969 L 61.351562 9.042969 C 61.074219 8.773438 60.742188 8.640625 60.359375 8.636719 L 17.023438 8.636719 L 17.023438 5.835938 L 78.53125 5.835938 Z M 78.53125 78.636719 " fill-opacity="1" fill-rule="nonzero"/></g></svg>