<svg xmlns="http://www.w3.org/2000/svg" xmlns:xlink="http://www.w3.org/1999/xlink" width="120" zoomAndPan="magnify" viewBox="0 0 90 89.999999" height="120" preserveAspectRatio="xMidYMid meet" version="1.0"><defs><clipPath id="aab1d52f15"><path d="M 9 3.492188 L 81 3.492188 L 81 86.742188 L 9 86.742188 Z M 9 3.492188 " clip-rule="nonzero"/></clipPath></defs><path fill="#5fa2ad" d="M 60.21875 58.992188 C 59.851562 58.992188 59.5 58.921875 59.160156 58.78125 C 58.820312 58.636719 58.523438 58.4375 58.261719 58.179688 C 58.003906 57.917969 57.804688 57.617188 57.664062 57.277344 C 57.523438 56.9375 57.453125 56.582031 57.453125 56.214844 L 57.453125 53.441406 C 57.453125 53.074219 57.417969 52.714844 57.347656 52.359375 C 57.273438 52 57.171875 51.652344 57.03125 51.316406 C 56.890625 50.980469 56.722656 50.660156 56.519531 50.355469 C 56.316406 50.054688 56.089844 49.773438 55.832031 49.515625 C 55.574219 49.257812 55.292969 49.027344 54.992188 48.824219 C 54.691406 48.625 54.371094 48.453125 54.035156 48.3125 C 53.699219 48.171875 53.355469 48.066406 52.996094 47.996094 C 52.640625 47.925781 52.28125 47.890625 51.917969 47.890625 C 51.734375 47.890625 51.558594 47.925781 51.386719 47.996094 C 51.21875 48.066406 51.070312 48.167969 50.941406 48.296875 C 50.808594 48.425781 50.710938 48.578125 50.640625 48.746094 C 50.570312 48.917969 50.535156 49.09375 50.535156 49.277344 C 50.535156 49.460938 50.570312 49.640625 50.640625 49.808594 C 50.710938 49.980469 50.808594 50.128906 50.941406 50.257812 C 51.070312 50.390625 51.21875 50.488281 51.386719 50.558594 C 51.558594 50.628906 51.734375 50.664062 51.917969 50.664062 C 52.285156 50.664062 52.636719 50.734375 52.976562 50.875 C 53.316406 51.019531 53.613281 51.21875 53.875 51.476562 C 54.132812 51.738281 54.335938 52.039062 54.472656 52.378906 C 54.613281 52.71875 54.683594 53.074219 54.683594 53.441406 L 54.683594 56.214844 C 54.683594 57.011719 54.847656 57.773438 55.175781 58.5 C 55.503906 59.226562 55.964844 59.851562 56.5625 60.378906 C 55.964844 60.902344 55.503906 61.53125 55.175781 62.257812 C 54.847656 62.980469 54.683594 63.742188 54.683594 64.539062 L 54.683594 67.316406 C 54.683594 67.683594 54.613281 68.039062 54.472656 68.378906 C 54.335938 68.71875 54.132812 69.015625 53.875 69.277344 C 53.613281 69.539062 53.316406 69.738281 52.976562 69.878906 C 52.636719 70.019531 52.285156 70.089844 51.917969 70.089844 C 51.734375 70.089844 51.558594 70.125 51.386719 70.195312 C 51.21875 70.265625 51.070312 70.367188 50.941406 70.496094 C 50.808594 70.628906 50.710938 70.777344 50.640625 70.945312 C 50.570312 71.117188 50.535156 71.292969 50.535156 71.476562 C 50.535156 71.660156 50.570312 71.839844 50.640625 72.007812 C 50.710938 72.179688 50.808594 72.328125 50.941406 72.460938 C 51.070312 72.589844 51.21875 72.691406 51.386719 72.761719 C 51.558594 72.832031 51.734375 72.867188 51.917969 72.867188 C 52.28125 72.867188 52.640625 72.828125 52.996094 72.757812 C 53.355469 72.6875 53.699219 72.582031 54.035156 72.441406 C 54.371094 72.304688 54.691406 72.132812 54.992188 71.929688 C 55.292969 71.726562 55.574219 71.496094 55.832031 71.238281 C 56.089844 70.980469 56.316406 70.703125 56.519531 70.398438 C 56.722656 70.097656 56.890625 69.777344 57.03125 69.4375 C 57.171875 69.101562 57.273438 68.753906 57.347656 68.398438 C 57.417969 68.039062 57.453125 67.679688 57.453125 67.316406 L 57.453125 64.539062 C 57.453125 64.171875 57.523438 63.820312 57.664062 63.480469 C 57.804688 63.136719 58.003906 62.839844 58.261719 62.578125 C 58.523438 62.316406 58.820312 62.117188 59.160156 61.976562 C 59.5 61.835938 59.851562 61.765625 60.21875 61.765625 C 60.402344 61.765625 60.578125 61.730469 60.75 61.660156 C 60.917969 61.589844 61.066406 61.488281 61.199219 61.359375 C 61.328125 61.230469 61.425781 61.078125 61.496094 60.910156 C 61.566406 60.738281 61.601562 60.5625 61.601562 60.378906 C 61.601562 60.195312 61.566406 60.015625 61.496094 59.847656 C 61.425781 59.675781 61.328125 59.527344 61.199219 59.398438 C 61.066406 59.265625 60.917969 59.167969 60.75 59.097656 C 60.578125 59.027344 60.402344 58.992188 60.21875 58.992188 Z M 60.21875 58.992188 " fill-opacity="1" fill-rule="nonzero"/><path fill="#5fa2ad" d="M 29.78125 53.441406 C 29.78125 53.074219 29.851562 52.71875 29.992188 52.378906 C 30.132812 52.039062 30.332031 51.738281 30.589844 51.476562 C 30.851562 51.21875 31.148438 51.019531 31.488281 50.875 C 31.828125 50.734375 32.179688 50.664062 32.546875 50.664062 C 32.730469 50.664062 32.90625 50.628906 33.078125 50.558594 C 33.246094 50.488281 33.394531 50.390625 33.527344 50.257812 C 33.65625 50.128906 33.753906 49.980469 33.824219 49.808594 C 33.894531 49.640625 33.929688 49.460938 33.929688 49.277344 C 33.929688 49.09375 33.894531 48.917969 33.824219 48.746094 C 33.753906 48.578125 33.65625 48.425781 33.527344 48.296875 C 33.394531 48.167969 33.246094 48.066406 33.078125 47.996094 C 32.90625 47.925781 32.730469 47.890625 32.546875 47.890625 C 32.183594 47.890625 31.824219 47.925781 31.46875 47.996094 C 31.113281 48.066406 30.765625 48.171875 30.429688 48.3125 C 30.09375 48.453125 29.773438 48.625 29.472656 48.824219 C 29.171875 49.027344 28.890625 49.257812 28.632812 49.515625 C 28.378906 49.773438 28.148438 50.054688 27.945312 50.355469 C 27.742188 50.660156 27.574219 50.980469 27.433594 51.316406 C 27.296875 51.652344 27.191406 52 27.121094 52.359375 C 27.046875 52.714844 27.011719 53.074219 27.011719 53.441406 L 27.011719 56.214844 C 27.011719 56.582031 26.941406 56.9375 26.800781 57.277344 C 26.664062 57.617188 26.460938 57.917969 26.203125 58.179688 C 25.941406 58.4375 25.644531 58.636719 25.304688 58.78125 C 24.964844 58.921875 24.613281 58.992188 24.246094 58.992188 C 24.0625 58.992188 23.886719 59.027344 23.714844 59.097656 C 23.546875 59.167969 23.398438 59.265625 23.269531 59.398438 C 23.136719 59.527344 23.039062 59.675781 22.96875 59.847656 C 22.898438 60.015625 22.863281 60.195312 22.863281 60.378906 C 22.863281 60.5625 22.898438 60.738281 22.96875 60.910156 C 23.039062 61.078125 23.136719 61.230469 23.269531 61.359375 C 23.398438 61.488281 23.546875 61.589844 23.714844 61.660156 C 23.886719 61.730469 24.0625 61.765625 24.246094 61.765625 C 24.613281 61.765625 24.964844 61.835938 25.304688 61.976562 C 25.644531 62.117188 25.941406 62.316406 26.203125 62.578125 C 26.460938 62.839844 26.664062 63.136719 26.800781 63.480469 C 26.941406 63.820312 27.011719 64.171875 27.011719 64.539062 L 27.011719 67.316406 C 27.011719 67.679688 27.046875 68.039062 27.121094 68.398438 C 27.191406 68.753906 27.296875 69.101562 27.433594 69.4375 C 27.574219 69.777344 27.742188 70.097656 27.945312 70.398438 C 28.148438 70.703125 28.378906 70.980469 28.632812 71.238281 C 28.890625 71.496094 29.171875 71.726562 29.472656 71.929688 C 29.773438 72.132812 30.09375 72.304688 30.429688 72.441406 C 30.765625 72.582031 31.113281 72.6875 31.46875 72.757812 C 31.824219 72.828125 32.183594 72.867188 32.546875 72.867188 C 32.730469 72.867188 32.90625 72.832031 33.078125 72.761719 C 33.246094 72.691406 33.394531 72.589844 33.527344 72.460938 C 33.65625 72.328125 33.753906 72.179688 33.824219 72.007812 C 33.894531 71.839844 33.929688 71.660156 33.929688 71.476562 C 33.929688 71.292969 33.894531 71.117188 33.824219 70.945312 C 33.753906 70.777344 33.65625 70.628906 33.527344 70.496094 C 33.394531 70.367188 33.246094 70.265625 33.078125 70.195312 C 32.90625 70.125 32.730469 70.089844 32.546875 70.089844 C 32.179688 70.089844 31.828125 70.019531 31.488281 69.878906 C 31.148438 69.738281 30.851562 69.539062 30.589844 69.277344 C 30.332031 69.015625 30.132812 68.71875 29.992188 68.378906 C 29.851562 68.039062 29.78125 67.683594 29.78125 67.316406 L 29.78125 64.539062 C 29.78125 63.742188 29.617188 62.980469 29.289062 62.257812 C 28.960938 61.53125 28.5 60.902344 27.902344 60.378906 C 28.5 59.851562 28.960938 59.226562 29.289062 58.5 C 29.617188 57.773438 29.78125 57.011719 29.78125 56.214844 Z M 29.78125 53.441406 " fill-opacity="1" fill-rule="nonzero"/><path fill="#5fa2ad" d="M 43.617188 56.214844 C 43.617188 56.398438 43.582031 56.578125 43.511719 56.746094 C 43.441406 56.917969 43.339844 57.066406 43.210938 57.195312 C 43.082031 57.328125 42.933594 57.425781 42.761719 57.496094 C 42.59375 57.566406 42.417969 57.601562 42.234375 57.601562 C 42.050781 57.601562 41.871094 57.566406 41.703125 57.496094 C 41.535156 57.425781 41.382812 57.328125 41.253906 57.195312 C 41.125 57.066406 41.023438 56.917969 40.953125 56.746094 C 40.882812 56.578125 40.847656 56.398438 40.847656 56.214844 C 40.847656 56.03125 40.882812 55.855469 40.953125 55.683594 C 41.023438 55.515625 41.125 55.363281 41.253906 55.234375 C 41.382812 55.105469 41.535156 55.003906 41.703125 54.933594 C 41.871094 54.863281 42.050781 54.828125 42.234375 54.828125 C 42.417969 54.828125 42.59375 54.863281 42.761719 54.933594 C 42.933594 55.003906 43.082031 55.105469 43.210938 55.234375 C 43.339844 55.363281 43.441406 55.515625 43.511719 55.683594 C 43.582031 55.855469 43.617188 56.03125 43.617188 56.214844 Z M 43.617188 56.214844 " fill-opacity="1" fill-rule="nonzero"/><path fill="#5fa2ad" d="M 42.234375 63.152344 C 42.050781 63.152344 41.871094 63.1875 41.703125 63.257812 C 41.535156 63.328125 41.382812 63.429688 41.253906 63.558594 C 41.125 63.691406 41.023438 63.839844 40.953125 64.007812 C 40.882812 64.179688 40.847656 64.355469 40.847656 64.539062 C 40.847656 64.722656 40.8125 64.902344 40.742188 65.070312 C 40.671875 65.242188 40.574219 65.390625 40.445312 65.523438 C 40.3125 65.652344 40.164062 65.753906 39.996094 65.824219 C 39.824219 65.894531 39.648438 65.929688 39.464844 65.929688 C 39.28125 65.929688 39.105469 65.964844 38.9375 66.035156 C 38.765625 66.105469 38.617188 66.203125 38.488281 66.335938 C 38.359375 66.464844 38.257812 66.613281 38.1875 66.785156 C 38.117188 66.953125 38.082031 67.132812 38.082031 67.316406 C 38.082031 67.5 38.117188 67.675781 38.1875 67.847656 C 38.257812 68.015625 38.359375 68.167969 38.488281 68.296875 C 38.617188 68.425781 38.765625 68.527344 38.9375 68.597656 C 39.105469 68.667969 39.28125 68.703125 39.464844 68.703125 C 39.738281 68.703125 40.007812 68.675781 40.277344 68.625 C 40.542969 68.570312 40.800781 68.492188 41.054688 68.386719 C 41.304688 68.28125 41.546875 68.152344 41.773438 68 C 42 67.851562 42.207031 67.675781 42.402344 67.484375 C 42.59375 67.289062 42.765625 67.082031 42.917969 66.851562 C 43.066406 66.625 43.195312 66.386719 43.300781 66.132812 C 43.40625 65.882812 43.484375 65.621094 43.535156 65.351562 C 43.589844 65.085938 43.617188 64.8125 43.617188 64.539062 C 43.617188 64.355469 43.582031 64.179688 43.511719 64.007812 C 43.441406 63.839844 43.339844 63.691406 43.210938 63.558594 C 43.082031 63.429688 42.933594 63.328125 42.761719 63.257812 C 42.59375 63.1875 42.417969 63.152344 42.234375 63.152344 Z M 42.234375 63.152344 " fill-opacity="1" fill-rule="nonzero"/><g clip-path="url(#aab1d52f15)"><path fill="#5fa2ad" d="M 79.589844 3.492188 L 15.945312 3.492188 C 15.761719 3.492188 15.585938 3.527344 15.414062 3.597656 C 15.246094 3.667969 15.097656 3.765625 14.964844 3.898438 C 14.835938 4.027344 14.738281 4.175781 14.667969 4.347656 C 14.597656 4.515625 14.5625 4.695312 14.5625 4.878906 L 14.5625 9.039062 L 10.410156 9.039062 C 10.226562 9.039062 10.050781 9.074219 9.878906 9.144531 C 9.710938 9.214844 9.5625 9.316406 9.433594 9.445312 C 9.300781 9.578125 9.203125 9.726562 9.132812 9.898438 C 9.0625 10.066406 9.027344 10.242188 9.027344 10.429688 L 9.027344 85.351562 C 9.027344 85.535156 9.0625 85.714844 9.132812 85.882812 C 9.203125 86.054688 9.300781 86.203125 9.433594 86.335938 C 9.5625 86.464844 9.710938 86.566406 9.878906 86.636719 C 10.050781 86.707031 10.226562 86.742188 10.410156 86.742188 L 74.054688 86.742188 C 74.238281 86.742188 74.414062 86.707031 74.585938 86.636719 C 74.753906 86.566406 74.902344 86.464844 75.035156 86.335938 C 75.164062 86.203125 75.261719 86.054688 75.332031 85.882812 C 75.402344 85.714844 75.4375 85.535156 75.4375 85.351562 L 75.4375 81.191406 L 79.589844 81.191406 C 79.773438 81.191406 79.949219 81.15625 80.121094 81.085938 C 80.289062 81.015625 80.4375 80.914062 80.566406 80.785156 C 80.699219 80.652344 80.796875 80.503906 80.867188 80.335938 C 80.9375 80.164062 80.972656 79.988281 80.972656 79.804688 L 80.972656 4.878906 C 80.972656 4.695312 80.9375 4.515625 80.867188 4.347656 C 80.796875 4.175781 80.699219 4.027344 80.566406 3.898438 C 80.4375 3.765625 80.289062 3.667969 80.121094 3.597656 C 79.949219 3.527344 79.773438 3.492188 79.589844 3.492188 Z M 72.671875 83.964844 L 11.792969 83.964844 L 11.792969 36.789062 L 72.671875 36.789062 Z M 24.246094 25.691406 C 24.246094 25.507812 24.28125 25.328125 24.351562 25.160156 C 24.421875 24.988281 24.523438 24.839844 24.652344 24.710938 C 24.78125 24.578125 24.929688 24.480469 25.101562 24.410156 C 25.269531 24.339844 25.445312 24.304688 25.628906 24.304688 C 25.8125 24.304688 25.988281 24.339844 26.160156 24.410156 C 26.328125 24.480469 26.476562 24.578125 26.609375 24.710938 C 26.738281 24.839844 26.835938 24.988281 26.90625 25.160156 C 26.976562 25.328125 27.011719 25.507812 27.011719 25.691406 C 27.011719 26.058594 27.082031 26.414062 27.222656 26.753906 C 27.363281 27.09375 27.5625 27.390625 27.824219 27.652344 C 28.082031 27.914062 28.382812 28.113281 28.722656 28.253906 C 29.058594 28.394531 29.414062 28.464844 29.78125 28.464844 C 30.148438 28.464844 30.5 28.394531 30.839844 28.253906 C 31.179688 28.113281 31.476562 27.914062 31.738281 27.652344 C 31.996094 27.390625 32.195312 27.09375 32.335938 26.753906 C 32.476562 26.414062 32.546875 26.058594 32.546875 25.691406 L 32.546875 15.976562 C 32.546875 15.792969 32.582031 15.617188 32.652344 15.445312 C 32.722656 15.277344 32.824219 15.128906 32.953125 14.996094 C 33.082031 14.867188 33.230469 14.765625 33.402344 14.695312 C 33.570312 14.625 33.746094 14.589844 33.929688 14.589844 C 34.113281 14.589844 34.292969 14.625 34.460938 14.695312 C 34.628906 14.765625 34.78125 14.867188 34.910156 14.996094 C 35.039062 15.128906 35.140625 15.277344 35.210938 15.445312 C 35.28125 15.617188 35.316406 15.792969 35.316406 15.976562 L 35.316406 25.691406 C 35.316406 26.054688 35.28125 26.414062 35.207031 26.773438 C 35.136719 27.128906 35.03125 27.476562 34.894531 27.816406 C 34.753906 28.152344 34.585938 28.472656 34.382812 28.773438 C 34.179688 29.078125 33.949219 29.355469 33.695312 29.613281 C 33.4375 29.871094 33.15625 30.101562 32.855469 30.304688 C 32.554688 30.507812 32.234375 30.679688 31.898438 30.816406 C 31.5625 30.957031 31.214844 31.0625 30.859375 31.132812 C 30.503906 31.203125 30.144531 31.242188 29.78125 31.242188 C 29.417969 31.242188 29.058594 31.203125 28.699219 31.132812 C 28.34375 31.0625 28 30.957031 27.664062 30.816406 C 27.328125 30.679688 27.007812 30.507812 26.707031 30.304688 C 26.402344 30.101562 26.125 29.871094 25.867188 29.613281 C 25.609375 29.355469 25.378906 29.078125 25.179688 28.773438 C 24.976562 28.472656 24.804688 28.152344 24.667969 27.816406 C 24.527344 27.476562 24.421875 27.128906 24.351562 26.773438 C 24.28125 26.414062 24.246094 26.054688 24.246094 25.691406 Z M 44.308594 24.304688 L 42.925781 24.304688 C 42.605469 24.304688 42.292969 24.273438 41.980469 24.210938 C 41.667969 24.148438 41.363281 24.054688 41.070312 23.933594 C 40.777344 23.8125 40.5 23.660156 40.234375 23.484375 C 39.96875 23.308594 39.726562 23.105469 39.5 22.878906 C 39.277344 22.65625 39.074219 22.410156 38.898438 22.144531 C 38.722656 21.878906 38.574219 21.601562 38.449219 21.304688 C 38.328125 21.011719 38.238281 20.707031 38.175781 20.394531 C 38.113281 20.082031 38.082031 19.765625 38.082031 19.445312 C 38.082031 19.128906 38.113281 18.8125 38.175781 18.5 C 38.238281 18.1875 38.328125 17.882812 38.449219 17.589844 C 38.574219 17.292969 38.722656 17.015625 38.898438 16.75 C 39.074219 16.484375 39.277344 16.238281 39.5 16.011719 C 39.726562 15.789062 39.96875 15.585938 40.234375 15.410156 C 40.5 15.230469 40.777344 15.082031 41.070312 14.960938 C 41.363281 14.839844 41.667969 14.746094 41.980469 14.683594 C 42.292969 14.621094 42.605469 14.589844 42.925781 14.589844 L 45 14.589844 C 45.273438 14.589844 45.542969 14.617188 45.808594 14.671875 C 46.074219 14.726562 46.335938 14.804688 46.585938 14.910156 C 46.839844 15.015625 47.078125 15.144531 47.304688 15.296875 C 47.53125 15.449219 47.738281 15.621094 47.929688 15.8125 C 48.125 16.007812 48.296875 16.214844 48.449219 16.445312 C 48.597656 16.671875 48.726562 16.910156 48.832031 17.160156 C 48.9375 17.414062 49.015625 17.675781 49.070312 17.941406 C 49.121094 18.210938 49.148438 18.480469 49.152344 18.753906 C 49.152344 18.9375 49.117188 19.113281 49.046875 19.285156 C 48.976562 19.453125 48.875 19.605469 48.746094 19.734375 C 48.617188 19.863281 48.464844 19.964844 48.296875 20.035156 C 48.128906 20.105469 47.949219 20.140625 47.765625 20.140625 C 47.582031 20.140625 47.40625 20.105469 47.238281 20.035156 C 47.066406 19.964844 46.917969 19.863281 46.789062 19.734375 C 46.660156 19.605469 46.558594 19.453125 46.488281 19.285156 C 46.417969 19.113281 46.382812 18.9375 46.382812 18.753906 C 46.382812 18.570312 46.347656 18.390625 46.277344 18.222656 C 46.207031 18.050781 46.109375 17.902344 45.976562 17.773438 C 45.847656 17.640625 45.699219 17.542969 45.53125 17.472656 C 45.359375 17.402344 45.183594 17.367188 45 17.367188 L 42.925781 17.367188 C 42.648438 17.367188 42.382812 17.417969 42.128906 17.523438 C 41.875 17.628906 41.652344 17.78125 41.457031 17.976562 C 41.261719 18.171875 41.113281 18.394531 41.007812 18.648438 C 40.902344 18.90625 40.847656 19.171875 40.847656 19.445312 C 40.847656 19.722656 40.902344 19.988281 41.007812 20.242188 C 41.113281 20.5 41.261719 20.722656 41.457031 20.917969 C 41.652344 21.113281 41.875 21.265625 42.128906 21.371094 C 42.382812 21.476562 42.648438 21.527344 42.925781 21.527344 L 44.308594 21.527344 C 44.625 21.527344 44.941406 21.558594 45.253906 21.621094 C 45.566406 21.683594 45.867188 21.777344 46.160156 21.898438 C 46.457031 22.019531 46.734375 22.167969 47 22.347656 C 47.261719 22.523438 47.507812 22.726562 47.730469 22.949219 C 47.957031 23.175781 48.15625 23.421875 48.335938 23.6875 C 48.511719 23.953125 48.660156 24.230469 48.78125 24.527344 C 48.902344 24.820312 48.996094 25.125 49.058594 25.4375 C 49.121094 25.75 49.152344 26.066406 49.152344 26.382812 C 49.152344 26.703125 49.121094 27.019531 49.058594 27.332031 C 48.996094 27.644531 48.902344 27.949219 48.78125 28.242188 C 48.660156 28.539062 48.511719 28.816406 48.335938 29.082031 C 48.15625 29.347656 47.957031 29.59375 47.730469 29.816406 C 47.507812 30.042969 47.261719 30.246094 47 30.421875 C 46.734375 30.597656 46.457031 30.75 46.160156 30.871094 C 45.867188 30.992188 45.566406 31.085938 45.253906 31.148438 C 44.941406 31.210938 44.625 31.242188 44.308594 31.242188 L 42.234375 31.242188 C 41.960938 31.238281 41.691406 31.210938 41.425781 31.160156 C 41.15625 31.105469 40.898438 31.023438 40.644531 30.921875 C 40.394531 30.816406 40.15625 30.6875 39.929688 30.535156 C 39.703125 30.382812 39.492188 30.210938 39.300781 30.019531 C 39.109375 29.824219 38.9375 29.613281 38.785156 29.386719 C 38.632812 29.160156 38.503906 28.921875 38.402344 28.667969 C 38.296875 28.417969 38.21875 28.15625 38.164062 27.890625 C 38.109375 27.621094 38.082031 27.351562 38.082031 27.078125 C 38.082031 26.894531 38.117188 26.71875 38.1875 26.546875 C 38.257812 26.378906 38.359375 26.226562 38.488281 26.097656 C 38.617188 25.96875 38.765625 25.867188 38.9375 25.796875 C 39.105469 25.726562 39.28125 25.691406 39.464844 25.691406 C 39.648438 25.691406 39.824219 25.726562 39.996094 25.796875 C 40.164062 25.867188 40.3125 25.96875 40.445312 26.097656 C 40.574219 26.226562 40.671875 26.378906 40.742188 26.546875 C 40.8125 26.71875 40.847656 26.894531 40.847656 27.078125 C 40.847656 27.261719 40.882812 27.4375 40.953125 27.609375 C 41.023438 27.777344 41.125 27.929688 41.253906 28.058594 C 41.382812 28.1875 41.535156 28.289062 41.703125 28.359375 C 41.871094 28.429688 42.050781 28.464844 42.234375 28.464844 L 44.308594 28.464844 C 44.582031 28.464844 44.847656 28.414062 45.101562 28.308594 C 45.355469 28.203125 45.582031 28.050781 45.777344 27.855469 C 45.96875 27.660156 46.121094 27.4375 46.226562 27.179688 C 46.332031 26.925781 46.382812 26.660156 46.382812 26.382812 C 46.382812 26.109375 46.332031 25.84375 46.226562 25.585938 C 46.121094 25.332031 45.96875 25.109375 45.777344 24.914062 C 45.582031 24.71875 45.355469 24.566406 45.101562 24.460938 C 44.847656 24.355469 44.582031 24.304688 44.308594 24.304688 Z M 61.601562 21.527344 L 61.601562 13.773438 L 70.722656 22.914062 L 62.988281 22.914062 C 62.804688 22.914062 62.625 22.878906 62.457031 22.808594 C 62.289062 22.738281 62.136719 22.640625 62.007812 22.507812 C 61.878906 22.378906 61.777344 22.230469 61.707031 22.058594 C 61.636719 21.890625 61.601562 21.710938 61.601562 21.527344 Z M 78.207031 78.414062 L 75.4375 78.414062 L 75.4375 24.304688 C 75.4375 23.921875 75.300781 23.59375 75.039062 23.316406 L 61.203125 9.441406 C 60.929688 9.175781 60.601562 9.042969 60.21875 9.039062 L 17.328125 9.039062 L 17.328125 6.265625 L 78.207031 6.265625 Z M 78.207031 78.414062 " fill-opacity="1" fill-rule="nonzero"/></g></svg>