<?xml version="1.0" encoding="UTF-8"?>
<svg width="1783px" height="1050px" viewBox="0 0 1783 1050" version="1.1" xmlns="http://www.w3.org/2000/svg" xmlns:xlink="http://www.w3.org/1999/xlink">
    <!-- Generator: Sketch 51.3 (57544) - http://www.bohemiancoding.com/sketch -->
    <title>Oracle-Project-ONE-LOGO</title>
    <desc>Created with Sketch.</desc>
    <defs></defs>
    <g id="Oracle-Project-ONE-LOGO" stroke="none" stroke-width="1" fill="none" fill-rule="evenodd">
        <path d="M107.674019,407.39996 C134.999545,441.377596 176.33303,451.370607 214.334622,451.370607 C253.66697,451.370607 292.999318,440.710662 321.00523,407.39996 C360.337578,359.43171 364.339852,283.482229 364.339852,250.836462 C364.339852,141.57528 328.339397,58.9634591 218.336896,58.9634591 C96.3375782,58.9634591 64.9997726,156.898762 64.9997726,255.501 C64.9997726,308.131789 74.3350767,366.09405 107.674019,407.39996 Z M57.0052302,67.6246015 C107.003638,13.6599446 173.001137,3 217.666515,3 C351.002274,3 435,88.2775567 435,251.503396 C435,379.418731 383.670836,508 212.333485,508 C48.340307,508 -5,391.410544 -5,259.497604 C-5,204.867013 4.33530415,124.253995 57.0052302,67.6246015 Z" id="Fill-4" fill="#FFFFFE"></path>
        <polyline id="Fill-5" fill="#FFFFFE" points="478 15 570.505635 15 806.77907 412.72408 806.77907 15 868 15 868 496 782.816105 496 538.561674 87.616338 538.561674 496 478 496 478 15"></polyline>
        <polyline id="Fill-6" fill="#FFFFFE" points="924 15 1225.67278 15 1225.67278 71.6274654 990.595292 71.6274654 990.595292 221.523521 1214.34868 221.523521 1214.34868 277.484075 990.595292 277.484075 990.595292 437.372801 1231 437.372801 1231 496 924 496 924 15"></polyline>
        <path d="M959.103378,686.284003 C962.373536,690.77553 967.876972,694.956259 978.574775,694.956259 C987.936599,694.956259 994.327364,691.66782 998.634401,684.940555 C1002.20366,679.566764 1005.92247,671.19528 1005.92247,654.001153 C1005.92247,648.777748 1005.47382,641.298554 1003.25051,634.721675 C998.783951,621.427557 989.721227,615.592583 978.724325,615.592583 C970.100281,615.592583 963.260865,619.181794 958.953828,624.705971 C952.862162,632.185165 951.077534,643.845089 951.077534,656.096531 C951.077534,666.413007 952.712613,677.922545 959.103378,686.284003 Z M978.574775,599 C990.020327,599 1005.77292,601.696921 1016.32117,613.647591 C1027.76672,626.801349 1030,643.694703 1030,654.301925 C1030,670.002218 1025.24431,686.735161 1016.47072,696.600479 C1004.58649,710.055008 987.198819,712 978.275675,712 C964.158165,712 950.040654,707.508473 940.230181,697.202023 C928.485529,684.639784 927,666.713779 927,656.848461 C927,628.144796 939.931081,599 978.574775,599 Z" id="Fill-7" fill="#FFFFFE"></path>
        <path d="M1066.8731,648.225864 L1085.55463,648.225864 C1088.25207,648.225864 1093.6269,648.225864 1097.36722,645.240749 C1099.01176,644.03869 1103.34371,640.312305 1103.34371,632.689243 C1103.34371,625.376713 1099.76383,621.940825 1097.66805,620.598525 C1094.07815,618.064183 1089.7462,618.064183 1082.41598,618.064183 L1066.8731,618.064183 L1066.8731,648.225864 Z M1044,601.035003 L1085.40422,601.035003 C1097.36722,600.884746 1109.48064,600.884746 1118.14454,608.357551 C1124.8731,614.177523 1127.56051,622.091083 1127.56051,629.113115 C1127.56051,649.267649 1110.22268,654.045837 1104.98824,655.538394 C1121.2832,657.030952 1122.47649,666.296829 1124.42185,680.330876 C1126.06639,693.022623 1126.96888,698.251583 1127.71093,701.236698 C1128.91425,706.014885 1129.80671,707.206928 1131,709 L1105.43949,709 C1104.39661,703.02977 1101.10754,675.702946 1099.61342,671.515771 C1097.51763,665.395284 1091.83195,665.395284 1087.95124,665.395284 L1067.61515,665.395284 L1067.61515,709 L1044,709 L1044,601.035003 Z" id="Fill-8" fill="#FFFFFE"></path>
        <path d="M1201.08481,668.216923 L1186.15035,622.213212 L1170.15343,668.216923 L1201.08481,668.216923 Z M1200.49345,601 L1238,709 L1214.6862,709 L1206.91827,685.702542 L1164.17965,685.702542 L1156.11103,709 L1134,709 L1173,601 L1200.49345,601 Z" id="Fill-9" fill="#FFFFFE"></path>
        <path d="M1306.64202,636.805806 C1306.19371,633.083123 1304.85876,617.862153 1289.26766,617.862153 C1272.1822,617.862153 1265.05911,635.765056 1265.05911,657.991075 C1265.05911,664.405698 1265.05911,694.987739 1287.48439,694.987739 C1297.13792,694.987739 1306.34315,688.873332 1306.79145,674.553011 L1331,674.553011 C1330.55169,680.967634 1329.95395,690.96484 1321.34647,699.911287 C1311.84237,709.758384 1299.80784,712 1290.00487,712 C1253.02457,712 1241,684.550216 1241,657.840966 C1241,623.676343 1260.00819,601 1290.15431,601 C1313.61567,601 1330.10339,615.330328 1330.10339,636.805806 L1306.64202,636.805806" id="Fill-10" fill="#FFFFFE"></path>
        <polyline id="Fill-11" fill="#FFFFFE" points="1344 601 1367.63767 601 1367.63767 690.606987 1414 690.606987 1414 709 1344 709 1344 601"></polyline>
        <polyline id="Fill-12" fill="#FFFFFE" points="1426 601 1498.35533 601 1498.35533 618.625905 1449.16574 618.625905 1449.16574 644.318241 1495.21642 644.318241 1495.21642 661.944145 1449.16574 661.944145 1449.16574 691.073483 1500 691.073483 1500 709 1426 709 1426 601"></polyline>
        <polyline id="Fill-13" fill="#474948" points="935 766 968.308839 766 1008.59857 850.993134 1008.59857 766 1030 766 1030 874 998.336658 874 956.710582 784.367415 956.710582 874 935 874 935 766"></polyline>
        <polyline id="Fill-14" fill="#474948" points="1050 766 1122.35533 766 1122.35533 783.625905 1073.16574 783.625905 1073.16574 809.318241 1119.21642 809.318241 1119.21642 826.944145 1073.16574 826.944145 1073.16574 856.073483 1124 856.073483 1124 874 1050 874 1050 766"></polyline>
        <polyline id="Fill-15" fill="#474948" points="1161.05221 766 1182.84182 802.744851 1206.13348 766 1230.90716 766 1195.37886 817.985897 1233 874 1204.64145 874 1180.60879 833.36723 1154.78369 874 1130 874 1167.92154 818.126183 1132.53344 766 1161.05221 766"></polyline>
        <polyline id="Fill-16" fill="#474948" points="1268.91793 783.926517 1237 783.926517 1237 766 1324 766 1324 783.926517 1292.08207 783.926517 1292.08207 874 1268.91793 874 1268.91793 783.926517"></polyline>
        <polyline id="Fill-17" fill="#FFFFFE" points="935 926 1007.35556 926 1007.35556 943.625905 958.172629 943.625905 958.172629 969.318241 1004.20705 969.318241 1004.20705 986.954166 958.172629 986.954166 958.172629 1016.07348 1009 1016.07348 1009 1034 935 1034 935 926"></polyline>
        <path d="M1046.37945,1015.33923 C1048.91722,1015.48856 1052.78382,1015.63789 1055.47145,1015.63789 C1065.30281,1015.63789 1073.78535,1014.90119 1080.48946,1008.22116 C1089.57148,999.161798 1090.17095,983.133699 1090.17095,977.946967 C1090.17095,962.804894 1084.95553,948.857462 1070.50823,944.84546 C1065.74242,943.511444 1059.63779,942.774749 1046.37945,943.362114 L1046.37945,1015.33923 Z M1023,926 L1058.5987,926.14933 C1064.55347,926.14933 1082.72749,926.29866 1095.6861,935.796055 C1109.23419,945.74144 1114,962.655564 1114,977.946967 C1114,1010.88919 1096.27558,1028.10197 1075.87352,1031.81531 C1071.84706,1032.56197 1067.38098,1033 1056.51054,1033 L1023,1033 L1023,926 Z" id="Fill-18" fill="#FFFFFE"></path>
        <path d="M1153.03075,926 L1153.03075,991.847403 C1153.03075,1003.67363 1153.9177,1018.49156 1176.35051,1018.49156 C1180.06772,1018.49156 1191.20939,1018.34097 1197.14895,1009.06471 C1199.38127,1005.77184 1200.56719,1001.57543 1200.56719,990.652733 L1200.56719,926 L1223,926 L1223,993.49384 C1223,1025.66962 1197.59741,1036 1175.90206,1036 C1165.20885,1036 1145.59634,1033.61066 1135.49111,1017.29689 C1130.29897,1009.06471 1130,1000.68194 1130,990.652733 L1130,926 L1153.03075,926" id="Fill-19" fill="#FFFFFE"></path>
        <path d="M1303.64202,960.799026 C1303.20368,957.076008 1301.86872,941.853665 1286.26766,941.853665 C1269.19216,941.853665 1262.05911,959.758182 1262.05911,981.986205 C1262.05911,988.401407 1262.05911,1018.98621 1284.48439,1018.98621 C1294.13792,1018.98621 1303.35311,1012.87125 1303.79145,998.549635 L1328,998.549635 C1327.56166,1004.96484 1326.96391,1014.96294 1318.34647,1023.9102 C1308.84237,1033.75818 1296.8178,1036 1287.01483,1036 C1250.03454,1036 1238,1008.54774 1238,981.836083 C1238,947.66838 1257.00819,925 1287.16427,925 C1310.62564,925 1327.11335,939.321612 1327.11335,960.799026 L1303.64202,960.799026" id="Fill-20" fill="#FFFFFE"></path>
        <path d="M1399.08481,993.226944 L1384.15035,947.213212 L1368.16345,993.226944 L1399.08481,993.226944 Z M1398.49345,926 L1436,1034 L1412.6862,1034 L1404.91827,1010.70254 L1362.17965,1010.70254 L1354.11103,1034 L1332,1034 L1371,926 L1398.49345,926 Z" id="Fill-21" fill="#FFFFFE"></path>
        <polyline id="Fill-22" fill="#FFFFFE" points="1453.91793 943.926517 1422 943.926517 1422 926 1509 926 1509 943.926517 1477.08207 943.926517 1477.08207 1034 1453.91793 1034 1453.91793 943.926517"></polyline>
        <polygon id="Fill-23" fill="#FFFFFE" points="1518 1034 1541 1034 1541 926 1518 926"></polygon>
        <path d="M1587.10338,1011.29175 C1590.37354,1015.77365 1595.87697,1019.95475 1606.57477,1019.95475 C1615.9366,1019.95475 1622.32736,1016.66602 1626.64437,1009.93815 C1630.20366,1004.56389 1633.92247,996.191659 1633.92247,979.006034 C1633.92247,973.772138 1633.47382,966.29228 1631.25051,959.714818 C1626.79392,946.419521 1617.72123,940.584028 1606.72432,940.584028 C1598.10028,940.584028 1591.27084,944.173558 1586.95383,949.708252 C1580.86216,957.178083 1579.07753,968.839042 1579.07753,981.091571 C1579.07753,991.408962 1580.71261,1002.91952 1587.10338,1011.29175 Z M1606.57477,924 C1618.02033,924 1633.77292,926.687134 1644.33114,938.648891 C1655.77669,951.793789 1658,968.688642 1658,979.296806 C1658,994.998492 1653.24431,1011.73292 1644.48069,1021.59911 C1632.58649,1035.05484 1615.19882,1037 1606.27568,1037 C1592.15816,1037 1578.04065,1032.5181 1568.23018,1022.20071 C1556.48553,1009.64738 1555,991.70976 1555,981.843567 C1555,953.137356 1567.93108,924 1606.57477,924 Z" id="Fill-24" fill="#FFFFFE"></path>
        <polyline id="Fill-25" fill="#FFFFFE" points="1674 926 1707.30884 926 1747.59857 1011.00315 1747.59857 926 1769 926 1769 1034 1737.33666 1034 1695.71058 944.377436 1695.71058 1034 1674 1034 1674 926"></polyline>
        <polygon id="Fill-26" fill="#474948" points="22 639 408 639 408 581 22 581"></polygon>
    </g>
</svg>