<svg xmlns="http://www.w3.org/2000/svg" xmlns:xlink="http://www.w3.org/1999/xlink" width="120" zoomAndPan="magnify" viewBox="0 0 90 89.999999" height="120" preserveAspectRatio="xMidYMid meet" version="1.0"><defs><clipPath id="8489b5356c"><path d="M 2.714844 2.714844 L 87.464844 2.714844 L 87.464844 87.464844 L 2.714844 87.464844 Z M 2.714844 2.714844 " clip-rule="nonzero"/></clipPath><clipPath id="165df3b9e9"><path d="M 2.714844 43 L 12 43 L 12 53 L 2.714844 53 Z M 2.714844 43 " clip-rule="nonzero"/></clipPath></defs><path fill="#5fa2ad" d="M 46.507812 80.394531 C 46.507812 80.582031 46.472656 80.761719 46.402344 80.933594 C 46.328125 81.105469 46.226562 81.257812 46.09375 81.390625 C 45.964844 81.523438 45.808594 81.625 45.636719 81.699219 C 45.464844 81.769531 45.285156 81.804688 45.097656 81.804688 C 44.910156 81.804688 44.730469 81.769531 44.554688 81.699219 C 44.382812 81.625 44.230469 81.523438 44.097656 81.390625 C 43.964844 81.257812 43.863281 81.105469 43.792969 80.933594 C 43.71875 80.761719 43.683594 80.582031 43.683594 80.394531 C 43.683594 80.207031 43.71875 80.027344 43.792969 79.851562 C 43.863281 79.679688 43.964844 79.527344 44.097656 79.394531 C 44.230469 79.261719 44.382812 79.160156 44.554688 79.089844 C 44.730469 79.015625 44.910156 78.980469 45.097656 78.980469 C 45.285156 78.980469 45.464844 79.015625 45.636719 79.089844 C 45.808594 79.160156 45.964844 79.261719 46.09375 79.394531 C 46.226562 79.527344 46.328125 79.679688 46.402344 79.851562 C 46.472656 80.027344 46.507812 80.207031 46.507812 80.394531 Z M 46.507812 80.394531 " fill-opacity="1" fill-rule="nonzero"/><path fill="#5fa2ad" d="M 70.515625 38.027344 C 70.515625 38.214844 70.480469 38.394531 70.410156 38.566406 C 70.335938 38.742188 70.234375 38.894531 70.101562 39.027344 C 69.96875 39.15625 69.816406 39.261719 69.644531 39.332031 C 69.472656 39.402344 69.292969 39.4375 69.105469 39.4375 C 68.917969 39.4375 68.738281 39.402344 68.5625 39.332031 C 68.390625 39.261719 68.238281 39.15625 68.105469 39.027344 C 67.972656 38.894531 67.871094 38.742188 67.800781 38.566406 C 67.726562 38.394531 67.691406 38.214844 67.691406 38.027344 C 67.691406 37.839844 67.726562 37.660156 67.800781 37.488281 C 67.871094 37.3125 67.972656 37.160156 68.105469 37.027344 C 68.238281 36.894531 68.390625 36.792969 68.5625 36.722656 C 68.738281 36.652344 68.917969 36.613281 69.105469 36.613281 C 69.292969 36.613281 69.472656 36.652344 69.644531 36.722656 C 69.816406 36.792969 69.96875 36.894531 70.101562 37.027344 C 70.234375 37.160156 70.335938 37.3125 70.410156 37.488281 C 70.480469 37.660156 70.515625 37.839844 70.515625 38.027344 Z M 70.515625 38.027344 " fill-opacity="1" fill-rule="nonzero"/><path fill="#5fa2ad" d="M 81.8125 46.5 C 81.8125 46.6875 81.777344 46.867188 81.707031 47.039062 C 81.636719 47.214844 81.53125 47.367188 81.402344 47.5 C 81.269531 47.632812 81.117188 47.734375 80.941406 47.804688 C 80.769531 47.875 80.589844 47.914062 80.402344 47.914062 C 80.214844 47.914062 80.035156 47.875 79.863281 47.804688 C 79.6875 47.734375 79.535156 47.632812 79.402344 47.5 C 79.269531 47.367188 79.167969 47.214844 79.097656 47.039062 C 79.027344 46.867188 78.988281 46.6875 78.988281 46.5 C 78.988281 46.3125 79.027344 46.132812 79.097656 45.960938 C 79.167969 45.785156 79.269531 45.632812 79.402344 45.5 C 79.535156 45.371094 79.6875 45.265625 79.863281 45.195312 C 80.035156 45.125 80.214844 45.089844 80.402344 45.089844 C 80.589844 45.089844 80.769531 45.125 80.941406 45.195312 C 81.117188 45.265625 81.269531 45.371094 81.402344 45.5 C 81.53125 45.632812 81.636719 45.785156 81.707031 45.960938 C 81.777344 46.132812 81.8125 46.3125 81.8125 46.5 Z M 81.8125 46.5 " fill-opacity="1" fill-rule="nonzero"/><path fill="#5fa2ad" d="M 19.675781 54.972656 C 19.675781 55.160156 19.640625 55.339844 19.570312 55.515625 C 19.496094 55.6875 19.394531 55.839844 19.261719 55.972656 C 19.132812 56.105469 18.976562 56.207031 18.804688 56.277344 C 18.632812 56.351562 18.453125 56.386719 18.265625 56.386719 C 18.078125 56.386719 17.898438 56.351562 17.722656 56.277344 C 17.550781 56.207031 17.398438 56.105469 17.265625 55.972656 C 17.132812 55.839844 17.03125 55.6875 16.960938 55.515625 C 16.886719 55.339844 16.851562 55.160156 16.851562 54.972656 C 16.851562 54.785156 16.886719 54.605469 16.960938 54.433594 C 17.03125 54.261719 17.132812 54.105469 17.265625 53.976562 C 17.398438 53.84375 17.550781 53.742188 17.722656 53.667969 C 17.898438 53.597656 18.078125 53.5625 18.265625 53.5625 C 18.453125 53.5625 18.632812 53.597656 18.804688 53.667969 C 18.976562 53.742188 19.132812 53.84375 19.261719 53.976562 C 19.394531 54.105469 19.496094 54.261719 19.570312 54.433594 C 19.640625 54.605469 19.675781 54.785156 19.675781 54.972656 Z M 19.675781 54.972656 " fill-opacity="1" fill-rule="nonzero"/><path fill="#5fa2ad" d="M 11.203125 60.621094 C 11.203125 60.808594 11.167969 60.988281 11.097656 61.164062 C 11.023438 61.335938 10.921875 61.488281 10.789062 61.621094 C 10.65625 61.753906 10.503906 61.855469 10.332031 61.925781 C 10.160156 62 9.980469 62.035156 9.792969 62.035156 C 9.605469 62.035156 9.425781 62 9.25 61.925781 C 9.078125 61.855469 8.925781 61.753906 8.792969 61.621094 C 8.660156 61.488281 8.558594 61.335938 8.488281 61.164062 C 8.414062 60.988281 8.378906 60.808594 8.378906 60.621094 C 8.378906 60.433594 8.414062 60.253906 8.488281 60.082031 C 8.558594 59.910156 8.660156 59.757812 8.792969 59.625 C 8.925781 59.492188 9.078125 59.390625 9.25 59.316406 C 9.425781 59.246094 9.605469 59.210938 9.792969 59.210938 C 9.980469 59.210938 10.160156 59.246094 10.332031 59.316406 C 10.503906 59.390625 10.65625 59.492188 10.789062 59.625 C 10.921875 59.757812 11.023438 59.910156 11.097656 60.082031 C 11.167969 60.253906 11.203125 60.433594 11.203125 60.621094 Z M 11.203125 60.621094 " fill-opacity="1" fill-rule="nonzero"/><g clip-path="url(#8489b5356c)"><path fill="#5fa2ad" d="M 84.636719 60.621094 L 83.183594 60.621094 C 83.164062 58.566406 82.167969 56.246094 80.394531 55.164062 C 81.160156 52.109375 77.878906 49.457031 74.796875 49.714844 C 73.972656 43.480469 61.414062 43.480469 60.589844 49.714844 C 57.492188 49.445312 54.234375 52.113281 54.988281 55.164062 C 53.550781 56.046875 52.59375 57.785156 52.316406 59.476562 L 51.097656 58.925781 C 49.914062 57.402344 49.175781 55.558594 48.449219 53.777344 C 53.066406 51.316406 56.175781 47.03125 56.363281 42.128906 C 57.164062 41.96875 57.914062 41.675781 58.613281 41.257812 C 59.3125 40.835938 59.921875 40.308594 60.4375 39.679688 C 60.957031 39.046875 61.351562 38.347656 61.628906 37.578125 C 61.902344 36.8125 62.042969 36.019531 62.042969 35.203125 L 62.042969 19.722656 C 62.042969 10.347656 51.90625 2.722656 39.449219 2.722656 C 26.988281 2.722656 16.851562 10.347656 16.851562 19.722656 L 16.851562 35.203125 C 16.855469 36.019531 16.992188 36.808594 17.265625 37.578125 C 17.542969 38.34375 17.9375 39.042969 18.457031 39.675781 C 18.972656 40.304688 19.582031 40.832031 20.28125 41.253906 C 20.980469 41.671875 21.726562 41.964844 22.527344 42.125 C 22.703125 47.023438 25.816406 51.304688 30.421875 53.773438 C 29.636719 55.585938 28.867188 57.507812 27.515625 58.957031 C 22.179688 61.125 17.375 63.613281 13.242188 66.371094 C 11.625 67.449219 10.160156 68.710938 8.851562 70.152344 C 7.542969 71.589844 6.433594 73.167969 5.515625 74.886719 C 4.597656 76.601562 3.902344 78.402344 3.433594 80.292969 C 2.960938 82.179688 2.726562 84.097656 2.730469 86.042969 C 2.730469 86.230469 2.765625 86.410156 2.839844 86.582031 C 2.910156 86.753906 3.011719 86.90625 3.144531 87.039062 C 3.277344 87.171875 3.429688 87.273438 3.601562 87.347656 C 3.777344 87.417969 3.957031 87.453125 4.144531 87.453125 L 79.34375 87.453125 C 79.6875 87.453125 79.992188 87.34375 80.253906 87.121094 C 80.515625 86.898438 80.675781 86.621094 80.734375 86.28125 L 83.683594 69.09375 L 84.636719 69.09375 C 85.011719 69.09375 85.375 69.023438 85.71875 68.878906 C 86.066406 68.738281 86.371094 68.53125 86.636719 68.269531 C 86.902344 68.003906 87.105469 67.699219 87.246094 67.351562 C 87.390625 67.007812 87.464844 66.644531 87.464844 66.269531 L 87.464844 63.445312 C 87.464844 63.070312 87.390625 62.710938 87.246094 62.367188 C 87.105469 62.019531 86.902344 61.714844 86.636719 61.449219 C 86.371094 61.183594 86.066406 60.980469 85.71875 60.835938 C 85.375 60.695312 85.011719 60.621094 84.636719 60.621094 Z M 55.597656 58.527344 C 56.007812 57.824219 56.550781 57.402344 57.210938 57.269531 C 58.234375 57.09375 58.699219 55.746094 58.003906 54.976562 C 57.835938 54.777344 57.386719 54.246094 58.0625 53.464844 C 58.796875 52.613281 60.347656 52.152344 61.570312 52.902344 C 62.675781 53.640625 64.160156 52.375 63.617188 51.164062 C 63.085938 49.878906 63.597656 49.269531 64.101562 48.886719 C 65.777344 47.601562 69.605469 47.601562 71.28125 48.886719 C 71.71875 49.21875 72.164062 49.722656 71.921875 50.699219 C 70.933594 51.199219 70.007812 51.792969 69.144531 52.484375 C 69 52.605469 68.886719 52.75 68.800781 52.917969 C 68.714844 53.085938 68.664062 53.261719 68.648438 53.449219 C 68.632812 53.636719 68.65625 53.816406 68.710938 53.996094 C 68.769531 54.175781 68.859375 54.335938 68.980469 54.476562 C 69.101562 54.621094 69.246094 54.734375 69.410156 54.820312 C 69.578125 54.90625 69.753906 54.957031 69.941406 54.972656 C 70.128906 54.988281 70.3125 54.964844 70.488281 54.90625 C 70.667969 54.851562 70.828125 54.761719 70.972656 54.640625 C 71.984375 53.777344 73.660156 52.988281 73.675781 52.980469 C 75.339844 51.941406 78.691406 53.332031 77.382812 54.976562 C 76.6875 55.75 77.152344 57.09375 78.179688 57.269531 C 79.558594 57.488281 80.382812 59.367188 80.394531 60.625 L 54.996094 60.625 C 55.027344 59.875 55.226562 59.179688 55.597656 58.527344 Z M 50.363281 69.058594 L 48.566406 71.566406 L 44.480469 67.488281 L 47.921875 64.371094 L 47.921875 66.269531 C 47.921875 66.613281 47.984375 66.941406 48.105469 67.257812 C 48.226562 67.578125 48.398438 67.863281 48.621094 68.121094 C 48.847656 68.375 49.109375 68.585938 49.40625 68.746094 C 49.707031 68.90625 50.027344 69.011719 50.363281 69.058594 Z M 33.007812 54.910156 C 35.089844 55.628906 37.234375 55.988281 39.4375 55.988281 C 41.636719 55.988281 43.78125 55.628906 45.863281 54.910156 C 46.570312 56.695312 47.363281 58.484375 48.433594 60.082031 L 42.539062 65.429688 C 42.148438 65.789062 41.707031 66.0625 41.210938 66.257812 C 40.714844 66.449219 40.203125 66.542969 39.671875 66.539062 C 39.140625 66.535156 38.628906 66.4375 38.132812 66.238281 C 37.640625 66.042969 37.203125 65.761719 36.8125 65.398438 C 33.550781 62.5625 31.613281 60.878906 30.394531 59.917969 C 30.46875 59.796875 32.339844 56.511719 33.007812 54.910156 Z M 28.148438 61.753906 C 29.304688 62.667969 32.089844 65.039062 34.644531 67.257812 L 30.332031 71.566406 L 24.464844 63.355469 C 25.660156 62.804688 26.886719 62.269531 28.148438 61.753906 Z M 40.859375 69.273438 C 41.238281 69.207031 41.613281 69.109375 41.976562 68.980469 L 47.746094 74.746094 C 47.890625 74.890625 48.0625 74.996094 48.257812 75.066406 C 48.453125 75.136719 48.652344 75.164062 48.859375 75.148438 C 49.066406 75.132812 49.257812 75.070312 49.441406 74.972656 C 49.621094 74.871094 49.769531 74.734375 49.894531 74.566406 L 52.105469 71.46875 L 54.367188 84.628906 L 40.859375 84.628906 Z M 28.0625 30.964844 L 39.140625 24.3125 L 50.558594 30.964844 Z M 25.324219 33.789062 L 38.035156 33.789062 L 38.035156 37.476562 L 36.238281 39.4375 L 28.257812 39.4375 L 25.324219 37.308594 Z M 40.859375 33.789062 L 53.570312 33.789062 L 53.570312 37.308594 L 50.640625 39.4375 L 42.660156 39.4375 L 40.859375 37.476562 Z M 56.394531 39.179688 L 56.394531 34.367188 L 59.140625 35.96875 C 59.003906 36.710938 58.6875 37.367188 58.195312 37.941406 C 57.707031 38.515625 57.105469 38.925781 56.394531 39.179688 Z M 19.675781 19.722656 C 19.675781 11.902344 28.546875 5.546875 39.449219 5.546875 C 50.351562 5.546875 59.21875 11.902344 59.21875 19.722656 L 59.21875 32.746094 L 39.839844 21.449219 C 39.617188 21.316406 39.378906 21.253906 39.121094 21.253906 C 38.863281 21.257812 38.621094 21.324219 38.402344 21.457031 L 19.675781 32.707031 Z M 19.753906 35.960938 L 22.5 34.304688 L 22.5 39.179688 C 21.789062 38.925781 21.1875 38.511719 20.695312 37.9375 C 20.203125 37.359375 19.890625 36.699219 19.753906 35.957031 Z M 25.324219 41.667969 L 25.324219 40.800781 L 26.964844 41.992188 C 27.214844 42.171875 27.492188 42.261719 27.796875 42.261719 L 36.859375 42.261719 C 37.273438 42.265625 37.621094 42.113281 37.898438 41.804688 L 39.449219 40.117188 L 40.996094 41.804688 C 41.277344 42.113281 41.625 42.265625 42.039062 42.261719 L 51.097656 42.261719 C 51.40625 42.261719 51.683594 42.171875 51.929688 41.992188 L 53.570312 40.800781 L 53.570312 41.667969 C 53.570312 48.007812 47.234375 53.164062 39.449219 53.164062 C 31.660156 53.164062 25.324219 48.007812 25.324219 41.667969 Z M 16.851562 78.980469 C 16.664062 78.980469 16.484375 79.015625 16.3125 79.089844 C 16.140625 79.160156 15.988281 79.261719 15.855469 79.394531 C 15.722656 79.527344 15.621094 79.679688 15.546875 79.851562 C 15.476562 80.027344 15.441406 80.207031 15.441406 80.394531 L 15.441406 84.628906 L 5.601562 84.628906 C 5.707031 83.039062 5.988281 81.480469 6.453125 79.953125 C 6.914062 78.425781 7.546875 76.972656 8.34375 75.59375 C 9.144531 74.210938 10.089844 72.941406 11.179688 71.777344 C 12.269531 70.613281 13.480469 69.589844 14.808594 68.707031 C 17.089844 67.203125 19.449219 65.839844 21.890625 64.613281 L 29 74.566406 C 29.121094 74.734375 29.273438 74.871094 29.453125 74.972656 C 29.636719 75.074219 29.828125 75.132812 30.035156 75.148438 C 30.242188 75.167969 30.441406 75.140625 30.636719 75.070312 C 30.832031 74.996094 31.003906 74.890625 31.152344 74.746094 L 37.050781 68.84375 C 37.371094 68.96875 37.699219 69.070312 38.035156 69.148438 L 38.035156 84.628906 L 18.265625 84.628906 L 18.265625 80.394531 C 18.265625 80.207031 18.230469 80.027344 18.15625 79.851562 C 18.085938 79.679688 17.984375 79.527344 17.851562 79.394531 C 17.71875 79.261719 17.566406 79.160156 17.394531 79.089844 C 17.21875 79.015625 17.039062 78.980469 16.851562 78.980469 Z M 57.234375 84.628906 L 54.566406 69.09375 L 58.996094 69.09375 L 60.320312 84.628906 Z M 73.554688 69.09375 L 72.226562 84.628906 L 69.105469 84.628906 L 69.105469 69.09375 Z M 66.28125 84.628906 L 63.15625 84.628906 L 61.828125 69.09375 L 66.28125 69.09375 Z M 78.152344 84.628906 L 75.0625 84.628906 L 76.390625 69.09375 L 80.816406 69.09375 Z M 50.746094 66.269531 L 50.746094 63.445312 L 84.636719 63.445312 L 84.636719 66.269531 Z M 50.746094 66.269531 " fill-opacity="1" fill-rule="nonzero"/></g><path fill="#5fa2ad" d="M 84.636719 33.789062 C 84.636719 33.511719 84.613281 33.238281 84.558594 32.964844 C 84.503906 32.691406 84.421875 32.425781 84.316406 32.167969 C 84.210938 31.910156 84.078125 31.667969 83.925781 31.4375 C 83.769531 31.207031 83.59375 30.992188 83.398438 30.792969 C 83.199219 30.597656 82.988281 30.421875 82.753906 30.269531 C 82.523438 30.113281 82.28125 29.984375 82.023438 29.875 C 81.765625 29.769531 81.5 29.6875 81.226562 29.636719 C 80.957031 29.582031 80.679688 29.554688 80.402344 29.554688 C 80.125 29.554688 79.847656 29.582031 79.574219 29.636719 C 79.300781 29.6875 79.039062 29.769531 78.78125 29.875 C 78.523438 29.984375 78.28125 30.113281 78.046875 30.269531 C 77.816406 30.421875 77.601562 30.597656 77.40625 30.792969 C 77.210938 30.992188 77.035156 31.207031 76.878906 31.4375 C 76.726562 31.667969 76.59375 31.910156 76.488281 32.167969 C 76.382812 32.425781 76.300781 32.691406 76.246094 32.964844 C 76.191406 33.238281 76.164062 33.511719 76.164062 33.789062 C 76.164062 34.070312 76.191406 34.34375 76.246094 34.617188 C 76.300781 34.890625 76.382812 35.15625 76.488281 35.410156 C 76.59375 35.667969 76.726562 35.914062 76.878906 36.144531 C 77.035156 36.375 77.210938 36.589844 77.40625 36.785156 C 77.601562 36.984375 77.816406 37.160156 78.046875 37.3125 C 78.28125 37.46875 78.523438 37.597656 78.78125 37.703125 C 79.039062 37.8125 79.300781 37.890625 79.574219 37.945312 C 79.847656 38 80.125 38.027344 80.402344 38.027344 C 80.679688 38.027344 80.957031 38 81.226562 37.945312 C 81.5 37.890625 81.765625 37.8125 82.023438 37.703125 C 82.28125 37.597656 82.523438 37.46875 82.753906 37.3125 C 82.988281 37.160156 83.199219 36.984375 83.398438 36.785156 C 83.59375 36.589844 83.769531 36.375 83.925781 36.144531 C 84.078125 35.914062 84.210938 35.667969 84.316406 35.410156 C 84.421875 35.15625 84.503906 34.890625 84.558594 34.617188 C 84.613281 34.34375 84.636719 34.070312 84.636719 33.789062 Z M 80.402344 35.203125 C 80.214844 35.203125 80.035156 35.167969 79.863281 35.09375 C 79.6875 35.023438 79.535156 34.921875 79.402344 34.789062 C 79.269531 34.65625 79.167969 34.503906 79.097656 34.332031 C 79.027344 34.15625 78.988281 33.976562 78.988281 33.789062 C 78.988281 33.601562 79.027344 33.421875 79.097656 33.25 C 79.167969 33.078125 79.269531 32.925781 79.402344 32.792969 C 79.535156 32.660156 79.6875 32.558594 79.863281 32.484375 C 80.035156 32.414062 80.214844 32.378906 80.402344 32.378906 C 80.589844 32.378906 80.769531 32.414062 80.941406 32.484375 C 81.117188 32.558594 81.269531 32.660156 81.402344 32.792969 C 81.53125 32.925781 81.636719 33.078125 81.707031 33.25 C 81.777344 33.421875 81.8125 33.601562 81.8125 33.789062 C 81.8125 33.976562 81.777344 34.15625 81.707031 34.332031 C 81.636719 34.503906 81.53125 34.65625 81.402344 34.789062 C 81.269531 34.921875 81.117188 35.023438 80.941406 35.09375 C 80.769531 35.167969 80.589844 35.203125 80.402344 35.203125 Z M 80.402344 35.203125 " fill-opacity="1" fill-rule="nonzero"/><g clip-path="url(#165df3b9e9)"><path fill="#5fa2ad" d="M 6.96875 43.675781 C 6.6875 43.675781 6.414062 43.703125 6.140625 43.757812 C 5.867188 43.8125 5.601562 43.890625 5.347656 44 C 5.089844 44.105469 4.84375 44.234375 4.613281 44.390625 C 4.382812 44.542969 4.167969 44.71875 3.972656 44.917969 C 3.773438 45.113281 3.597656 45.328125 3.445312 45.558594 C 3.289062 45.789062 3.160156 46.035156 3.054688 46.292969 C 2.945312 46.546875 2.867188 46.8125 2.8125 47.085938 C 2.757812 47.359375 2.730469 47.632812 2.730469 47.914062 C 2.730469 48.191406 2.757812 48.464844 2.8125 48.738281 C 2.867188 49.011719 2.945312 49.277344 3.054688 49.535156 C 3.160156 49.789062 3.289062 50.035156 3.445312 50.265625 C 3.597656 50.496094 3.773438 50.710938 3.972656 50.90625 C 4.167969 51.105469 4.382812 51.28125 4.613281 51.433594 C 4.84375 51.589844 5.089844 51.71875 5.347656 51.828125 C 5.601562 51.933594 5.867188 52.011719 6.140625 52.066406 C 6.414062 52.121094 6.6875 52.148438 6.96875 52.148438 C 7.246094 52.148438 7.519531 52.121094 7.792969 52.066406 C 8.066406 52.011719 8.332031 51.933594 8.589844 51.828125 C 8.84375 51.71875 9.089844 51.589844 9.320312 51.433594 C 9.550781 51.28125 9.765625 51.105469 9.964844 50.90625 C 10.160156 50.710938 10.335938 50.496094 10.488281 50.265625 C 10.644531 50.035156 10.773438 49.789062 10.882812 49.535156 C 10.988281 49.277344 11.066406 49.011719 11.121094 48.738281 C 11.175781 48.464844 11.203125 48.191406 11.203125 47.914062 C 11.203125 47.632812 11.175781 47.359375 11.121094 47.085938 C 11.066406 46.8125 10.988281 46.546875 10.882812 46.292969 C 10.773438 46.035156 10.644531 45.789062 10.488281 45.558594 C 10.335938 45.328125 10.160156 45.113281 9.964844 44.917969 C 9.765625 44.71875 9.550781 44.542969 9.320312 44.390625 C 9.089844 44.234375 8.84375 44.105469 8.589844 44 C 8.332031 43.890625 8.066406 43.8125 7.792969 43.757812 C 7.519531 43.703125 7.246094 43.675781 6.96875 43.675781 Z M 6.96875 49.324219 C 6.78125 49.324219 6.601562 49.289062 6.425781 49.21875 C 6.253906 49.144531 6.101562 49.042969 5.96875 48.910156 C 5.835938 48.777344 5.734375 48.625 5.664062 48.453125 C 5.589844 48.28125 5.554688 48.101562 5.554688 47.914062 C 5.554688 47.726562 5.589844 47.546875 5.664062 47.371094 C 5.734375 47.199219 5.835938 47.046875 5.96875 46.914062 C 6.101562 46.78125 6.253906 46.679688 6.425781 46.609375 C 6.601562 46.535156 6.78125 46.5 6.96875 46.5 C 7.15625 46.5 7.335938 46.535156 7.507812 46.609375 C 7.679688 46.679688 7.832031 46.78125 7.964844 46.914062 C 8.097656 47.046875 8.199219 47.199219 8.273438 47.371094 C 8.34375 47.546875 8.378906 47.726562 8.378906 47.914062 C 8.378906 48.101562 8.34375 48.28125 8.273438 48.453125 C 8.199219 48.625 8.097656 48.777344 7.964844 48.910156 C 7.832031 49.042969 7.679688 49.144531 7.507812 49.21875 C 7.335938 49.289062 7.15625 49.324219 6.96875 49.324219 Z M 6.96875 49.324219 " fill-opacity="1" fill-rule="nonzero"/></g><path fill="#5fa2ad" d="M 66.984375 57.089844 C 66.984375 57.277344 66.949219 57.460938 66.878906 57.632812 C 66.808594 57.804688 66.703125 57.957031 66.574219 58.089844 C 66.441406 58.222656 66.289062 58.324219 66.113281 58.394531 C 65.941406 58.46875 65.761719 58.503906 65.574219 58.503906 C 65.386719 58.503906 65.207031 58.46875 65.035156 58.394531 C 64.859375 58.324219 64.707031 58.222656 64.574219 58.089844 C 64.441406 57.957031 64.339844 57.804688 64.269531 57.632812 C 64.199219 57.460938 64.160156 57.277344 64.160156 57.089844 C 64.160156 56.90625 64.199219 56.722656 64.269531 56.550781 C 64.339844 56.378906 64.441406 56.226562 64.574219 56.09375 C 64.707031 55.960938 64.859375 55.859375 65.035156 55.785156 C 65.207031 55.714844 65.386719 55.679688 65.574219 55.679688 C 65.761719 55.679688 65.941406 55.714844 66.113281 55.785156 C 66.289062 55.859375 66.441406 55.960938 66.574219 56.09375 C 66.703125 56.226562 66.808594 56.378906 66.878906 56.550781 C 66.949219 56.722656 66.984375 56.90625 66.984375 57.089844 Z M 66.984375 57.089844 " fill-opacity="1" fill-rule="nonzero"/><path fill="#5fa2ad" d="M 43.273438 44.878906 C 43.144531 44.746094 42.992188 44.640625 42.820312 44.570312 C 42.648438 44.496094 42.46875 44.457031 42.28125 44.457031 C 42.097656 44.453125 41.914062 44.488281 41.742188 44.558594 C 41.570312 44.628906 41.414062 44.726562 41.28125 44.859375 C 40.839844 45.285156 39.265625 46.554688 37.636719 44.878906 C 37.503906 44.746094 37.351562 44.640625 37.179688 44.566406 C 37.007812 44.492188 36.828125 44.453125 36.640625 44.453125 C 36.453125 44.449219 36.273438 44.484375 36.097656 44.554688 C 35.925781 44.621094 35.769531 44.722656 35.636719 44.855469 C 35.5 44.984375 35.398438 45.136719 35.324219 45.308594 C 35.25 45.480469 35.210938 45.660156 35.210938 45.847656 C 35.207031 46.035156 35.242188 46.21875 35.3125 46.390625 C 35.378906 46.566406 35.480469 46.71875 35.613281 46.851562 C 38.132812 49.550781 41.761719 48.441406 43.273438 46.867188 C 43.402344 46.734375 43.503906 46.582031 43.574219 46.410156 C 43.644531 46.238281 43.683594 46.058594 43.683594 45.871094 C 43.683594 45.6875 43.648438 45.507812 43.578125 45.335938 C 43.507812 45.164062 43.40625 45.011719 43.273438 44.878906 Z M 43.273438 44.878906 " fill-opacity="1" fill-rule="nonzero"/></svg>