<svg xmlns="http://www.w3.org/2000/svg" xmlns:xlink="http://www.w3.org/1999/xlink" width="120" zoomAndPan="magnify" viewBox="0 0 90 89.999999" height="120" preserveAspectRatio="xMidYMid meet" version="1.0"><defs><clipPath id="8b2980b02e"><path d="M 3.828125 3.828125 L 86.328125 3.828125 L 86.328125 86.328125 L 3.828125 86.328125 Z M 3.828125 3.828125 " clip-rule="nonzero"/></clipPath></defs><g clip-path="url(#8b2980b02e)"><path fill="#5fa2ad" d="M 86.328125 10.535156 L 86.328125 79.617188 C 86.328125 83.324219 83.324219 86.328125 79.617188 86.328125 L 10.535156 86.328125 C 6.832031 86.328125 3.828125 83.324219 3.828125 79.617188 L 3.828125 29.140625 L 33.765625 29.140625 L 33.765625 29.117188 L 48.851562 29.117188 C 54.175781 29.117188 54.617188 31.515625 54.617188 33.136719 C 54.617188 34.082031 55.582031 37.625 48.851562 37.625 L 19.121094 37.625 L 19.121094 74.53125 L 33.765625 74.53125 L 33.765625 50.808594 L 50.113281 50.808594 C 53.628906 50.808594 56.304688 52.414062 56.304688 55.804688 C 56.304688 60.199219 50.972656 60.800781 50.113281 60.800781 L 44.09375 60.800781 L 44.09375 74.53125 L 47.886719 74.53125 C 54.683594 74.53125 60.089844 73.242188 63.953125 70.695312 C 68.652344 67.605469 71.03125 62.777344 71.03125 56.351562 C 71.03125 53.949219 70.167969 51.070312 68.71875 48.652344 C 67.550781 46.710938 66.0625 45.125 64.316406 43.949219 C 65.523438 43.007812 66.53125 41.914062 67.328125 40.675781 C 68.664062 38.589844 69.347656 36.195312 69.347656 33.566406 C 69.347656 22.332031 61.324219 15.621094 47.886719 15.621094 L 3.828125 15.621094 L 3.828125 10.535156 C 3.828125 6.832031 6.832031 3.828125 10.535156 3.828125 L 79.617188 3.828125 C 83.324219 3.828125 86.328125 6.832031 86.328125 10.535156 " fill-opacity="1" fill-rule="nonzero"/></g></svg>