<svg xmlns="http://www.w3.org/2000/svg" xmlns:xlink="http://www.w3.org/1999/xlink" width="120" zoomAndPan="magnify" viewBox="0 0 90 89.999999" height="120" preserveAspectRatio="xMidYMid meet" version="1.0"><defs><clipPath id="672ea0cad1"><path d="M 10.035156 4.683594 L 79.785156 4.683594 L 79.785156 85.683594 L 10.035156 85.683594 Z M 10.035156 4.683594 " clip-rule="nonzero"/></clipPath></defs><path fill="#5fa2ad" d="M 32.441406 48.160156 C 32.300781 48.050781 32.144531 47.976562 31.972656 47.929688 C 31.800781 47.882812 31.625 47.871094 31.449219 47.894531 C 31.273438 47.921875 31.109375 47.976562 30.953125 48.066406 C 30.800781 48.15625 30.671875 48.273438 30.5625 48.414062 L 22.398438 59.214844 C 22.214844 59.457031 22.121094 59.730469 22.121094 60.035156 C 22.121094 60.335938 22.214844 60.609375 22.398438 60.851562 L 30.5625 71.652344 C 30.671875 71.792969 30.800781 71.910156 30.953125 72 C 31.109375 72.089844 31.273438 72.148438 31.449219 72.171875 C 31.625 72.195312 31.800781 72.183594 31.972656 72.136719 C 32.144531 72.09375 32.300781 72.015625 32.441406 71.90625 C 32.582031 71.796875 32.699219 71.667969 32.789062 71.511719 C 32.875 71.359375 32.933594 71.191406 32.957031 71.015625 C 32.980469 70.835938 32.96875 70.660156 32.925781 70.488281 C 32.878906 70.316406 32.804688 70.15625 32.695312 70.015625 L 25.15625 60.035156 L 32.695312 50.050781 C 32.804688 49.910156 32.878906 49.753906 32.925781 49.578125 C 32.96875 49.40625 32.980469 49.230469 32.957031 49.054688 C 32.933594 48.875 32.875 48.710938 32.789062 48.554688 C 32.699219 48.402344 32.582031 48.269531 32.441406 48.160156 Z M 32.441406 48.160156 " fill-opacity="1" fill-rule="nonzero"/><path fill="#5fa2ad" d="M 53.871094 48.414062 C 53.761719 48.269531 53.632812 48.15625 53.476562 48.066406 C 53.324219 47.976562 53.160156 47.917969 52.984375 47.894531 C 52.804688 47.871094 52.632812 47.882812 52.460938 47.929688 C 52.289062 47.976562 52.132812 48.050781 51.992188 48.160156 C 51.851562 48.269531 51.734375 48.402344 51.644531 48.558594 C 51.554688 48.710938 51.5 48.878906 51.476562 49.054688 C 51.453125 49.234375 51.464844 49.40625 51.511719 49.582031 C 51.554688 49.753906 51.632812 49.910156 51.742188 50.054688 L 59.308594 60.035156 L 51.742188 70.011719 C 51.632812 70.15625 51.554688 70.3125 51.511719 70.488281 C 51.464844 70.660156 51.453125 70.835938 51.476562 71.011719 C 51.5 71.191406 51.554688 71.355469 51.644531 71.511719 C 51.734375 71.664062 51.851562 71.796875 51.992188 71.90625 C 52.132812 72.015625 52.289062 72.09375 52.460938 72.136719 C 52.632812 72.183594 52.804688 72.195312 52.984375 72.171875 C 53.160156 72.148438 53.324219 72.089844 53.476562 72 C 53.632812 71.910156 53.761719 71.796875 53.871094 71.652344 L 62.058594 60.855469 C 62.242188 60.613281 62.335938 60.339844 62.335938 60.035156 C 62.335938 59.730469 62.242188 59.457031 62.058594 59.214844 Z M 53.871094 48.414062 " fill-opacity="1" fill-rule="nonzero"/><path fill="#5fa2ad" d="M 44.871094 47.914062 C 44.699219 47.875 44.523438 47.871094 44.351562 47.90625 C 44.175781 47.9375 44.011719 48 43.863281 48.097656 C 43.714844 48.195312 43.589844 48.316406 43.488281 48.460938 C 43.386719 48.609375 43.316406 48.769531 43.277344 48.945312 L 38.585938 70.546875 C 38.542969 70.722656 38.53125 70.902344 38.558594 71.082031 C 38.585938 71.265625 38.648438 71.433594 38.742188 71.589844 C 38.839844 71.746094 38.960938 71.875 39.109375 71.980469 C 39.257812 72.085938 39.421875 72.160156 39.597656 72.199219 C 39.777344 72.238281 39.953125 72.242188 40.132812 72.207031 C 40.3125 72.171875 40.476562 72.105469 40.628906 72.003906 C 40.78125 71.902344 40.90625 71.773438 41.003906 71.621094 C 41.105469 71.46875 41.171875 71.300781 41.203125 71.121094 L 45.894531 49.523438 C 45.933594 49.347656 45.9375 49.171875 45.90625 48.996094 C 45.875 48.820312 45.808594 48.65625 45.714844 48.503906 C 45.617188 48.355469 45.496094 48.226562 45.351562 48.125 C 45.207031 48.023438 45.046875 47.953125 44.871094 47.914062 Z M 44.871094 47.914062 " fill-opacity="1" fill-rule="nonzero"/><g clip-path="url(#672ea0cad1)"><path fill="#5fa2ad" d="M 78.417969 4.683594 L 16.761719 4.683594 C 16.585938 4.683594 16.414062 4.71875 16.25 4.785156 C 16.085938 4.855469 15.941406 4.953125 15.8125 5.078125 C 15.6875 5.207031 15.589844 5.351562 15.523438 5.515625 C 15.457031 5.683594 15.421875 5.855469 15.421875 6.035156 L 15.421875 10.082031 L 11.402344 10.082031 C 11.222656 10.082031 11.050781 10.117188 10.886719 10.1875 C 10.722656 10.253906 10.578125 10.351562 10.453125 10.480469 C 10.328125 10.605469 10.230469 10.75 10.164062 10.917969 C 10.09375 11.082031 10.058594 11.253906 10.058594 11.433594 L 10.058594 84.332031 C 10.058594 84.511719 10.09375 84.683594 10.164062 84.851562 C 10.230469 85.015625 10.328125 85.160156 10.453125 85.289062 C 10.578125 85.414062 10.722656 85.511719 10.886719 85.582031 C 11.050781 85.648438 11.222656 85.683594 11.402344 85.683594 L 73.058594 85.683594 C 73.234375 85.683594 73.40625 85.648438 73.570312 85.582031 C 73.734375 85.511719 73.878906 85.414062 74.003906 85.289062 C 74.132812 85.160156 74.226562 85.015625 74.296875 84.851562 C 74.363281 84.683594 74.398438 84.511719 74.398438 84.332031 L 74.398438 80.285156 L 78.417969 80.285156 C 78.597656 80.285156 78.769531 80.25 78.933594 80.179688 C 79.097656 80.113281 79.242188 80.015625 79.367188 79.886719 C 79.492188 79.761719 79.589844 79.617188 79.65625 79.449219 C 79.726562 79.285156 79.757812 79.113281 79.757812 78.933594 L 79.757812 6.035156 C 79.757812 5.855469 79.726562 5.683594 79.65625 5.515625 C 79.589844 5.351562 79.492188 5.207031 79.367188 5.078125 C 79.242188 4.953125 79.097656 4.855469 78.933594 4.785156 C 78.769531 4.71875 78.597656 4.683594 78.417969 4.683594 Z M 16.761719 16.832031 C 16.761719 16.65625 16.796875 16.484375 16.863281 16.316406 C 16.933594 16.152344 17.027344 16.003906 17.15625 15.878906 C 17.28125 15.753906 17.425781 15.65625 17.589844 15.585938 C 17.753906 15.519531 17.925781 15.484375 18.101562 15.484375 C 18.28125 15.484375 18.449219 15.519531 18.617188 15.585938 C 18.78125 15.65625 18.925781 15.753906 19.050781 15.878906 C 19.175781 16.003906 19.273438 16.152344 19.339844 16.316406 C 19.410156 16.484375 19.441406 16.65625 19.441406 16.832031 L 19.441406 22.234375 L 24.804688 22.234375 L 24.804688 16.832031 C 24.804688 16.65625 24.839844 16.484375 24.90625 16.316406 C 24.972656 16.152344 25.070312 16.003906 25.195312 15.878906 C 25.324219 15.753906 25.46875 15.65625 25.632812 15.585938 C 25.796875 15.519531 25.96875 15.484375 26.144531 15.484375 C 26.324219 15.484375 26.492188 15.519531 26.65625 15.585938 C 26.820312 15.65625 26.964844 15.753906 27.09375 15.878906 C 27.21875 16.003906 27.316406 16.152344 27.382812 16.316406 C 27.449219 16.484375 27.484375 16.65625 27.484375 16.832031 L 27.484375 30.332031 C 27.484375 30.511719 27.449219 30.683594 27.382812 30.851562 C 27.316406 31.015625 27.21875 31.160156 27.09375 31.289062 C 26.964844 31.414062 26.820312 31.511719 26.65625 31.582031 C 26.492188 31.648438 26.324219 31.683594 26.144531 31.683594 C 25.96875 31.683594 25.796875 31.648438 25.632812 31.582031 C 25.46875 31.511719 25.324219 31.414062 25.195312 31.289062 C 25.070312 31.160156 24.972656 31.015625 24.90625 30.851562 C 24.839844 30.683594 24.804688 30.511719 24.804688 30.332031 L 24.804688 24.933594 L 19.441406 24.933594 L 19.441406 30.332031 C 19.441406 30.511719 19.410156 30.683594 19.339844 30.851562 C 19.273438 31.015625 19.175781 31.160156 19.050781 31.289062 C 18.925781 31.414062 18.78125 31.511719 18.617188 31.582031 C 18.449219 31.648438 18.28125 31.683594 18.101562 31.683594 C 17.925781 31.683594 17.753906 31.648438 17.589844 31.582031 C 17.425781 31.511719 17.28125 31.414062 17.15625 31.289062 C 17.027344 31.160156 16.933594 31.015625 16.863281 30.851562 C 16.796875 30.683594 16.761719 30.511719 16.761719 30.332031 Z M 71.71875 82.984375 L 12.742188 82.984375 L 12.742188 37.082031 L 71.71875 37.082031 Z M 31.507812 18.183594 C 31.328125 18.183594 31.15625 18.148438 30.992188 18.082031 C 30.828125 18.011719 30.683594 17.914062 30.558594 17.789062 C 30.433594 17.660156 30.335938 17.515625 30.269531 17.351562 C 30.199219 17.183594 30.164062 17.011719 30.164062 16.832031 C 30.164062 16.65625 30.199219 16.484375 30.269531 16.316406 C 30.335938 16.152344 30.433594 16.003906 30.558594 15.878906 C 30.683594 15.753906 30.828125 15.65625 30.992188 15.585938 C 31.15625 15.519531 31.328125 15.484375 31.507812 15.484375 L 39.546875 15.484375 C 39.726562 15.484375 39.898438 15.519531 40.0625 15.585938 C 40.226562 15.65625 40.371094 15.753906 40.496094 15.878906 C 40.621094 16.003906 40.71875 16.152344 40.785156 16.316406 C 40.855469 16.484375 40.890625 16.65625 40.890625 16.832031 C 40.890625 17.011719 40.855469 17.183594 40.785156 17.351562 C 40.71875 17.515625 40.621094 17.660156 40.496094 17.789062 C 40.371094 17.914062 40.226562 18.011719 40.0625 18.082031 C 39.898438 18.148438 39.726562 18.183594 39.546875 18.183594 L 36.867188 18.183594 L 36.867188 30.332031 C 36.867188 30.511719 36.832031 30.683594 36.765625 30.851562 C 36.699219 31.015625 36.601562 31.160156 36.476562 31.289062 C 36.347656 31.414062 36.203125 31.511719 36.039062 31.582031 C 35.875 31.648438 35.703125 31.683594 35.527344 31.683594 C 35.347656 31.683594 35.179688 31.648438 35.015625 31.582031 C 34.851562 31.511719 34.707031 31.414062 34.578125 31.289062 C 34.453125 31.160156 34.355469 31.015625 34.289062 30.851562 C 34.222656 30.683594 34.1875 30.511719 34.1875 30.332031 L 34.1875 18.183594 Z M 50.082031 24.273438 C 49.601562 25.101562 48.261719 25.101562 47.777344 24.273438 L 46.25 21.707031 L 46.25 30.332031 C 46.25 30.511719 46.214844 30.683594 46.148438 30.851562 C 46.082031 31.015625 45.984375 31.160156 45.859375 31.289062 C 45.730469 31.414062 45.585938 31.511719 45.421875 31.582031 C 45.257812 31.648438 45.085938 31.683594 44.910156 31.683594 C 44.730469 31.683594 44.5625 31.648438 44.398438 31.582031 C 44.234375 31.511719 44.085938 31.414062 43.960938 31.289062 C 43.835938 31.160156 43.738281 31.015625 43.671875 30.851562 C 43.601562 30.683594 43.570312 30.511719 43.570312 30.332031 L 43.570312 16.832031 C 43.570312 16.53125 43.660156 16.257812 43.84375 16.015625 C 44.027344 15.773438 44.265625 15.613281 44.554688 15.53125 C 44.847656 15.453125 45.132812 15.46875 45.410156 15.582031 C 45.691406 15.695312 45.910156 15.882812 46.0625 16.144531 L 48.929688 20.964844 L 51.800781 16.144531 C 51.953125 15.882812 52.171875 15.695312 52.449219 15.582031 C 52.730469 15.46875 53.015625 15.453125 53.304688 15.53125 C 53.597656 15.613281 53.835938 15.773438 54.019531 16.015625 C 54.199219 16.257812 54.292969 16.53125 54.292969 16.832031 L 54.292969 30.332031 C 54.292969 30.511719 54.257812 30.683594 54.191406 30.851562 C 54.121094 31.015625 54.027344 31.160156 53.898438 31.289062 C 53.773438 31.414062 53.628906 31.511719 53.464844 31.582031 C 53.300781 31.648438 53.128906 31.683594 52.953125 31.683594 C 52.773438 31.683594 52.601562 31.648438 52.4375 31.582031 C 52.273438 31.511719 52.128906 31.414062 52.003906 31.289062 C 51.878906 31.160156 51.78125 31.015625 51.714844 30.851562 C 51.644531 30.683594 51.613281 30.511719 51.613281 30.332031 L 51.613281 21.707031 Z M 60.996094 22.234375 L 60.996094 14.6875 L 69.828125 23.582031 L 62.335938 23.582031 C 62.15625 23.582031 61.984375 23.550781 61.820312 23.480469 C 61.65625 23.414062 61.511719 23.316406 61.386719 23.1875 C 61.261719 23.0625 61.164062 22.914062 61.097656 22.75 C 61.027344 22.585938 60.996094 22.414062 60.996094 22.234375 Z M 77.078125 77.582031 L 74.398438 77.582031 L 74.398438 24.933594 C 74.394531 24.5625 74.265625 24.242188 74.007812 23.976562 L 60.605469 10.476562 C 60.339844 10.21875 60.023438 10.085938 59.652344 10.082031 L 18.101562 10.082031 L 18.101562 7.382812 L 77.078125 7.382812 Z M 77.078125 77.582031 " fill-opacity="1" fill-rule="nonzero"/></g></svg>