<svg xmlns="http://www.w3.org/2000/svg" xmlns:xlink="http://www.w3.org/1999/xlink" width="120" zoomAndPan="magnify" viewBox="0 0 90 89.999999" height="120" preserveAspectRatio="xMidYMid meet" version="1.0"><defs><clipPath id="1c70879a64"><path d="M 15 3.421875 L 75.503906 3.421875 L 75.503906 82 L 15 82 Z M 15 3.421875 " clip-rule="nonzero"/></clipPath></defs><g clip-path="url(#1c70879a64)"><path fill="#5fa2ad" d="M 50.539062 3.421875 C 54.65625 11.609375 35.789062 16.65625 34.03125 23.472656 C 32.425781 29.738281 45.234375 37.019531 45.246094 37.019531 C 43.296875 34.429688 41.890625 32.285156 39.933594 28.25 C 36.632812 21.425781 59.445312 14.386719 50.539062 3.421875 Z M 63.847656 14.621094 C 63.847656 14.621094 49.621094 15.484375 48.894531 24.128906 C 48.570312 27.980469 52.632812 30.03125 52.746094 32.835938 C 52.84375 35.121094 50.320312 37.019531 50.320312 37.019531 C 50.320312 37.019531 54.492188 36.382812 55.921875 32.894531 C 57.503906 29.023438 53.253906 26.195312 53.726562 23.09375 C 54.179688 20.128906 63.847656 14.621094 63.847656 14.621094 Z M 38.253906 37.027344 C 38.253906 37.027344 22.660156 36.804688 22.660156 41.277344 C 22.660156 43.414062 27.003906 44.601562 33.007812 45.035156 C 30.574219 45.140625 27.152344 47.046875 27.152344 48.914062 C 27.152344 52.773438 45.511719 55.746094 59.101562 50.109375 L 54.398438 47.054688 C 45.226562 50.15625 28.367188 49.175781 33.175781 45.046875 C 40.320312 45.542969 49.800781 44.964844 57.667969 43.414062 C 57.667969 43.414062 60.984375 41.546875 62.019531 40.542969 C 52.460938 42.515625 31.226562 41.941406 31.226562 40.230469 C 31.226562 38.648438 38.253906 37.027344 38.253906 37.027344 Z M 69.816406 37.027344 C 68.101562 36.953125 66.226562 37.519531 64.609375 38.710938 C 67.984375 37.957031 70.832031 40.097656 70.832031 42.570312 C 70.832031 48.125 63.101562 53.390625 63.101562 53.390625 C 63.101562 53.390625 75.082031 51.96875 75.082031 42.832031 C 75.082031 39.058594 72.671875 37.152344 69.816406 37.027344 Z M 36.679688 53.230469 C 33.324219 53.230469 31.152344 55.550781 31.152344 57.253906 C 31.152344 62.523438 51.171875 62.707031 59.109375 57.347656 L 54.0625 54.105469 C 48.136719 56.910156 33.253906 57.292969 36.679688 53.230469 Z M 22.207031 62.007812 C 17.382812 61.855469 15.171875 64.375 15.171875 66.433594 C 15.171875 77.378906 67.59375 76.851562 67.59375 65.667969 C 67.59375 63.808594 65.5625 62.925781 64.828125 62.503906 C 69.109375 73.195312 21.433594 72.460938 21.433594 66.148438 C 21.433594 64.710938 23.953125 63.25 27.167969 63.917969 C 27.167969 63.917969 25.992188 62.527344 24.4375 62.25 C 23.640625 62.109375 22.898438 62.03125 22.207031 62.007812 Z M 75.082031 69.527344 C 66.839844 77.847656 44.15625 82.898438 23.160156 77.765625 C 44.253906 86.578125 74.980469 79.734375 75.082031 69.527344 Z M 75.082031 69.527344 " fill-opacity="1" fill-rule="nonzero"/></g></svg>