<svg xmlns="http://www.w3.org/2000/svg" xmlns:xlink="http://www.w3.org/1999/xlink" width="120" zoomAndPan="magnify" viewBox="0 0 90 89.999999" height="120" preserveAspectRatio="xMidYMid meet" version="1.0"><defs><clipPath id="417c474e3a"><path d="M 43 3.347656 L 47 3.347656 L 47 7 L 43 7 Z M 43 3.347656 " clip-rule="nonzero"/></clipPath><clipPath id="8abafd1f45"><path d="M 3 3.347656 L 86.980469 3.347656 L 86.980469 86.597656 L 3 86.597656 Z M 3 3.347656 " clip-rule="nonzero"/></clipPath></defs><g clip-path="url(#417c474e3a)"><path fill="#5fa2ad" d="M 46.359375 4.730469 C 46.359375 4.910156 46.324219 5.089844 46.257812 5.257812 C 46.1875 5.425781 46.085938 5.574219 45.957031 5.707031 C 45.828125 5.835938 45.675781 5.933594 45.507812 6.003906 C 45.339844 6.074219 45.164062 6.109375 44.980469 6.109375 C 44.796875 6.109375 44.621094 6.074219 44.449219 6.003906 C 44.28125 5.933594 44.132812 5.835938 44.003906 5.707031 C 43.871094 5.574219 43.773438 5.425781 43.703125 5.257812 C 43.632812 5.089844 43.597656 4.910156 43.597656 4.730469 C 43.597656 4.546875 43.632812 4.371094 43.703125 4.199219 C 43.773438 4.03125 43.871094 3.882812 44.003906 3.75 C 44.132812 3.621094 44.28125 3.523438 44.449219 3.453125 C 44.621094 3.382812 44.796875 3.347656 44.980469 3.347656 C 45.164062 3.347656 45.339844 3.382812 45.507812 3.453125 C 45.675781 3.523438 45.828125 3.621094 45.957031 3.75 C 46.085938 3.882812 46.1875 4.03125 46.257812 4.199219 C 46.324219 4.371094 46.359375 4.546875 46.359375 4.730469 Z M 46.359375 4.730469 " fill-opacity="1" fill-rule="nonzero"/></g><g clip-path="url(#8abafd1f45)"><path fill="#5fa2ad" d="M 86.402344 76.09375 L 85.421875 48.574219 C 85.417969 47.546875 85.316406 46.53125 85.117188 45.519531 C 84.917969 44.511719 84.621094 43.53125 84.230469 42.582031 C 83.839844 41.628906 83.363281 40.726562 82.796875 39.867188 C 82.230469 39.007812 81.585938 38.214844 80.863281 37.480469 C 80.144531 36.746094 79.359375 36.089844 78.511719 35.507812 C 77.664062 34.925781 76.765625 34.433594 75.824219 34.027344 C 74.878906 33.617188 73.902344 33.304688 72.898438 33.089844 C 71.894531 32.871094 70.878906 32.75 69.847656 32.730469 L 69.847656 30.976562 C 69.847656 30.609375 69.777344 30.257812 69.640625 29.917969 C 69.5 29.582031 69.300781 29.28125 69.039062 29.023438 C 68.78125 28.761719 68.480469 28.5625 68.144531 28.421875 C 67.804688 28.285156 67.453125 28.214844 67.085938 28.214844 L 64.324219 28.214844 C 63.957031 28.214844 63.605469 28.285156 63.265625 28.421875 C 62.925781 28.5625 62.628906 28.761719 62.367188 29.023438 C 62.109375 29.28125 61.910156 29.582031 61.769531 29.917969 C 61.628906 30.257812 61.558594 30.609375 61.558594 30.976562 L 61.558594 32.730469 L 46.359375 32.730469 L 46.359375 26.832031 C 46.359375 26.378906 46.316406 25.929688 46.226562 25.484375 C 46.136719 25.039062 46.007812 24.609375 45.832031 24.191406 C 45.660156 23.769531 45.445312 23.375 45.195312 22.996094 C 44.941406 22.621094 44.65625 22.269531 44.335938 21.949219 C 44.015625 21.628906 43.664062 21.34375 43.289062 21.089844 C 42.910156 20.839844 42.515625 20.625 42.09375 20.453125 C 41.675781 20.277344 41.246094 20.148438 40.800781 20.058594 C 40.355469 19.96875 39.90625 19.925781 39.453125 19.925781 L 9.089844 19.925781 C 7.058594 19.875 6.339844 18.40625 6.339844 17.160156 C 6.339844 15.917969 7.058594 14.449219 9.054688 14.398438 L 80.9375 14.398438 C 84.515625 14.308594 86.382812 11.550781 86.382812 8.871094 C 86.386719 6.195312 84.515625 3.4375 80.902344 3.347656 L 50.507812 3.347656 C 50.324219 3.347656 50.148438 3.382812 49.976562 3.453125 C 49.808594 3.523438 49.660156 3.621094 49.527344 3.75 C 49.398438 3.882812 49.300781 4.03125 49.230469 4.199219 C 49.160156 4.371094 49.125 4.546875 49.125 4.730469 C 49.125 4.910156 49.160156 5.089844 49.230469 5.257812 C 49.300781 5.425781 49.398438 5.574219 49.527344 5.707031 C 49.660156 5.835938 49.808594 5.933594 49.976562 6.003906 C 50.148438 6.074219 50.324219 6.109375 50.507812 6.109375 L 80.867188 6.109375 C 82.898438 6.160156 83.621094 7.628906 83.621094 8.871094 C 83.621094 10.117188 82.898438 11.585938 80.902344 11.636719 L 9.023438 11.636719 C 5.445312 11.726562 3.574219 14.484375 3.574219 17.160156 C 3.574219 19.839844 5.445312 22.597656 9.054688 22.6875 L 39.453125 22.6875 C 39.726562 22.6875 39.996094 22.714844 40.261719 22.765625 C 40.527344 22.820312 40.789062 22.898438 41.039062 23.003906 C 41.289062 23.105469 41.53125 23.234375 41.753906 23.386719 C 41.980469 23.539062 42.191406 23.710938 42.382812 23.902344 C 42.578125 24.09375 42.75 24.304688 42.898438 24.53125 C 43.050781 24.753906 43.179688 24.996094 43.28125 25.246094 C 43.386719 25.496094 43.464844 25.757812 43.519531 26.023438 C 43.570312 26.289062 43.597656 26.558594 43.597656 26.832031 L 43.597656 32.730469 L 28.398438 32.730469 L 28.398438 30.976562 C 28.398438 30.609375 28.328125 30.257812 28.1875 29.917969 C 28.050781 29.582031 27.847656 29.28125 27.589844 29.023438 C 27.332031 28.761719 27.03125 28.5625 26.695312 28.421875 C 26.355469 28.285156 26.003906 28.214844 25.636719 28.214844 L 22.871094 28.214844 C 22.507812 28.214844 22.152344 28.285156 21.816406 28.421875 C 21.476562 28.5625 21.179688 28.761719 20.917969 29.023438 C 20.660156 29.28125 20.460938 29.582031 20.320312 29.917969 C 20.179688 30.257812 20.109375 30.609375 20.109375 30.976562 L 20.109375 32.730469 C 11.503906 32.882812 4.539062 39.941406 4.539062 48.535156 L 3.558594 76.011719 C 3.011719 81.03125 7.050781 85.816406 12.070312 86.152344 C 12.679688 86.203125 13.292969 86.195312 13.902344 86.128906 C 14.511719 86.0625 15.109375 85.9375 15.695312 85.75 C 16.28125 85.566406 16.84375 85.328125 17.378906 85.03125 C 17.917969 84.738281 18.421875 84.390625 18.894531 83.996094 C 19.363281 83.601562 19.792969 83.167969 20.175781 82.6875 C 20.5625 82.210938 20.898438 81.699219 21.179688 81.15625 C 21.464844 80.613281 21.695312 80.046875 21.867188 79.457031 C 22.039062 78.867188 22.15625 78.265625 22.210938 77.65625 L 22.984375 68.757812 L 28.746094 68.757812 C 28.933594 69.292969 29.203125 69.789062 29.542969 70.242188 C 29.886719 70.695312 30.289062 71.082031 30.753906 71.410156 C 31.21875 71.738281 31.722656 71.988281 32.261719 72.160156 C 32.804688 72.332031 33.359375 72.417969 33.925781 72.417969 C 34.496094 72.417969 35.050781 72.332031 35.589844 72.160156 C 36.132812 71.988281 36.632812 71.738281 37.097656 71.410156 C 37.5625 71.082031 37.964844 70.695312 38.308594 70.242188 C 38.652344 69.789062 38.917969 69.292969 39.109375 68.757812 L 50.851562 68.757812 C 51.042969 69.292969 51.308594 69.789062 51.652344 70.242188 C 51.992188 70.695312 52.398438 71.082031 52.859375 71.410156 C 53.324219 71.738281 53.828125 71.988281 54.367188 72.160156 C 54.910156 72.332031 55.464844 72.417969 56.03125 72.417969 C 56.601562 72.417969 57.15625 72.332031 57.695312 72.160156 C 58.238281 71.988281 58.742188 71.738281 59.203125 71.410156 C 59.667969 71.082031 60.070312 70.695312 60.414062 70.242188 C 60.757812 69.789062 61.023438 69.292969 61.214844 68.757812 L 66.976562 68.757812 L 67.75 77.65625 C 68.183594 82.808594 72.820312 86.59375 77.890625 86.152344 C 82.859375 85.839844 86.949219 81.023438 86.402344 76.09375 Z M 27.414062 52.683594 L 23.859375 52.683594 L 23.859375 56.238281 C 23.859375 56.550781 23.800781 56.855469 23.679688 57.144531 C 23.558594 57.433594 23.386719 57.691406 23.164062 57.910156 C 22.945312 58.132812 22.6875 58.304688 22.398438 58.425781 C 22.105469 58.546875 21.804688 58.605469 21.492188 58.605469 C 21.175781 58.605469 20.875 58.546875 20.585938 58.425781 C 20.296875 58.304688 20.039062 58.132812 19.816406 57.910156 C 19.59375 57.691406 19.425781 57.433594 19.304688 57.144531 C 19.183594 56.855469 19.125 56.550781 19.125 56.238281 L 19.125 52.683594 L 15.570312 52.683594 C 15.253906 52.683594 14.953125 52.625 14.664062 52.503906 C 14.371094 52.382812 14.117188 52.210938 13.894531 51.992188 C 13.671875 51.769531 13.5 51.511719 13.382812 51.222656 C 13.261719 50.933594 13.203125 50.628906 13.203125 50.316406 C 13.203125 50.003906 13.261719 49.699219 13.382812 49.410156 C 13.5 49.121094 13.671875 48.863281 13.894531 48.644531 C 14.117188 48.421875 14.371094 48.25 14.664062 48.128906 C 14.953125 48.007812 15.253906 47.949219 15.570312 47.949219 L 19.125 47.949219 L 19.125 44.394531 C 19.125 44.082031 19.183594 43.78125 19.304688 43.488281 C 19.425781 43.199219 19.59375 42.945312 19.816406 42.722656 C 20.039062 42.5 20.296875 42.328125 20.585938 42.207031 C 20.875 42.089844 21.175781 42.027344 21.492188 42.027344 C 21.804688 42.027344 22.105469 42.089844 22.398438 42.207031 C 22.6875 42.328125 22.945312 42.5 23.164062 42.722656 C 23.386719 42.945312 23.558594 43.199219 23.679688 43.488281 C 23.800781 43.78125 23.859375 44.082031 23.859375 44.394531 L 23.859375 47.949219 L 27.414062 47.949219 C 27.726562 47.949219 28.03125 48.007812 28.320312 48.128906 C 28.609375 48.25 28.867188 48.421875 29.085938 48.644531 C 29.308594 48.863281 29.480469 49.121094 29.601562 49.410156 C 29.722656 49.699219 29.78125 50.003906 29.78125 50.316406 C 29.78125 50.628906 29.722656 50.933594 29.601562 51.222656 C 29.480469 51.511719 29.308594 51.769531 29.085938 51.992188 C 28.867188 52.210938 28.609375 52.382812 28.320312 52.503906 C 28.03125 52.625 27.726562 52.683594 27.414062 52.683594 Z M 36.691406 35.121094 L 53.269531 35.121094 L 53.269531 40.535156 C 53.269531 41.363281 52.648438 42.027344 51.886719 42.027344 L 38.070312 42.027344 C 37.3125 42.027344 36.691406 41.363281 36.691406 40.535156 Z M 33.925781 69.65625 C 33.558594 69.65625 33.207031 69.585938 32.867188 69.445312 C 32.53125 69.304688 32.230469 69.105469 31.972656 68.847656 C 31.714844 68.589844 31.511719 68.289062 31.375 67.953125 C 31.234375 67.613281 31.164062 67.261719 31.164062 66.894531 C 31.164062 66.527344 31.234375 66.175781 31.375 65.835938 C 31.511719 65.5 31.714844 65.199219 31.972656 64.941406 C 32.230469 64.679688 32.53125 64.480469 32.867188 64.339844 C 33.207031 64.203125 33.558594 64.132812 33.925781 64.132812 C 34.292969 64.132812 34.644531 64.203125 34.984375 64.339844 C 35.324219 64.480469 35.621094 64.679688 35.878906 64.941406 C 36.140625 65.199219 36.339844 65.5 36.480469 65.835938 C 36.621094 66.175781 36.691406 66.527344 36.691406 66.894531 C 36.691406 67.261719 36.621094 67.613281 36.480469 67.953125 C 36.339844 68.289062 36.140625 68.589844 35.878906 68.847656 C 35.621094 69.105469 35.324219 69.304688 34.984375 69.445312 C 34.644531 69.585938 34.292969 69.65625 33.925781 69.65625 Z M 47.742188 59.988281 L 42.214844 59.988281 C 42.03125 59.988281 41.855469 59.953125 41.6875 59.882812 C 41.519531 59.8125 41.367188 59.710938 41.238281 59.582031 C 41.109375 59.453125 41.011719 59.304688 40.941406 59.132812 C 40.871094 58.964844 40.835938 58.789062 40.835938 58.605469 C 40.835938 58.421875 40.871094 58.246094 40.941406 58.078125 C 41.011719 57.90625 41.109375 57.757812 41.238281 57.628906 C 41.367188 57.5 41.519531 57.398438 41.6875 57.328125 C 41.855469 57.257812 42.03125 57.222656 42.214844 57.222656 L 47.742188 57.222656 C 47.925781 57.222656 48.101562 57.257812 48.273438 57.328125 C 48.441406 57.398438 48.589844 57.5 48.71875 57.628906 C 48.847656 57.757812 48.949219 57.90625 49.019531 58.078125 C 49.089844 58.246094 49.125 58.421875 49.125 58.605469 C 49.125 58.789062 49.089844 58.964844 49.019531 59.132812 C 48.949219 59.304688 48.847656 59.453125 48.71875 59.582031 C 48.589844 59.710938 48.441406 59.8125 48.273438 59.882812 C 48.101562 59.953125 47.925781 59.988281 47.742188 59.988281 Z M 51.886719 54.460938 L 38.070312 54.460938 C 37.886719 54.460938 37.710938 54.425781 37.542969 54.355469 C 37.375 54.285156 37.222656 54.1875 37.09375 54.054688 C 36.964844 53.925781 36.863281 53.777344 36.792969 53.609375 C 36.726562 53.4375 36.691406 53.261719 36.691406 53.078125 C 36.691406 52.894531 36.726562 52.71875 36.792969 52.550781 C 36.863281 52.382812 36.964844 52.230469 37.09375 52.101562 C 37.222656 51.972656 37.375 51.875 37.542969 51.804688 C 37.710938 51.734375 37.886719 51.699219 38.070312 51.699219 L 51.886719 51.699219 C 52.070312 51.699219 52.246094 51.734375 52.417969 51.804688 C 52.585938 51.875 52.734375 51.972656 52.863281 52.101562 C 52.996094 52.230469 53.09375 52.382812 53.164062 52.550781 C 53.234375 52.71875 53.269531 52.894531 53.269531 53.078125 C 53.269531 53.261719 53.234375 53.4375 53.164062 53.609375 C 53.09375 53.777344 52.996094 53.925781 52.863281 54.054688 C 52.734375 54.1875 52.585938 54.285156 52.417969 54.355469 C 52.246094 54.425781 52.070312 54.460938 51.886719 54.460938 Z M 56.03125 69.65625 C 55.667969 69.65625 55.3125 69.585938 54.976562 69.445312 C 54.636719 69.304688 54.339844 69.105469 54.078125 68.847656 C 53.820312 68.589844 53.621094 68.289062 53.480469 67.953125 C 53.339844 67.613281 53.269531 67.261719 53.269531 66.894531 C 53.269531 66.527344 53.339844 66.175781 53.480469 65.835938 C 53.621094 65.5 53.820312 65.199219 54.078125 64.941406 C 54.339844 64.679688 54.636719 64.480469 54.976562 64.339844 C 55.3125 64.203125 55.667969 64.132812 56.03125 64.132812 C 56.398438 64.132812 56.75 64.203125 57.089844 64.339844 C 57.429688 64.480469 57.726562 64.679688 57.988281 64.941406 C 58.246094 65.199219 58.445312 65.5 58.585938 65.835938 C 58.726562 66.175781 58.796875 66.527344 58.796875 66.894531 C 58.796875 67.261719 58.726562 67.613281 58.585938 67.953125 C 58.445312 68.289062 58.246094 68.589844 57.988281 68.847656 C 57.726562 69.105469 57.429688 69.304688 57.089844 69.445312 C 56.75 69.585938 56.398438 69.65625 56.03125 69.65625 Z M 62.546875 52.683594 C 62.230469 52.683594 61.929688 52.625 61.640625 52.503906 C 61.351562 52.382812 61.09375 52.210938 60.871094 51.988281 C 60.648438 51.769531 60.480469 51.511719 60.359375 51.222656 C 60.238281 50.929688 60.179688 50.628906 60.179688 50.316406 C 60.179688 50 60.238281 49.699219 60.359375 49.410156 C 60.480469 49.121094 60.652344 48.863281 60.875 48.640625 C 61.09375 48.421875 61.351562 48.25 61.640625 48.128906 C 61.929688 48.007812 62.234375 47.949219 62.546875 47.949219 C 62.859375 47.949219 63.164062 48.007812 63.453125 48.128906 C 63.742188 48.25 64 48.421875 64.222656 48.644531 C 64.445312 48.863281 64.613281 49.121094 64.734375 49.410156 C 64.855469 49.699219 64.914062 50.003906 64.914062 50.316406 C 64.914062 50.628906 64.855469 50.933594 64.734375 51.222656 C 64.613281 51.511719 64.441406 51.769531 64.222656 51.992188 C 64 52.214844 63.742188 52.382812 63.453125 52.503906 C 63.160156 52.625 62.859375 52.683594 62.546875 52.683594 Z M 68.46875 58.605469 C 68.152344 58.605469 67.851562 58.546875 67.558594 58.425781 C 67.269531 58.304688 67.011719 58.132812 66.789062 57.910156 C 66.570312 57.691406 66.398438 57.433594 66.277344 57.144531 C 66.15625 56.851562 66.097656 56.550781 66.097656 56.234375 C 66.097656 55.921875 66.15625 55.621094 66.277344 55.328125 C 66.398438 55.039062 66.566406 54.785156 66.789062 54.5625 C 67.011719 54.339844 67.269531 54.167969 67.558594 54.046875 C 67.847656 53.925781 68.152344 53.867188 68.464844 53.867188 C 68.78125 53.867188 69.082031 53.925781 69.375 54.046875 C 69.664062 54.167969 69.917969 54.339844 70.140625 54.5625 C 70.363281 54.785156 70.535156 55.039062 70.65625 55.332031 C 70.777344 55.621094 70.835938 55.921875 70.835938 56.238281 C 70.835938 56.550781 70.777344 56.855469 70.65625 57.144531 C 70.535156 57.433594 70.363281 57.691406 70.140625 57.910156 C 69.921875 58.132812 69.664062 58.304688 69.375 58.425781 C 69.082031 58.546875 68.78125 58.605469 68.46875 58.605469 Z M 68.46875 46.765625 C 68.152344 46.765625 67.851562 46.703125 67.5625 46.585938 C 67.269531 46.464844 67.015625 46.292969 66.792969 46.070312 C 66.570312 45.851562 66.398438 45.59375 66.277344 45.304688 C 66.15625 45.011719 66.097656 44.710938 66.097656 44.398438 C 66.097656 44.082031 66.15625 43.78125 66.277344 43.488281 C 66.398438 43.199219 66.566406 42.941406 66.789062 42.71875 C 67.011719 42.5 67.269531 42.328125 67.558594 42.207031 C 67.847656 42.085938 68.152344 42.027344 68.464844 42.027344 C 68.78125 42.027344 69.082031 42.085938 69.371094 42.207031 C 69.664062 42.328125 69.917969 42.496094 70.140625 42.71875 C 70.363281 42.941406 70.535156 43.199219 70.65625 43.488281 C 70.773438 43.777344 70.835938 44.082031 70.835938 44.394531 C 70.835938 44.710938 70.777344 45.011719 70.65625 45.300781 C 70.535156 45.59375 70.363281 45.847656 70.140625 46.070312 C 69.921875 46.292969 69.664062 46.464844 69.375 46.585938 C 69.085938 46.703125 68.78125 46.765625 68.46875 46.765625 Z M 74.390625 52.683594 C 74.074219 52.683594 73.773438 52.625 73.484375 52.503906 C 73.195312 52.382812 72.9375 52.210938 72.714844 51.992188 C 72.492188 51.769531 72.324219 51.511719 72.203125 51.222656 C 72.082031 50.933594 72.023438 50.628906 72.023438 50.316406 C 72.023438 50.003906 72.082031 49.699219 72.203125 49.410156 C 72.324219 49.121094 72.492188 48.863281 72.714844 48.644531 C 72.9375 48.421875 73.195312 48.25 73.484375 48.128906 C 73.773438 48.007812 74.074219 47.949219 74.390625 47.949219 C 74.703125 47.949219 75.003906 48.007812 75.296875 48.128906 C 75.585938 48.25 75.84375 48.421875 76.0625 48.644531 C 76.285156 48.863281 76.457031 49.121094 76.578125 49.410156 C 76.699219 49.699219 76.757812 50.003906 76.757812 50.316406 C 76.757812 50.628906 76.699219 50.933594 76.578125 51.222656 C 76.457031 51.511719 76.285156 51.769531 76.0625 51.992188 C 75.84375 52.210938 75.585938 52.382812 75.296875 52.503906 C 75.003906 52.625 74.703125 52.683594 74.390625 52.683594 Z M 77.433594 64.535156 C 77.425781 64.351562 77.457031 64.175781 77.519531 64.003906 C 77.582031 63.832031 77.675781 63.679688 77.800781 63.542969 C 77.925781 63.410156 78.074219 63.304688 78.238281 63.230469 C 78.40625 63.152344 78.582031 63.113281 78.765625 63.105469 C 78.945312 63.101562 79.121094 63.132812 79.292969 63.199219 C 79.460938 63.265625 79.613281 63.359375 79.746094 63.484375 C 79.878906 63.609375 79.984375 63.753906 80.0625 63.917969 C 80.140625 64.082031 80.183594 64.253906 80.191406 64.4375 L 80.417969 70.8125 C 80.425781 70.992188 80.398438 71.171875 80.332031 71.34375 C 80.269531 71.515625 80.171875 71.667969 80.046875 71.800781 C 79.921875 71.9375 79.777344 72.039062 79.609375 72.117188 C 79.445312 72.191406 79.269531 72.234375 79.085938 72.242188 C 78.902344 72.246094 78.726562 72.21875 78.554688 72.152344 C 78.382812 72.089844 78.230469 71.996094 78.09375 71.871094 C 77.960938 71.746094 77.855469 71.597656 77.78125 71.433594 C 77.703125 71.265625 77.660156 71.089844 77.65625 70.90625 Z M 79.253906 78.089844 C 79.0625 78.089844 78.878906 78.054688 78.699219 77.980469 C 78.523438 77.90625 78.367188 77.804688 78.230469 77.667969 C 78.09375 77.53125 77.988281 77.375 77.917969 77.199219 C 77.84375 77.023438 77.804688 76.835938 77.804688 76.644531 C 77.804688 76.453125 77.84375 76.269531 77.914062 76.089844 C 77.988281 75.914062 78.09375 75.757812 78.230469 75.621094 C 78.363281 75.484375 78.519531 75.378906 78.699219 75.308594 C 78.875 75.234375 79.0625 75.195312 79.253906 75.195312 C 79.445312 75.195312 79.628906 75.234375 79.808594 75.308594 C 79.984375 75.378906 80.140625 75.484375 80.277344 75.621094 C 80.414062 75.757812 80.515625 75.914062 80.589844 76.089844 C 80.664062 76.265625 80.699219 76.453125 80.699219 76.644531 C 80.699219 76.835938 80.664062 77.019531 80.589844 77.195312 C 80.515625 77.375 80.414062 77.53125 80.277344 77.667969 C 80.140625 77.800781 79.984375 77.90625 79.808594 77.980469 C 79.632812 78.054688 79.445312 78.089844 79.253906 78.089844 Z M 79.253906 78.089844 " fill-opacity="1" fill-rule="nonzero"/></g></svg>