<svg xmlns="http://www.w3.org/2000/svg" xmlns:xlink="http://www.w3.org/1999/xlink" width="120" zoomAndPan="magnify" viewBox="0 0 90 89.999999" height="120" preserveAspectRatio="xMidYMid meet" version="1.0"><defs><clipPath id="fd53dc6c10"><path d="M 2.625 3 L 87.375 3 L 87.375 88.3125 L 2.625 88.3125 Z M 2.625 3 " clip-rule="nonzero"/></clipPath></defs><path fill="#5fa2ad" d="M 15.359375 19.78125 C 20.6875 19.359375 25.722656 16.539062 30.949219 16.632812 C 33.675781 16.613281 36.273438 17.179688 38.746094 18.328125 C 38.914062 18.410156 39.09375 18.453125 39.28125 18.464844 C 39.46875 18.472656 39.648438 18.449219 39.824219 18.386719 C 40.003906 18.324219 40.160156 18.230469 40.300781 18.105469 C 40.4375 17.980469 40.550781 17.835938 40.628906 17.667969 C 40.710938 17.5 40.757812 17.320312 40.765625 17.136719 C 40.777344 16.949219 40.75 16.765625 40.6875 16.589844 C 40.625 16.414062 40.53125 16.257812 40.40625 16.121094 C 40.28125 15.980469 40.132812 15.871094 39.964844 15.792969 C 37.117188 14.464844 34.125 13.808594 30.980469 13.820312 C 25.453125 13.6875 20.570312 16.421875 15.21875 16.984375 C 15.03125 16.992188 14.855469 17.039062 14.683594 17.117188 C 14.515625 17.199219 14.367188 17.308594 14.242188 17.445312 C 14.117188 17.582031 14.023438 17.742188 13.957031 17.917969 C 13.894531 18.09375 13.867188 18.273438 13.878906 18.460938 C 13.886719 18.644531 13.933594 18.824219 14.011719 18.992188 C 14.09375 19.160156 14.203125 19.308594 14.339844 19.433594 C 14.480469 19.558594 14.636719 19.652344 14.8125 19.714844 C 14.988281 19.777344 15.171875 19.804688 15.359375 19.796875 Z M 15.359375 19.78125 " fill-opacity="1" fill-rule="nonzero"/><path fill="#5fa2ad" d="M 51.253906 18.328125 C 53.734375 17.175781 56.34375 16.609375 59.085938 16.632812 C 64.222656 16.574219 69.246094 19.292969 74.496094 19.773438 C 74.671875 19.777344 74.847656 19.746094 75.011719 19.6875 C 75.179688 19.625 75.328125 19.539062 75.460938 19.421875 C 75.59375 19.304688 75.703125 19.164062 75.78125 19.007812 C 75.863281 18.851562 75.914062 18.683594 75.929688 18.507812 C 75.949219 18.332031 75.933594 18.160156 75.886719 17.988281 C 75.839844 17.820312 75.761719 17.664062 75.652344 17.523438 C 75.546875 17.378906 75.417969 17.261719 75.265625 17.171875 C 75.117188 17.078125 74.953125 17.015625 74.777344 16.984375 C 69.460938 16.429688 64.496094 13.714844 59.050781 13.820312 C 55.898438 13.804688 52.890625 14.460938 50.035156 15.792969 C 49.867188 15.871094 49.71875 15.980469 49.59375 16.121094 C 49.46875 16.257812 49.375 16.414062 49.3125 16.589844 C 49.25 16.765625 49.226562 16.949219 49.234375 17.132812 C 49.246094 17.320312 49.292969 17.496094 49.371094 17.664062 C 49.453125 17.832031 49.5625 17.980469 49.703125 18.105469 C 49.839844 18.230469 50 18.324219 50.175781 18.382812 C 50.351562 18.445312 50.53125 18.472656 50.71875 18.464844 C 50.90625 18.453125 51.085938 18.410156 51.253906 18.328125 Z M 51.253906 18.328125 " fill-opacity="1" fill-rule="nonzero"/><path fill="#5fa2ad" d="M 15.359375 28.210938 C 20.6875 27.789062 25.722656 24.980469 30.949219 25.066406 C 33.675781 25.046875 36.273438 25.613281 38.746094 26.761719 C 38.914062 26.84375 39.09375 26.886719 39.28125 26.898438 C 39.46875 26.90625 39.648438 26.882812 39.828125 26.820312 C 40.003906 26.757812 40.160156 26.664062 40.300781 26.539062 C 40.441406 26.414062 40.550781 26.269531 40.628906 26.101562 C 40.710938 25.929688 40.757812 25.753906 40.765625 25.566406 C 40.777344 25.382812 40.75 25.199219 40.6875 25.023438 C 40.625 24.847656 40.53125 24.691406 40.40625 24.550781 C 40.28125 24.414062 40.132812 24.304688 39.964844 24.222656 C 37.117188 22.898438 34.125 22.238281 30.980469 22.253906 C 25.453125 22.125 20.570312 24.855469 15.21875 25.410156 C 15.03125 25.417969 14.855469 25.460938 14.683594 25.542969 C 14.515625 25.621094 14.367188 25.730469 14.242188 25.871094 C 14.117188 26.007812 14.023438 26.164062 13.957031 26.339844 C 13.894531 26.515625 13.867188 26.695312 13.878906 26.882812 C 13.886719 27.070312 13.933594 27.246094 14.011719 27.414062 C 14.09375 27.585938 14.203125 27.730469 14.339844 27.855469 C 14.480469 27.980469 14.636719 28.074219 14.8125 28.140625 C 14.988281 28.203125 15.171875 28.230469 15.359375 28.21875 Z M 15.359375 28.210938 " fill-opacity="1" fill-rule="nonzero"/><path fill="#5fa2ad" d="M 51.253906 26.761719 C 53.734375 25.609375 56.34375 25.042969 59.085938 25.066406 C 64.222656 25 69.246094 27.730469 74.496094 28.207031 C 74.671875 28.210938 74.847656 28.179688 75.011719 28.121094 C 75.179688 28.058594 75.328125 27.96875 75.460938 27.851562 C 75.59375 27.734375 75.703125 27.597656 75.78125 27.441406 C 75.863281 27.285156 75.914062 27.117188 75.929688 26.941406 C 75.949219 26.765625 75.933594 26.59375 75.886719 26.421875 C 75.839844 26.25 75.761719 26.097656 75.652344 25.953125 C 75.546875 25.8125 75.417969 25.695312 75.265625 25.605469 C 75.117188 25.511719 74.953125 25.449219 74.777344 25.417969 C 69.460938 24.863281 64.496094 22.140625 59.050781 22.265625 C 55.898438 22.246094 52.890625 22.902344 50.035156 24.234375 C 49.867188 24.3125 49.71875 24.421875 49.59375 24.5625 C 49.46875 24.699219 49.375 24.859375 49.3125 25.035156 C 49.25 25.210938 49.226562 25.390625 49.234375 25.578125 C 49.246094 25.761719 49.289062 25.9375 49.371094 26.109375 C 49.453125 26.277344 49.5625 26.421875 49.699219 26.546875 C 49.839844 26.671875 49.996094 26.765625 50.175781 26.828125 C 50.351562 26.890625 50.53125 26.914062 50.71875 26.90625 C 50.90625 26.894531 51.082031 26.851562 51.253906 26.769531 Z M 51.253906 26.761719 " fill-opacity="1" fill-rule="nonzero"/><path fill="#5fa2ad" d="M 15.359375 36.644531 C 20.6875 36.226562 25.722656 33.40625 30.949219 33.5 C 33.675781 33.480469 36.273438 34.042969 38.746094 35.195312 C 38.914062 35.273438 39.09375 35.320312 39.28125 35.332031 C 39.46875 35.339844 39.648438 35.316406 39.828125 35.253906 C 40.003906 35.191406 40.160156 35.097656 40.300781 34.972656 C 40.441406 34.847656 40.550781 34.703125 40.628906 34.53125 C 40.710938 34.363281 40.757812 34.1875 40.765625 34 C 40.777344 33.816406 40.75 33.632812 40.6875 33.457031 C 40.625 33.28125 40.53125 33.125 40.40625 32.984375 C 40.28125 32.847656 40.132812 32.738281 39.964844 32.65625 C 37.117188 31.328125 34.125 30.671875 30.980469 30.6875 C 25.453125 30.554688 20.570312 33.289062 15.21875 33.839844 C 15.03125 33.851562 14.855469 33.894531 14.683594 33.976562 C 14.515625 34.054688 14.367188 34.164062 14.242188 34.300781 C 14.117188 34.441406 14.023438 34.597656 13.957031 34.773438 C 13.894531 34.949219 13.867188 35.128906 13.878906 35.316406 C 13.886719 35.503906 13.933594 35.679688 14.011719 35.847656 C 14.09375 36.015625 14.203125 36.164062 14.339844 36.289062 C 14.480469 36.414062 14.636719 36.507812 14.8125 36.570312 C 14.988281 36.632812 15.171875 36.660156 15.359375 36.652344 Z M 15.359375 36.644531 " fill-opacity="1" fill-rule="nonzero"/><path fill="#5fa2ad" d="M 15.359375 45.078125 C 20.6875 44.65625 25.722656 41.847656 30.949219 41.933594 C 33.675781 41.914062 36.273438 42.476562 38.746094 43.628906 C 38.914062 43.707031 39.09375 43.753906 39.28125 43.761719 C 39.46875 43.773438 39.648438 43.746094 39.824219 43.683594 C 40.003906 43.621094 40.160156 43.527344 40.300781 43.40625 C 40.4375 43.28125 40.546875 43.132812 40.628906 42.964844 C 40.710938 42.796875 40.753906 42.621094 40.765625 42.433594 C 40.773438 42.246094 40.75 42.066406 40.6875 41.890625 C 40.625 41.714844 40.53125 41.558594 40.40625 41.417969 C 40.28125 41.28125 40.132812 41.171875 39.964844 41.089844 C 37.117188 39.761719 34.125 39.105469 30.980469 39.121094 C 25.453125 38.992188 20.570312 41.71875 15.21875 42.273438 C 15.03125 42.285156 14.855469 42.328125 14.683594 42.410156 C 14.515625 42.488281 14.367188 42.597656 14.242188 42.734375 C 14.117188 42.875 14.023438 43.03125 13.957031 43.207031 C 13.894531 43.382812 13.867188 43.5625 13.878906 43.75 C 13.886719 43.9375 13.933594 44.113281 14.011719 44.28125 C 14.09375 44.449219 14.203125 44.597656 14.339844 44.722656 C 14.480469 44.847656 14.636719 44.941406 14.8125 45.003906 C 14.988281 45.066406 15.171875 45.09375 15.359375 45.085938 Z M 15.359375 45.078125 " fill-opacity="1" fill-rule="nonzero"/><path fill="#5fa2ad" d="M 15.359375 53.511719 C 20.6875 53.089844 25.722656 50.273438 30.949219 50.363281 C 33.675781 50.34375 36.273438 50.910156 38.746094 52.058594 C 38.914062 52.140625 39.09375 52.183594 39.28125 52.195312 C 39.464844 52.203125 39.648438 52.179688 39.824219 52.117188 C 40 52.054688 40.15625 51.960938 40.296875 51.835938 C 40.4375 51.710938 40.546875 51.566406 40.625 51.398438 C 40.707031 51.230469 40.753906 51.050781 40.761719 50.867188 C 40.773438 50.679688 40.746094 50.5 40.683594 50.324219 C 40.621094 50.148438 40.527344 49.992188 40.402344 49.851562 C 40.277344 49.714844 40.132812 49.605469 39.964844 49.523438 C 37.117188 48.195312 34.125 47.539062 30.980469 47.554688 C 25.453125 47.425781 20.570312 50.152344 15.21875 50.707031 C 15.03125 50.714844 14.855469 50.761719 14.683594 50.839844 C 14.515625 50.921875 14.367188 51.03125 14.242188 51.167969 C 14.117188 51.308594 14.023438 51.464844 13.957031 51.640625 C 13.894531 51.816406 13.867188 51.996094 13.878906 52.183594 C 13.886719 52.367188 13.933594 52.546875 14.011719 52.714844 C 14.09375 52.882812 14.203125 53.03125 14.339844 53.15625 C 14.480469 53.28125 14.636719 53.375 14.8125 53.4375 C 14.988281 53.5 15.171875 53.527344 15.359375 53.519531 Z M 15.359375 53.511719 " fill-opacity="1" fill-rule="nonzero"/><path fill="#5fa2ad" d="M 76.046875 35.238281 C 76.046875 35.425781 76.011719 35.605469 75.941406 35.777344 C 75.871094 35.949219 75.769531 36.101562 75.636719 36.234375 C 75.503906 36.367188 75.351562 36.46875 75.175781 36.539062 C 75.003906 36.609375 74.824219 36.644531 74.636719 36.644531 C 74.449219 36.644531 74.269531 36.609375 74.097656 36.539062 C 73.925781 36.46875 73.773438 36.367188 73.640625 36.234375 C 73.507812 36.101562 73.40625 35.949219 73.332031 35.777344 C 73.261719 35.605469 73.226562 35.425781 73.226562 35.238281 C 73.226562 35.054688 73.261719 34.875 73.332031 34.703125 C 73.40625 34.53125 73.507812 34.378906 73.640625 34.246094 C 73.773438 34.113281 73.925781 34.011719 74.097656 33.941406 C 74.269531 33.871094 74.449219 33.835938 74.636719 33.835938 C 74.824219 33.835938 75.003906 33.871094 75.175781 33.941406 C 75.351562 34.011719 75.503906 34.113281 75.636719 34.246094 C 75.769531 34.378906 75.871094 34.53125 75.941406 34.703125 C 76.011719 34.875 76.046875 35.054688 76.046875 35.238281 Z M 76.046875 35.238281 " fill-opacity="1" fill-rule="nonzero"/><path fill="#5fa2ad" d="M 51.253906 35.195312 C 53.734375 34.042969 56.34375 33.476562 59.085938 33.5 C 62.1875 33.417969 65.613281 34.554688 68.8125 35.464844 C 68.992188 35.507812 69.171875 35.519531 69.351562 35.492188 C 69.535156 35.46875 69.707031 35.410156 69.863281 35.316406 C 70.023438 35.226562 70.160156 35.105469 70.273438 34.960938 C 70.386719 34.816406 70.464844 34.65625 70.515625 34.480469 C 70.566406 34.304688 70.582031 34.125 70.558594 33.941406 C 70.539062 33.761719 70.484375 33.589844 70.398438 33.429688 C 70.308594 33.265625 70.195312 33.128906 70.050781 33.011719 C 69.910156 32.898438 69.75 32.8125 69.574219 32.757812 C 66.152344 31.800781 62.683594 30.597656 59.050781 30.6875 C 55.898438 30.667969 52.890625 31.328125 50.035156 32.65625 C 49.867188 32.738281 49.71875 32.847656 49.59375 32.984375 C 49.46875 33.125 49.375 33.28125 49.316406 33.457031 C 49.253906 33.632812 49.226562 33.8125 49.234375 34 C 49.246094 34.1875 49.292969 34.363281 49.371094 34.53125 C 49.453125 34.699219 49.5625 34.84375 49.703125 34.96875 C 49.839844 35.09375 50 35.1875 50.175781 35.25 C 50.351562 35.3125 50.53125 35.339844 50.71875 35.328125 C 50.90625 35.320312 51.085938 35.273438 51.253906 35.195312 Z M 51.253906 35.195312 " fill-opacity="1" fill-rule="nonzero"/><path fill="#5fa2ad" d="M 50.644531 43.765625 C 52.585938 43.222656 54.390625 42.132812 57.742188 41.976562 C 57.929688 41.964844 58.105469 41.917969 58.273438 41.832031 C 58.441406 41.75 58.589844 41.640625 58.710938 41.5 C 58.835938 41.359375 58.925781 41.199219 58.988281 41.023438 C 59.046875 40.847656 59.070312 40.664062 59.058594 40.480469 C 59.046875 40.292969 59 40.117188 58.917969 39.949219 C 58.835938 39.78125 58.722656 39.636719 58.582031 39.511719 C 58.441406 39.390625 58.28125 39.296875 58.101562 39.238281 C 57.925781 39.179688 57.742188 39.15625 57.554688 39.171875 C 54.925781 39.335938 52.417969 39.976562 50.035156 41.089844 C 49.734375 41.230469 49.515625 41.449219 49.371094 41.746094 C 49.226562 42.042969 49.191406 42.351562 49.265625 42.671875 C 49.339844 42.992188 49.503906 43.253906 49.761719 43.457031 C 50.019531 43.664062 50.3125 43.765625 50.644531 43.765625 Z M 50.644531 43.765625 " fill-opacity="1" fill-rule="nonzero"/><path fill="#5fa2ad" d="M 57.632812 47.554688 C 54.242188 47.71875 51.886719 48.640625 50.035156 49.523438 C 49.738281 49.664062 49.515625 49.882812 49.371094 50.175781 C 49.226562 50.472656 49.191406 50.78125 49.261719 51.101562 C 49.335938 51.421875 49.503906 51.6875 49.761719 51.890625 C 50.019531 52.097656 50.3125 52.199219 50.644531 52.199219 C 52.800781 51.558594 54.503906 50.441406 57.765625 50.363281 C 57.953125 50.355469 58.132812 50.308594 58.300781 50.230469 C 58.46875 50.152344 58.617188 50.042969 58.742188 49.902344 C 58.871094 49.765625 58.964844 49.609375 59.027344 49.433594 C 59.089844 49.257812 59.117188 49.078125 59.109375 48.890625 C 59.097656 48.707031 59.050781 48.53125 58.96875 48.363281 C 58.886719 48.199219 58.777344 48.050781 58.640625 47.929688 C 58.503906 47.804688 58.347656 47.707031 58.171875 47.644531 C 58 47.578125 57.820312 47.550781 57.632812 47.554688 Z M 57.632812 47.554688 " fill-opacity="1" fill-rule="nonzero"/><g clip-path="url(#fd53dc6c10)"><path fill="#5fa2ad" d="M 6.890625 70.042969 L 38.082031 70.042969 C 38.246094 70.835938 38.535156 71.582031 38.957031 72.273438 C 39.378906 72.96875 39.902344 73.570312 40.53125 74.085938 C 41.164062 74.597656 41.863281 74.988281 42.628906 75.261719 C 43.394531 75.535156 44.183594 75.671875 45 75.671875 C 45.8125 75.671875 46.601562 75.535156 47.371094 75.261719 C 48.136719 74.988281 48.835938 74.597656 49.464844 74.085938 C 50.09375 73.570312 50.621094 72.96875 51.039062 72.273438 C 51.460938 71.582031 51.753906 70.835938 51.914062 70.042969 L 61.777344 70.042969 L 64.757812 73.054688 L 64.757812 77.070312 C 64.382812 77.070312 64.023438 77.140625 63.675781 77.285156 C 63.332031 77.425781 63.027344 77.628906 62.761719 77.890625 C 62.496094 78.15625 62.292969 78.460938 62.148438 78.804688 C 62.007812 79.148438 61.933594 79.507812 61.933594 79.878906 L 61.933594 85.503906 C 61.933594 85.875 62.007812 86.234375 62.148438 86.578125 C 62.292969 86.921875 62.496094 87.226562 62.761719 87.488281 C 63.027344 87.753906 63.332031 87.957031 63.675781 88.097656 C 64.023438 88.242188 64.382812 88.3125 64.757812 88.3125 L 84.515625 88.3125 C 84.890625 88.3125 85.25 88.242188 85.597656 88.097656 C 85.941406 87.957031 86.25 87.753906 86.511719 87.488281 C 86.777344 87.226562 86.980469 86.921875 87.125 86.578125 C 87.269531 86.234375 87.339844 85.875 87.339844 85.503906 L 87.339844 79.878906 C 87.339844 79.507812 87.269531 79.148438 87.125 78.804688 C 86.980469 78.460938 86.777344 78.15625 86.511719 77.890625 C 86.25 77.628906 85.941406 77.425781 85.597656 77.28125 C 85.25 77.140625 84.890625 77.070312 84.515625 77.070312 L 84.515625 73.144531 L 87.109375 69.214844 C 87.261719 68.980469 87.339844 68.726562 87.339844 68.445312 L 87.339844 16.632812 C 87.339844 16.355469 87.3125 16.082031 87.257812 15.808594 C 87.203125 15.539062 87.125 15.273438 87.015625 15.019531 C 86.910156 14.765625 86.78125 14.519531 86.625 14.289062 C 86.472656 14.058594 86.296875 13.847656 86.097656 13.652344 C 85.902344 13.457031 85.6875 13.28125 85.457031 13.128906 C 85.226562 12.972656 84.984375 12.84375 84.726562 12.738281 C 84.46875 12.632812 84.203125 12.550781 83.929688 12.496094 C 83.660156 12.445312 83.382812 12.417969 83.105469 12.417969 L 81.695312 12.417969 L 81.695312 9.121094 C 81.695312 8.9375 81.660156 8.757812 81.585938 8.585938 C 81.515625 8.414062 81.414062 8.261719 81.28125 8.128906 C 81.148438 7.996094 80.996094 7.894531 80.824219 7.824219 C 80.648438 7.753906 80.46875 7.71875 80.28125 7.71875 C 76.433594 7.671875 72.691406 7.027344 69.050781 5.785156 C 56.5 1.324219 47.742188 6.246094 45 8.15625 C 42.257812 6.242188 33.507812 1.320312 20.945312 5.777344 C 17.304688 7.023438 13.5625 7.671875 9.714844 7.71875 C 9.527344 7.71875 9.347656 7.753906 9.175781 7.824219 C 9 7.894531 8.847656 7.996094 8.714844 8.128906 C 8.585938 8.261719 8.484375 8.414062 8.410156 8.585938 C 8.339844 8.757812 8.304688 8.9375 8.304688 9.121094 L 8.304688 12.417969 L 6.890625 12.417969 C 6.613281 12.417969 6.339844 12.445312 6.066406 12.496094 C 5.792969 12.550781 5.527344 12.632812 5.273438 12.738281 C 5.015625 12.84375 4.769531 12.972656 4.539062 13.128906 C 4.308594 13.28125 4.09375 13.457031 3.898438 13.652344 C 3.703125 13.847656 3.527344 14.058594 3.371094 14.289062 C 3.21875 14.519531 3.085938 14.765625 2.980469 15.019531 C 2.875 15.273438 2.792969 15.539062 2.738281 15.808594 C 2.683594 16.082031 2.65625 16.355469 2.65625 16.632812 L 2.65625 65.824219 C 2.65625 66.101562 2.683594 66.375 2.738281 66.648438 C 2.792969 66.917969 2.875 67.183594 2.980469 67.4375 C 3.085938 67.695312 3.21875 67.9375 3.371094 68.167969 C 3.527344 68.398438 3.703125 68.609375 3.898438 68.808594 C 4.09375 69.003906 4.308594 69.175781 4.539062 69.332031 C 4.769531 69.484375 5.015625 69.613281 5.273438 69.722656 C 5.527344 69.828125 5.792969 69.90625 6.066406 69.960938 C 6.339844 70.015625 6.613281 70.042969 6.890625 70.042969 Z M 84.515625 85.503906 L 64.757812 85.503906 L 64.757812 79.878906 L 84.515625 79.878906 Z M 84.515625 68.023438 L 81.925781 71.953125 C 81.769531 72.1875 81.695312 72.445312 81.695312 72.722656 L 81.695312 77.070312 L 67.582031 77.070312 L 67.582031 72.480469 C 67.582031 72.097656 67.445312 71.769531 67.175781 71.496094 C 67.175781 71.496094 57.949219 62.550781 55.140625 59.328125 C 53.757812 57.746094 55.769531 55.953125 57.1875 57.328125 C 58.5 58.609375 62.339844 62.542969 62.339844 62.542969 C 63.175781 63.4375 64.796875 62.773438 64.757812 61.554688 L 64.757812 41.269531 C 64.757812 41.085938 64.792969 40.90625 64.867188 40.734375 C 64.9375 40.5625 65.039062 40.410156 65.171875 40.277344 C 65.304688 40.144531 65.457031 40.042969 65.628906 39.972656 C 65.800781 39.902344 65.980469 39.867188 66.167969 39.867188 C 66.355469 39.867188 66.535156 39.902344 66.710938 39.972656 C 66.882812 40.042969 67.035156 40.144531 67.167969 40.277344 C 67.300781 40.410156 67.402344 40.5625 67.472656 40.734375 C 67.542969 40.90625 67.582031 41.085938 67.582031 41.269531 L 67.582031 57.390625 C 67.582031 57.578125 67.617188 57.757812 67.6875 57.929688 C 67.757812 58.101562 67.863281 58.253906 67.992188 58.386719 C 68.125 58.519531 68.277344 58.621094 68.453125 58.691406 C 68.625 58.761719 68.804688 58.796875 68.992188 58.796875 C 69.179688 58.796875 69.359375 58.761719 69.53125 58.691406 C 69.703125 58.621094 69.859375 58.519531 69.988281 58.386719 C 70.121094 58.253906 70.222656 58.101562 70.296875 57.929688 C 70.367188 57.757812 70.402344 57.578125 70.402344 57.390625 L 70.402344 48.40625 C 70.402344 48.21875 70.4375 48.039062 70.511719 47.867188 C 70.582031 47.695312 70.683594 47.542969 70.816406 47.414062 C 70.949219 47.28125 71.101562 47.179688 71.273438 47.109375 C 71.449219 47.035156 71.628906 47 71.816406 47 C 72 47 72.183594 47.035156 72.355469 47.109375 C 72.527344 47.179688 72.679688 47.28125 72.8125 47.414062 C 72.945312 47.542969 73.046875 47.695312 73.117188 47.867188 C 73.191406 48.039062 73.226562 48.21875 73.226562 48.40625 L 73.226562 57.390625 C 73.226562 57.578125 73.261719 57.757812 73.332031 57.929688 C 73.40625 58.101562 73.507812 58.253906 73.640625 58.386719 C 73.773438 58.519531 73.925781 58.621094 74.097656 58.691406 C 74.269531 58.761719 74.449219 58.796875 74.636719 58.796875 C 74.824219 58.796875 75.003906 58.761719 75.175781 58.691406 C 75.351562 58.621094 75.503906 58.519531 75.636719 58.386719 C 75.769531 58.253906 75.871094 58.101562 75.941406 57.929688 C 76.011719 57.757812 76.046875 57.578125 76.046875 57.390625 L 76.046875 49.835938 C 76.046875 49.652344 76.085938 49.472656 76.15625 49.300781 C 76.226562 49.128906 76.328125 48.976562 76.460938 48.84375 C 76.59375 48.710938 76.746094 48.609375 76.921875 48.539062 C 77.09375 48.46875 77.273438 48.433594 77.460938 48.433594 C 77.648438 48.433594 77.828125 48.46875 78 48.539062 C 78.171875 48.609375 78.324219 48.710938 78.457031 48.84375 C 78.589844 48.976562 78.691406 49.128906 78.765625 49.300781 C 78.835938 49.472656 78.871094 49.652344 78.871094 49.835938 L 78.871094 57.390625 C 78.871094 57.578125 78.90625 57.757812 78.980469 57.929688 C 79.050781 58.101562 79.152344 58.253906 79.285156 58.386719 C 79.417969 58.519531 79.570312 58.621094 79.742188 58.691406 C 79.914062 58.761719 80.09375 58.796875 80.28125 58.796875 C 80.46875 58.796875 80.648438 58.761719 80.824219 58.691406 C 80.996094 58.621094 81.148438 58.519531 81.28125 58.386719 C 81.414062 58.253906 81.515625 58.101562 81.585938 57.929688 C 81.660156 57.757812 81.695312 57.578125 81.695312 57.390625 L 81.695312 52.6875 C 81.695312 52.5 81.730469 52.320312 81.800781 52.148438 C 81.875 51.976562 81.976562 51.824219 82.109375 51.691406 C 82.238281 51.558594 82.390625 51.457031 82.566406 51.386719 C 82.738281 51.316406 82.917969 51.28125 83.105469 51.28125 C 83.292969 51.28125 83.472656 51.316406 83.644531 51.386719 C 83.820312 51.457031 83.972656 51.558594 84.105469 51.691406 C 84.234375 51.824219 84.335938 51.976562 84.410156 52.148438 C 84.480469 52.320312 84.515625 52.5 84.515625 52.6875 Z M 84.515625 16.632812 L 84.515625 48.6875 C 83.574219 48.339844 82.636719 48.339844 81.695312 48.6875 L 81.695312 15.226562 L 83.105469 15.226562 C 83.292969 15.226562 83.472656 15.261719 83.644531 15.335938 C 83.820312 15.40625 83.972656 15.507812 84.101562 15.640625 C 84.234375 15.769531 84.335938 15.921875 84.410156 16.09375 C 84.480469 16.265625 84.515625 16.445312 84.515625 16.632812 Z M 68.109375 8.425781 C 71.597656 9.625 75.183594 10.316406 78.871094 10.496094 L 78.871094 45.816406 C 78.296875 45.613281 77.703125 45.539062 77.09375 45.59375 C 76.488281 45.644531 75.917969 45.820312 75.386719 46.121094 C 74.425781 44.519531 72.210938 43.699219 70.402344 44.390625 L 70.402344 41.269531 C 70.402344 40.996094 70.375 40.71875 70.320312 40.449219 C 70.269531 40.175781 70.1875 39.914062 70.082031 39.65625 C 69.972656 39.402344 69.84375 39.160156 69.691406 38.929688 C 69.535156 38.699219 69.359375 38.484375 69.164062 38.289062 C 68.964844 38.09375 68.753906 37.917969 68.523438 37.765625 C 68.289062 37.613281 68.046875 37.480469 67.789062 37.375 C 67.53125 37.269531 67.269531 37.191406 66.996094 37.136719 C 66.722656 37.082031 66.445312 37.054688 66.167969 37.054688 C 65.890625 37.054688 65.617188 37.082031 65.34375 37.136719 C 65.070312 37.191406 64.804688 37.269531 64.550781 37.375 C 64.292969 37.480469 64.046875 37.613281 63.816406 37.765625 C 63.585938 37.917969 63.371094 38.09375 63.175781 38.289062 C 62.980469 38.484375 62.804688 38.699219 62.648438 38.929688 C 62.496094 39.160156 62.363281 39.402344 62.257812 39.65625 C 62.152344 39.914062 62.070312 40.175781 62.015625 40.449219 C 61.960938 40.71875 61.933594 40.996094 61.933594 41.269531 L 61.933594 58.125 L 59.191406 55.351562 C 57.21875 53.375 54.6875 53.800781 53.207031 55.242188 C 52.644531 55.789062 52.257812 56.4375 52.050781 57.195312 C 51.839844 57.949219 51.839844 58.703125 52.046875 59.460938 C 50.074219 60.003906 48.191406 60.777344 46.410156 61.785156 L 46.410156 10.601562 C 48.417969 9.140625 56.367188 4.265625 68.109375 8.425781 Z M 11.125 10.496094 C 14.8125 10.316406 18.398438 9.625 21.886719 8.421875 C 33.617188 4.265625 41.566406 9.136719 43.585938 10.601562 L 43.585938 61.765625 C 38.621094 58.457031 28.339844 57.234375 20.945312 60.285156 C 18.082031 61.296875 14.476562 61.5 11.125 61.535156 Z M 5.480469 16.632812 C 5.480469 16.445312 5.515625 16.265625 5.589844 16.09375 C 5.660156 15.921875 5.761719 15.769531 5.894531 15.640625 C 6.027344 15.507812 6.179688 15.40625 6.351562 15.335938 C 6.523438 15.261719 6.703125 15.226562 6.890625 15.226562 L 8.304688 15.226562 L 8.304688 62.945312 C 8.304688 63.128906 8.339844 63.308594 8.410156 63.480469 C 8.484375 63.652344 8.585938 63.804688 8.714844 63.9375 C 8.847656 64.070312 9 64.171875 9.175781 64.242188 C 9.347656 64.3125 9.527344 64.347656 9.714844 64.347656 C 13.671875 64.347656 18.199219 64.242188 21.886719 62.929688 C 35.265625 58.1875 43.722656 65.1875 44.074219 65.484375 C 44.339844 65.703125 44.644531 65.808594 44.992188 65.808594 C 45.335938 65.808594 45.640625 65.703125 45.910156 65.484375 C 45.9375 65.460938 48.851562 63.082031 53.757812 61.933594 L 58.996094 67.230469 L 50.644531 67.230469 C 50.457031 67.230469 50.277344 67.265625 50.105469 67.335938 C 49.929688 67.410156 49.777344 67.511719 49.644531 67.640625 C 49.515625 67.773438 49.410156 67.925781 49.339844 68.097656 C 49.269531 68.269531 49.234375 68.449219 49.234375 68.636719 C 49.234375 68.914062 49.207031 69.1875 49.152344 69.457031 C 49.097656 69.730469 49.015625 69.992188 48.910156 70.25 C 48.804688 70.503906 48.671875 70.75 48.519531 70.980469 C 48.363281 71.210938 48.1875 71.421875 47.992188 71.617188 C 47.796875 71.8125 47.582031 71.988281 47.351562 72.140625 C 47.121094 72.296875 46.875 72.425781 46.617188 72.53125 C 46.363281 72.636719 46.097656 72.71875 45.824219 72.773438 C 45.550781 72.824219 45.277344 72.851562 45 72.851562 C 44.722656 72.851562 44.445312 72.824219 44.171875 72.773438 C 43.898438 72.71875 43.636719 72.636719 43.378906 72.53125 C 43.121094 72.425781 42.878906 72.296875 42.644531 72.140625 C 42.414062 71.988281 42.203125 71.8125 42.003906 71.617188 C 41.808594 71.421875 41.632812 71.210938 41.476562 70.980469 C 41.324219 70.75 41.195312 70.503906 41.085938 70.25 C 40.980469 69.992188 40.898438 69.730469 40.847656 69.457031 C 40.792969 69.1875 40.765625 68.914062 40.765625 68.636719 C 40.765625 68.449219 40.730469 68.269531 40.65625 68.097656 C 40.585938 67.925781 40.484375 67.773438 40.351562 67.640625 C 40.21875 67.511719 40.066406 67.410156 39.894531 67.335938 C 39.71875 67.265625 39.539062 67.230469 39.351562 67.230469 L 6.890625 67.230469 C 6.703125 67.230469 6.523438 67.195312 6.351562 67.125 C 6.179688 67.050781 6.027344 66.949219 5.894531 66.820312 C 5.761719 66.6875 5.660156 66.535156 5.589844 66.363281 C 5.515625 66.191406 5.480469 66.011719 5.480469 65.824219 Z M 5.480469 16.632812 " fill-opacity="1" fill-rule="nonzero"/></g></svg>