<svg xmlns="http://www.w3.org/2000/svg" xmlns:xlink="http://www.w3.org/1999/xlink" width="75" zoomAndPan="magnify" viewBox="0 0 56.25 56.249997" height="75" preserveAspectRatio="xMidYMid meet" version="1.0"><defs><g/></defs><g fill="#ffffff" fill-opacity="1"><g transform="translate(7.311575, 45.258083)"><g><path d="M 3.433594 -0.15625 L 9.863281 -0.449219 C 14.980469 -0.683594 19.894531 -3.132812 19.679688 -7.847656 C 19.523438 -11.316406 14.789062 -14.507812 10.140625 -14.328125 C 14.660156 -15.109375 18.566406 -18.21875 18.429688 -21.183594 C 18.285156 -24.414062 14.871094 -27.464844 7.835938 -27.144531 L 2.214844 -26.886719 Z M 5.191406 -14.101562 L 4.609375 -26.859375 L 7.574219 -26.996094 C 13.160156 -27.25 15.9375 -24.105469 16.085938 -20.804688 C 16.230469 -17.675781 12.464844 -14.433594 8.492188 -14.253906 Z M 7.941406 -0.429688 C 6.863281 -0.378906 5.796875 -0.871094 5.773438 -1.410156 L 5.199219 -14 C 7.417969 -14.101562 9.605469 -14.203125 9.609375 -14.167969 C 13.246094 -14.335938 16.933594 -11.164062 17.089844 -7.730469 C 17.300781 -3.050781 13.5625 -0.6875 9.625 -0.507812 Z M 7.941406 -0.429688 "/></g></g></g><g fill="#ffffff" fill-opacity="1"><g transform="translate(37.938936, 21.428701)"><g><path d="M 0.722656 0.09375 L -3.648438 -0.480469 L -3.65625 -0.40625 L -3.332031 -0.363281 C -2.433594 -0.246094 -2.097656 1.070312 -2.664062 2.265625 L -4.949219 7.253906 L -11.769531 6.351562 L -12.703125 0.714844 C -12.796875 -0.496094 -12.15625 -1.503906 -11.304688 -1.390625 L -10.980469 -1.347656 L -10.992188 -1.449219 L -16.089844 -2.125 L -16.097656 -2.046875 L -15.925781 -2.027344 C -15.449219 -1.960938 -14.765625 -0.601562 -14.53125 0.699219 C -13.460938 6.867188 -12.394531 13.03125 -11.351562 19.191406 L -11.179688 19.214844 C -11.199219 18.78125 -10.503906 18.339844 -9.765625 18.335938 L -9.808594 18.074219 L -2.511719 2.285156 C -1.945312 1.066406 -0.507812 0.0078125 0.390625 0.128906 L 0.714844 0.171875 Z M -4.996094 7.421875 L -9.816406 17.945312 L -11.714844 6.535156 Z M -4.996094 7.421875 "/></g></g></g><g fill="#ffffff" fill-opacity="1"><g transform="translate(26.169021, 40.388518)"><g><path d="M 8.402344 3.5 C 11.410156 4.644531 15.410156 3 16.488281 0.15625 C 17.242188 -1.820312 16.019531 -5.785156 13.539062 -8.308594 C 10.953125 -10.964844 9.398438 -14.46875 9.925781 -15.847656 C 10.789062 -18.125 13.417969 -19.667969 15.261719 -18.964844 C 16.128906 -18.636719 17.015625 -17.957031 17.753906 -17.121094 C 18.621094 -16.140625 19.523438 -14.03125 19.539062 -12.847656 C 19.523438 -12.730469 19.570312 -12.527344 19.558594 -12.40625 L 19.910156 -12.273438 L 20.949219 -15.007812 L 20.8125 -15.058594 L 20.671875 -14.773438 C 20.523438 -14.457031 19.949219 -14.832031 19.546875 -15.480469 C 18.738281 -16.777344 17.136719 -18.441406 15.324219 -19.128906 C 12.722656 -20.117188 9.160156 -18.402344 8.128906 -15.695312 C 7.390625 -13.742188 8.878906 -9.582031 11.640625 -6.738281 C 13.90625 -4.386719 15.246094 -1.214844 14.730469 0.140625 C 13.804688 2.578125 10.695312 4.15625 8.472656 3.3125 C 7.28125 2.859375 6.039062 1.644531 5.109375 0.175781 C 4.433594 -0.980469 3.820312 -3.042969 3.796875 -4.199219 C 3.808594 -4.316406 3.761719 -4.519531 3.777344 -4.640625 L 3.425781 -4.773438 L 2.015625 -1.0625 L 2.152344 -1.011719 L 2.382812 -1.542969 C 2.636719 -2.128906 3.429688 -1.765625 3.941406 -0.828125 C 4.980469 1.085938 6.722656 2.863281 8.402344 3.5 Z M 8.402344 3.5 "/></g></g></g></svg>