<svg xmlns="http://www.w3.org/2000/svg" xmlns:xlink="http://www.w3.org/1999/xlink" width="120" zoomAndPan="magnify" viewBox="0 0 90 89.999999" height="120" preserveAspectRatio="xMidYMid meet" version="1.0"><defs><clipPath id="86ea1804a8"><path d="M 13 16 L 76 16 L 76 83.515625 L 13 83.515625 Z M 13 16 " clip-rule="nonzero"/></clipPath><clipPath id="5e039f7ca6"><path d="M 7 6.265625 L 21 6.265625 L 21 19 L 7 19 Z M 7 6.265625 " clip-rule="nonzero"/></clipPath><clipPath id="80a988b408"><path d="M 6.265625 29 L 9 29 L 9 33 L 6.265625 33 Z M 6.265625 29 " clip-rule="nonzero"/></clipPath><clipPath id="cb6d1d7f52"><path d="M 71 12 L 83.515625 12 L 83.515625 26 L 71 26 Z M 71 12 " clip-rule="nonzero"/></clipPath><clipPath id="99ced0e87a"><path d="M 80 39 L 83.515625 39 L 83.515625 43 L 80 43 Z M 80 39 " clip-rule="nonzero"/></clipPath></defs><path fill="#5fa2ad" d="M 45.113281 60.523438 L 44.667969 60.523438 C 42.695312 60.523438 40.757812 59.722656 39.363281 58.328125 L 37.542969 60.148438 C 39.417969 62.023438 42.015625 63.101562 44.667969 63.101562 L 45.113281 63.101562 C 47.765625 63.101562 50.363281 62.023438 52.238281 60.148438 L 50.417969 58.328125 C 49.019531 59.722656 47.085938 60.523438 45.113281 60.523438 Z M 45.113281 60.523438 " fill-opacity="1" fill-rule="nonzero"/><g clip-path="url(#86ea1804a8)"><path fill="#5fa2ad" d="M 70.640625 41.027344 L 70.574219 41.027344 C 69.898438 27.429688 58.65625 16.566406 44.890625 16.566406 C 31.125 16.566406 19.882812 27.429688 19.207031 41.027344 L 19.140625 41.027344 C 16.300781 41.027344 13.988281 43.335938 13.988281 46.175781 L 13.988281 53.902344 C 13.988281 56.742188 16.300781 59.050781 19.140625 59.050781 L 24.289062 59.050781 C 24.417969 59.050781 24.53125 59.015625 24.648438 58.980469 C 26.589844 62.230469 29.304688 64.867188 32.507812 66.691406 C 27.21875 70.578125 21.714844 75.925781 21.714844 83.515625 L 24.289062 83.515625 C 24.289062 76.925781 29.21875 72.246094 34.34375 68.53125 L 43.882812 80.457031 C 44.375 81.066406 45.40625 81.066406 45.898438 80.457031 L 55.433594 68.535156 C 62.105469 73.441406 65.488281 78.476562 65.488281 83.515625 L 68.066406 83.515625 C 68.0625 77.699219 64.433594 72.046875 57.269531 66.695312 C 60.472656 64.871094 63.191406 62.230469 65.132812 58.980469 C 65.246094 59.015625 65.363281 59.050781 65.488281 59.050781 L 70.640625 59.050781 C 73.480469 59.050781 75.789062 56.742188 75.789062 53.902344 L 75.789062 46.175781 C 75.789062 43.335938 73.480469 41.027344 70.640625 41.027344 Z M 44.890625 19.140625 C 57.234375 19.140625 67.324219 28.847656 68 41.027344 L 66.710938 41.027344 C 66.042969 30.980469 57.679688 23.003906 47.464844 23.003906 L 42.316406 23.003906 C 32.101562 23.003906 23.734375 30.980469 23.066406 41.027344 L 21.78125 41.027344 C 22.453125 28.847656 32.546875 19.140625 44.890625 19.140625 Z M 25.578125 42.316406 C 25.578125 33.085938 33.085938 25.578125 42.316406 25.578125 L 47.464844 25.578125 C 56.695312 25.578125 64.203125 33.085938 64.203125 42.316406 L 64.203125 42.5 L 51.328125 42.5 C 45.648438 42.5 41.027344 37.878906 41.027344 32.199219 C 41.027344 31.488281 40.453125 30.914062 39.738281 30.914062 C 39.027344 30.914062 38.453125 31.488281 38.453125 32.199219 C 38.453125 37.878906 33.832031 42.5 28.152344 42.5 L 25.578125 42.5 Z M 23.003906 56.476562 L 19.140625 56.476562 C 17.71875 56.476562 16.566406 55.324219 16.566406 53.902344 L 16.566406 46.175781 C 16.566406 44.757812 17.71875 43.601562 19.140625 43.601562 L 23.003906 43.601562 Z M 44.890625 77.589844 L 37.898438 68.851562 C 39.636719 69.292969 41.449219 69.535156 43.308594 69.535156 L 46.472656 69.535156 C 48.332031 69.535156 50.144531 69.292969 51.882812 68.851562 Z M 46.472656 66.960938 L 43.304688 66.960938 C 35.488281 66.960938 28.558594 62.3125 25.578125 55.105469 L 25.578125 45.074219 L 28.152344 45.074219 C 33.242188 45.074219 37.648438 42.105469 39.738281 37.808594 C 41.828125 42.105469 46.238281 45.074219 51.328125 45.074219 L 64.203125 45.074219 L 64.203125 55.101562 C 61.222656 62.3125 54.292969 66.960938 46.472656 66.960938 Z M 73.214844 53.902344 C 73.214844 55.324219 72.058594 56.476562 70.640625 56.476562 L 66.777344 56.476562 L 66.777344 43.601562 L 70.640625 43.601562 C 72.058594 43.601562 73.214844 44.757812 73.214844 46.175781 Z M 73.214844 53.902344 " fill-opacity="1" fill-rule="nonzero"/></g><path fill="#5fa2ad" d="M 41.738281 50.175781 C 38.796875 51.648438 35.355469 51.789062 32.296875 50.566406 L 31.207031 50.132812 L 30.25 52.523438 L 31.339844 52.957031 C 33.027344 53.632812 34.804688 53.96875 36.582031 53.96875 C 38.75 53.96875 40.910156 53.46875 42.890625 52.476562 Z M 41.738281 50.175781 " fill-opacity="1" fill-rule="nonzero"/><path fill="#5fa2ad" d="M 57.484375 50.566406 C 54.425781 51.789062 50.984375 51.648438 48.039062 50.175781 L 46.886719 52.476562 C 48.867188 53.46875 51.03125 53.96875 53.199219 53.96875 C 54.976562 53.96875 56.753906 53.632812 58.4375 52.957031 L 59.527344 52.523438 L 58.574219 50.132812 Z M 57.484375 50.566406 " fill-opacity="1" fill-rule="nonzero"/><g clip-path="url(#5e039f7ca6)"><path fill="#5fa2ad" d="M 15.65625 16.941406 L 17.476562 18.761719 L 20.050781 16.1875 C 20.292969 15.945312 20.425781 15.617188 20.425781 15.277344 L 20.425781 7.550781 C 20.425781 6.839844 19.851562 6.265625 19.140625 6.265625 L 11.414062 6.265625 C 10.703125 6.265625 10.128906 6.839844 10.128906 7.550781 L 10.128906 14.746094 L 7.929688 16.941406 L 9.75 18.761719 L 12.324219 16.1875 C 12.566406 15.945312 12.703125 15.617188 12.703125 15.277344 L 12.703125 12.703125 L 17.851562 12.703125 L 17.851562 14.746094 Z M 12.703125 10.128906 L 12.703125 8.839844 L 17.851562 8.839844 L 17.851562 10.128906 Z M 12.703125 10.128906 " fill-opacity="1" fill-rule="nonzero"/></g><path fill="#5fa2ad" d="M 8.839844 26.863281 L 11.414062 26.863281 L 11.414062 29.441406 L 8.839844 29.441406 Z M 8.839844 26.863281 " fill-opacity="1" fill-rule="nonzero"/><path fill="#5fa2ad" d="M 11.414062 29.441406 L 13.988281 29.441406 L 13.988281 32.015625 L 11.414062 32.015625 Z M 11.414062 29.441406 " fill-opacity="1" fill-rule="nonzero"/><g clip-path="url(#80a988b408)"><path fill="#5fa2ad" d="M 6.265625 29.441406 L 8.839844 29.441406 L 8.839844 32.015625 L 6.265625 32.015625 Z M 6.265625 29.441406 " fill-opacity="1" fill-rule="nonzero"/></g><path fill="#5fa2ad" d="M 8.839844 32.015625 L 11.414062 32.015625 L 11.414062 34.589844 L 8.839844 34.589844 Z M 8.839844 32.015625 " fill-opacity="1" fill-rule="nonzero"/><g clip-path="url(#cb6d1d7f52)"><path fill="#5fa2ad" d="M 82.226562 12.703125 L 74.503906 12.703125 C 73.789062 12.703125 73.214844 13.277344 73.214844 13.988281 L 73.214844 21.183594 L 71.015625 23.378906 L 72.835938 25.199219 L 75.414062 22.625 C 75.65625 22.382812 75.789062 22.054688 75.789062 21.714844 L 75.789062 19.140625 L 80.941406 19.140625 L 80.941406 21.183594 L 78.742188 23.378906 L 80.5625 25.199219 L 83.136719 22.625 C 83.378906 22.382812 83.515625 22.054688 83.515625 21.714844 L 83.515625 13.988281 C 83.515625 13.277344 82.941406 12.703125 82.226562 12.703125 Z M 75.789062 16.566406 L 75.789062 15.277344 L 80.941406 15.277344 L 80.941406 16.566406 Z M 75.789062 16.566406 " fill-opacity="1" fill-rule="nonzero"/></g><path fill="#5fa2ad" d="M 78.363281 37.164062 L 80.941406 37.164062 L 80.941406 39.738281 L 78.363281 39.738281 Z M 78.363281 37.164062 " fill-opacity="1" fill-rule="nonzero"/><g clip-path="url(#99ced0e87a)"><path fill="#5fa2ad" d="M 80.941406 39.738281 L 83.515625 39.738281 L 83.515625 42.316406 L 80.941406 42.316406 Z M 80.941406 39.738281 " fill-opacity="1" fill-rule="nonzero"/></g><path fill="#5fa2ad" d="M 75.789062 39.738281 L 78.363281 39.738281 L 78.363281 42.316406 L 75.789062 42.316406 Z M 75.789062 39.738281 " fill-opacity="1" fill-rule="nonzero"/><path fill="#5fa2ad" d="M 78.363281 42.316406 L 80.941406 42.316406 L 80.941406 44.890625 L 78.363281 44.890625 Z M 78.363281 42.316406 " fill-opacity="1" fill-rule="nonzero"/></svg>