<svg xmlns="http://www.w3.org/2000/svg" xmlns:xlink="http://www.w3.org/1999/xlink" width="120" zoomAndPan="magnify" viewBox="0 0 90 89.999999" height="120" preserveAspectRatio="xMidYMid meet" version="1.0"><defs><clipPath id="18078ba901"><path d="M 3 11 L 87 11 L 87 78.988281 L 3 78.988281 Z M 3 11 " clip-rule="nonzero"/></clipPath></defs><path fill="#5fa2ad" d="M 65.949219 44.171875 C 66.097656 44.171875 66.242188 44.148438 66.382812 44.101562 L 66.789062 43.960938 C 66.792969 44.003906 66.800781 44.046875 66.808594 44.089844 C 66.941406 44.492188 66.90625 44.878906 66.703125 45.253906 C 66.496094 45.652344 66.183594 45.921875 65.757812 46.070312 L 65.109375 46.292969 C 64.9375 46.351562 64.78125 46.4375 64.644531 46.554688 C 64.507812 46.671875 64.402344 46.8125 64.320312 46.972656 C 64.242188 47.132812 64.195312 47.304688 64.183594 47.484375 C 64.171875 47.664062 64.195312 47.839844 64.253906 48.007812 C 64.308594 48.179688 64.398438 48.332031 64.519531 48.46875 C 64.636719 48.601562 64.78125 48.707031 64.941406 48.785156 C 65.105469 48.863281 65.277344 48.910156 65.457031 48.917969 C 65.636719 48.929688 65.8125 48.902344 65.980469 48.84375 L 66.632812 48.625 C 67.726562 48.25 68.542969 47.554688 69.082031 46.535156 C 70.128906 47.011719 71.195312 47.066406 72.285156 46.699219 L 72.9375 46.476562 C 73.105469 46.417969 73.253906 46.332031 73.386719 46.210938 C 73.519531 46.09375 73.625 45.953125 73.703125 45.792969 C 73.78125 45.636719 73.824219 45.464844 73.835938 45.289062 C 73.847656 45.113281 73.824219 44.941406 73.765625 44.773438 C 73.707031 44.605469 73.621094 44.453125 73.503906 44.320312 C 73.386719 44.1875 73.246094 44.078125 73.089844 44 C 72.929688 43.921875 72.761719 43.875 72.582031 43.863281 C 72.40625 43.851562 72.234375 43.871094 72.0625 43.925781 L 71.414062 44.148438 C 70.582031 44.433594 69.628906 43.992188 69.367188 43.21875 C 69.351562 43.175781 69.320312 43.148438 69.300781 43.105469 L 69.710938 42.96875 C 69.886719 42.914062 70.039062 42.824219 70.179688 42.707031 C 70.316406 42.589844 70.425781 42.453125 70.507812 42.289062 C 70.589844 42.128906 70.636719 41.957031 70.648438 41.777344 C 70.660156 41.597656 70.640625 41.421875 70.582031 41.25 C 70.523438 41.078125 70.433594 40.925781 70.3125 40.789062 C 70.191406 40.652344 70.050781 40.546875 69.886719 40.46875 C 69.722656 40.390625 69.550781 40.347656 69.371094 40.335938 C 69.1875 40.328125 69.011719 40.355469 68.84375 40.417969 L 65.511719 41.546875 C 65.199219 41.65625 64.957031 41.847656 64.789062 42.132812 C 64.617188 42.414062 64.5625 42.71875 64.613281 43.042969 C 64.667969 43.371094 64.820312 43.640625 65.074219 43.851562 C 65.324219 44.066406 65.617188 44.171875 65.949219 44.171875 Z M 65.949219 44.171875 " fill-opacity="1" fill-rule="nonzero"/><path fill="#5fa2ad" d="M 19.761719 37.183594 L 18.980469 35.703125 C 18.898438 35.542969 18.789062 35.402344 18.652344 35.285156 C 18.511719 35.167969 18.359375 35.082031 18.1875 35.027344 C 18.011719 34.972656 17.835938 34.953125 17.65625 34.96875 C 17.476562 34.984375 17.304688 35.035156 17.144531 35.121094 C 16.984375 35.203125 16.847656 35.316406 16.734375 35.453125 C 16.617188 35.59375 16.535156 35.75 16.484375 35.921875 C 16.429688 36.09375 16.414062 36.269531 16.433594 36.449219 C 16.449219 36.628906 16.503906 36.800781 16.589844 36.957031 L 17.371094 38.4375 C 18.144531 39.910156 19.265625 41.042969 20.730469 41.832031 C 20.945312 41.949219 21.167969 42.054688 21.398438 42.148438 L 20.527344 43.746094 C 20.386719 44.003906 20.269531 44.273438 20.183594 44.554688 C 20.097656 44.835938 20.035156 45.121094 20.003906 45.414062 C 19.976562 45.707031 19.972656 46 20 46.289062 C 20.027344 46.582031 20.082031 46.871094 20.164062 47.152344 C 20.246094 47.433594 20.359375 47.703125 20.496094 47.964844 C 20.632812 48.226562 20.792969 48.46875 20.976562 48.699219 C 21.164062 48.925781 21.367188 49.132812 21.59375 49.320312 C 21.820312 49.511719 22.0625 49.675781 22.320312 49.8125 C 22.582031 49.953125 22.851562 50.070312 23.132812 50.15625 C 23.410156 50.242188 23.699219 50.300781 23.992188 50.332031 C 24.285156 50.363281 24.578125 50.367188 24.871094 50.339844 C 25.164062 50.3125 25.453125 50.257812 25.734375 50.175781 C 26.015625 50.089844 26.289062 49.980469 26.546875 49.84375 C 26.808594 49.707031 27.054688 49.546875 27.28125 49.363281 C 27.511719 49.179688 27.71875 48.972656 27.90625 48.746094 C 28.097656 48.523438 28.261719 48.28125 28.402344 48.023438 L 29.285156 46.398438 C 29.484375 46.546875 29.6875 46.6875 29.898438 46.8125 C 31.125 47.480469 32.4375 47.8125 33.835938 47.8125 C 34.082031 47.8125 34.332031 47.804688 34.582031 47.78125 L 36.25 47.628906 C 36.429688 47.613281 36.597656 47.566406 36.753906 47.480469 C 36.914062 47.398438 37.050781 47.289062 37.164062 47.152344 C 37.28125 47.015625 37.363281 46.859375 37.417969 46.691406 C 37.472656 46.519531 37.488281 46.34375 37.472656 46.167969 C 37.457031 45.988281 37.40625 45.824219 37.320312 45.664062 C 37.238281 45.507812 37.125 45.371094 36.988281 45.257812 C 36.851562 45.144531 36.699219 45.058594 36.53125 45.007812 C 36.359375 44.953125 36.183594 44.933594 36.007812 44.945312 L 34.335938 45.09375 C 33.222656 45.199219 32.171875 44.980469 31.191406 44.445312 C 30.738281 44.199219 30.351562 43.878906 30.03125 43.480469 C 29.707031 43.082031 29.472656 42.636719 29.328125 42.148438 C 29.183594 41.65625 29.136719 41.15625 29.191406 40.648438 C 29.246094 40.136719 29.394531 39.65625 29.640625 39.207031 C 29.6875 39.117188 29.726562 39.023438 29.753906 38.921875 L 31 38.964844 C 31.191406 38.976562 31.375 38.953125 31.554688 38.890625 C 31.730469 38.828125 31.890625 38.734375 32.03125 38.605469 C 32.171875 38.480469 32.28125 38.328125 32.363281 38.160156 C 32.441406 37.988281 32.484375 37.808594 32.492188 37.617188 C 32.496094 37.429688 32.46875 37.246094 32.398438 37.070312 C 32.332031 36.894531 32.230469 36.738281 32.101562 36.601562 C 31.96875 36.464844 31.816406 36.359375 31.644531 36.285156 C 31.46875 36.210938 31.289062 36.171875 31.097656 36.171875 L 29.773438 36.125 L 29.015625 35.039062 C 28.914062 34.882812 28.78125 34.75 28.625 34.644531 C 28.46875 34.542969 28.296875 34.46875 28.109375 34.433594 C 27.925781 34.398438 27.738281 34.402344 27.554688 34.441406 C 27.367188 34.480469 27.199219 34.554688 27.042969 34.660156 C 26.886719 34.769531 26.757812 34.902344 26.660156 35.0625 C 26.558594 35.222656 26.492188 35.394531 26.460938 35.582031 C 26.429688 35.769531 26.4375 35.953125 26.480469 36.136719 C 26.527344 36.320312 26.605469 36.488281 26.71875 36.640625 L 27.457031 37.695312 C 27.386719 37.761719 27.324219 37.839844 27.269531 37.921875 C 27.023438 38.371094 26.699219 38.753906 26.300781 39.078125 C 25.902344 39.398438 25.457031 39.632812 24.964844 39.777344 C 24.472656 39.921875 23.972656 39.96875 23.460938 39.914062 C 22.949219 39.859375 22.46875 39.710938 22.019531 39.464844 C 21.035156 38.933594 20.28125 38.171875 19.761719 37.183594 Z M 26.738281 42.910156 C 26.886719 43.398438 27.09375 43.863281 27.351562 44.304688 L 26.027344 46.734375 C 25.914062 46.941406 25.765625 47.117188 25.582031 47.265625 C 25.398438 47.414062 25.195312 47.523438 24.96875 47.589844 C 24.742188 47.65625 24.511719 47.679688 24.273438 47.652344 C 24.039062 47.628906 23.820312 47.558594 23.609375 47.449219 C 23.402344 47.335938 23.226562 47.1875 23.078125 47.003906 C 22.925781 46.820312 22.820312 46.613281 22.753906 46.390625 C 22.6875 46.164062 22.664062 45.933594 22.691406 45.699219 C 22.714844 45.464844 22.785156 45.242188 22.898438 45.035156 L 24.21875 42.613281 C 25.027344 42.570312 25.804688 42.386719 26.546875 42.058594 C 26.589844 42.347656 26.652344 42.628906 26.738281 42.910156 Z M 26.738281 42.910156 " fill-opacity="1" fill-rule="nonzero"/><path fill="#5fa2ad" d="M 13.878906 43.648438 C 13.726562 43.742188 13.597656 43.863281 13.496094 44.011719 C 13.390625 44.15625 13.320312 44.316406 13.28125 44.492188 C 13.242188 44.664062 13.238281 44.839844 13.265625 45.015625 C 13.296875 45.191406 13.359375 45.355469 13.457031 45.507812 C 14.359375 46.898438 15.089844 48.371094 15.652344 49.929688 C 15.828125 50.429688 16.046875 50.910156 16.3125 51.371094 C 16.578125 51.828125 16.882812 52.261719 17.226562 52.667969 C 17.570312 53.070312 17.949219 53.441406 18.359375 53.773438 C 18.773438 54.109375 19.210938 54.402344 19.679688 54.65625 C 20.148438 54.910156 20.632812 55.121094 21.136719 55.285156 C 21.644531 55.445312 22.160156 55.5625 22.6875 55.632812 C 23.214844 55.699219 23.742188 55.71875 24.273438 55.691406 C 24.804688 55.664062 25.328125 55.585938 25.847656 55.460938 C 27.460938 55.085938 29.097656 54.898438 30.757812 54.902344 C 30.9375 54.898438 31.109375 54.863281 31.273438 54.796875 C 31.441406 54.726562 31.585938 54.628906 31.710938 54.5 C 31.835938 54.375 31.933594 54.226562 32 54.0625 C 32.070312 53.894531 32.101562 53.722656 32.101562 53.546875 C 32.101562 53.367188 32.066406 53.195312 31.996094 53.03125 C 31.925781 52.867188 31.828125 52.71875 31.699219 52.59375 C 31.574219 52.46875 31.425781 52.371094 31.261719 52.304688 C 31.09375 52.238281 30.921875 52.203125 30.742188 52.203125 L 30.730469 52.203125 C 28.863281 52.207031 27.023438 52.417969 25.207031 52.839844 C 24.855469 52.925781 24.492188 52.980469 24.128906 53 C 23.765625 53.019531 23.402344 53.003906 23.039062 52.957031 C 22.675781 52.910156 22.320312 52.832031 21.972656 52.71875 C 21.625 52.605469 21.292969 52.460938 20.972656 52.289062 C 20.652344 52.113281 20.347656 51.910156 20.066406 51.683594 C 19.78125 51.453125 19.519531 51.199219 19.285156 50.921875 C 19.046875 50.640625 18.839844 50.34375 18.65625 50.027344 C 18.476562 49.710938 18.324219 49.382812 18.203125 49.039062 C 17.574219 47.289062 16.753906 45.628906 15.742188 44.066406 C 15.644531 43.917969 15.523438 43.789062 15.378906 43.6875 C 15.230469 43.582031 15.070312 43.511719 14.894531 43.472656 C 14.722656 43.433594 14.546875 43.429688 14.367188 43.460938 C 14.191406 43.492188 14.027344 43.554688 13.878906 43.648438 Z M 13.878906 43.648438 " fill-opacity="1" fill-rule="nonzero"/><g clip-path="url(#18078ba901)"><path fill="#5fa2ad" d="M 5.398438 47.042969 C 5.652344 47.042969 5.886719 46.976562 6.105469 46.84375 L 11.613281 43.457031 C 11.996094 43.226562 12.335938 42.941406 12.628906 42.609375 C 12.925781 42.273438 13.167969 41.902344 13.355469 41.496094 C 13.539062 41.089844 13.660156 40.667969 13.71875 40.226562 C 13.777344 39.78125 13.769531 39.339844 13.695312 38.902344 C 13.488281 37.738281 13.453125 36.566406 13.59375 35.394531 C 14.855469 34.984375 15.894531 34.261719 16.71875 33.21875 L 26.183594 21.527344 C 26.351562 21.324219 26.445312 21.089844 26.476562 20.832031 C 27.5625 20.511719 28.671875 20.414062 29.796875 20.535156 C 30.925781 20.660156 31.984375 21 32.976562 21.550781 C 33.800781 21.996094 34.226562 22.527344 34.683594 23.089844 C 35.085938 23.589844 35.5 24.105469 36.144531 24.457031 C 36.789062 24.804688 37.449219 24.875 38.089844 24.941406 C 38.808594 25.015625 39.488281 25.085938 40.3125 25.53125 C 41.3125 26.0625 42.171875 26.769531 42.890625 27.644531 C 43.609375 28.523438 44.128906 29.503906 44.449219 30.589844 C 44.246094 30.753906 44.101562 30.960938 44.019531 31.210938 L 39.324219 45.492188 C 38.894531 46.746094 38.851562 48.015625 39.195312 49.296875 C 38.292969 50.035156 37.300781 50.636719 36.226562 51.09375 C 35.820312 51.265625 35.445312 51.496094 35.109375 51.78125 C 34.769531 52.066406 34.480469 52.394531 34.242188 52.765625 C 34 53.136719 33.820312 53.535156 33.703125 53.960938 C 33.582031 54.386719 33.527344 54.820312 33.539062 55.261719 L 33.597656 59.761719 C 33.621094 61.363281 34.070312 62.835938 34.949219 64.175781 L 35.453125 64.945312 C 36.25 66.171875 36.523438 67.507812 36.265625 68.949219 L 20.539062 56.394531 C 19.714844 55.734375 18.871094 55.085938 18.027344 54.4375 C 16.402344 53.191406 14.722656 51.902344 13.203125 50.542969 C 13.070312 50.425781 12.921875 50.335938 12.75 50.277344 C 12.582031 50.214844 12.410156 50.191406 12.230469 50.203125 C 12.050781 50.210938 11.878906 50.253906 11.71875 50.332031 C 11.558594 50.410156 11.417969 50.515625 11.296875 50.648438 C 11.179688 50.78125 11.089844 50.929688 11.027344 51.097656 C 10.96875 51.269531 10.945312 51.441406 10.953125 51.621094 C 10.964844 51.796875 11.007812 51.96875 11.085938 52.128906 C 11.160156 52.289062 11.265625 52.429688 11.398438 52.550781 C 12.996094 53.976562 14.714844 55.296875 16.378906 56.574219 C 17.210938 57.214844 18.039062 57.847656 18.851562 58.496094 L 44.011719 78.585938 C 44.257812 78.78125 44.539062 78.878906 44.855469 78.878906 C 45.167969 78.878906 45.449219 78.777344 45.695312 78.582031 L 67.863281 60.855469 C 69.125 59.847656 70.484375 58.847656 71.796875 57.878906 C 74.328125 56.015625 76.898438 54.105469 79.171875 51.890625 C 79.179688 51.886719 79.1875 51.882812 79.191406 51.875 C 80.984375 50.125 82.597656 48.195312 83.839844 45.914062 C 84.78125 44.164062 85.492188 42.320312 85.964844 40.390625 C 86.441406 38.460938 86.667969 36.5 86.644531 34.511719 C 86.625 32.523438 86.351562 30.570312 85.832031 28.652344 C 85.316406 26.730469 84.5625 24.90625 83.582031 23.175781 C 83.125 22.378906 82.621094 21.613281 82.074219 20.875 C 81.527344 20.136719 80.9375 19.433594 80.304688 18.761719 C 79.675781 18.09375 79.007812 17.464844 78.300781 16.875 C 77.597656 16.285156 76.859375 15.738281 76.089844 15.234375 C 75.320312 14.730469 74.519531 14.277344 73.699219 13.867188 C 72.875 13.457031 72.027344 13.097656 71.160156 12.789062 C 70.296875 12.476562 69.414062 12.21875 68.515625 12.011719 C 67.621094 11.808594 66.714844 11.65625 65.800781 11.554688 C 64.882812 11.457031 63.964844 11.410156 63.046875 11.417969 C 62.125 11.425781 61.210938 11.488281 60.296875 11.605469 C 59.382812 11.722656 58.480469 11.890625 57.585938 12.113281 C 56.695312 12.335938 55.816406 12.613281 54.957031 12.9375 C 54.097656 13.261719 53.257812 13.640625 52.441406 14.0625 C 51.625 14.488281 50.835938 14.957031 50.078125 15.476562 C 49.316406 15.992188 48.589844 16.554688 47.894531 17.15625 C 47.199219 17.761719 46.542969 18.402344 45.925781 19.082031 L 44.824219 20.292969 L 43.722656 19.082031 C 43.105469 18.402344 42.449219 17.761719 41.753906 17.15625 C 41.058594 16.554688 40.332031 15.992188 39.574219 15.476562 C 38.8125 14.960938 38.023438 14.488281 37.207031 14.0625 C 36.390625 13.640625 35.554688 13.261719 34.691406 12.9375 C 33.832031 12.613281 32.957031 12.335938 32.0625 12.113281 C 31.167969 11.890625 30.265625 11.722656 29.355469 11.605469 C 28.441406 11.488281 27.523438 11.425781 26.605469 11.417969 C 25.683594 11.410156 24.765625 11.457031 23.851562 11.554688 C 22.9375 11.65625 22.03125 11.808594 21.132812 12.011719 C 20.234375 12.21875 19.355469 12.476562 18.488281 12.789062 C 17.621094 13.097656 16.777344 13.457031 15.953125 13.867188 C 15.128906 14.277344 14.332031 14.730469 13.5625 15.234375 C 12.792969 15.738281 12.054688 16.285156 11.347656 16.875 C 10.644531 17.464844 9.976562 18.09375 9.34375 18.761719 C 8.714844 19.433594 8.125 20.136719 7.578125 20.875 C 7.027344 21.613281 6.527344 22.378906 6.070312 23.175781 C 2.863281 28.769531 2.179688 35.847656 4.238281 42.113281 C 4.296875 42.28125 4.382812 42.429688 4.5 42.566406 C 4.617188 42.699219 4.757812 42.804688 4.914062 42.882812 C 5.074219 42.960938 5.242188 43.007812 5.421875 43.019531 C 5.597656 43.035156 5.769531 43.011719 5.9375 42.957031 C 6.109375 42.902344 6.261719 42.816406 6.394531 42.703125 C 6.53125 42.585938 6.636719 42.449219 6.71875 42.292969 C 6.800781 42.132812 6.847656 41.96875 6.863281 41.789062 C 6.878906 41.613281 6.859375 41.441406 6.804688 41.273438 C 4.980469 35.722656 5.582031 29.457031 8.414062 24.515625 C 8.816406 23.808594 9.261719 23.132812 9.746094 22.476562 C 10.230469 21.824219 10.753906 21.203125 11.3125 20.613281 C 11.871094 20.019531 12.460938 19.464844 13.085938 18.941406 C 13.707031 18.417969 14.359375 17.9375 15.042969 17.492188 C 15.722656 17.046875 16.425781 16.640625 17.15625 16.28125 C 17.886719 15.917969 18.632812 15.601562 19.398438 15.324219 C 20.164062 15.050781 20.945312 14.824219 21.738281 14.640625 C 22.53125 14.457031 23.332031 14.324219 24.144531 14.234375 C 24.953125 14.148438 25.765625 14.105469 26.578125 14.113281 C 27.390625 14.121094 28.203125 14.175781 29.011719 14.28125 C 29.816406 14.382812 30.617188 14.535156 31.40625 14.730469 C 32.195312 14.925781 32.972656 15.171875 33.734375 15.457031 C 34.496094 15.746094 35.234375 16.078125 35.957031 16.453125 C 36.679688 16.828125 37.378906 17.246094 38.050781 17.703125 C 38.722656 18.160156 39.367188 18.65625 39.980469 19.191406 C 40.59375 19.722656 41.175781 20.292969 41.722656 20.894531 L 43.796875 23.175781 C 43.933594 23.3125 44.089844 23.414062 44.269531 23.488281 C 44.445312 23.5625 44.632812 23.597656 44.824219 23.597656 C 45.015625 23.597656 45.203125 23.5625 45.378906 23.488281 C 45.558594 23.414062 45.714844 23.3125 45.851562 23.175781 L 47.925781 20.894531 C 48.472656 20.292969 49.054688 19.722656 49.667969 19.191406 C 50.28125 18.65625 50.925781 18.160156 51.597656 17.703125 C 52.269531 17.246094 52.96875 16.828125 53.691406 16.453125 C 54.410156 16.078125 55.152344 15.746094 55.914062 15.457031 C 56.675781 15.171875 57.453125 14.925781 58.242188 14.730469 C 59.03125 14.535156 59.832031 14.382812 60.636719 14.28125 C 61.445312 14.175781 62.257812 14.121094 63.070312 14.113281 C 63.882812 14.105469 64.695312 14.148438 65.503906 14.234375 C 66.316406 14.324219 67.117188 14.457031 67.910156 14.640625 C 68.703125 14.824219 69.484375 15.050781 70.25 15.324219 C 71.015625 15.601562 71.761719 15.917969 72.492188 16.28125 C 73.222656 16.640625 73.925781 17.046875 74.605469 17.492188 C 75.289062 17.9375 75.941406 18.417969 76.566406 18.941406 C 77.1875 19.464844 77.78125 20.019531 78.335938 20.613281 C 78.894531 21.203125 79.417969 21.824219 79.902344 22.476562 C 80.386719 23.132812 80.832031 23.808594 81.234375 24.515625 C 82.003906 25.871094 82.613281 27.296875 83.0625 28.789062 C 83.511719 30.285156 83.789062 31.808594 83.898438 33.363281 C 84.003906 34.917969 83.933594 36.46875 83.691406 38.007812 C 83.449219 39.546875 83.039062 41.042969 82.460938 42.488281 L 80.792969 42.195312 C 81.4375 40.542969 81.722656 38.828125 81.644531 37.054688 L 82.460938 36.777344 C 82.636719 36.722656 82.792969 36.636719 82.929688 36.519531 C 83.070312 36.402344 83.179688 36.261719 83.261719 36.101562 C 83.347656 35.9375 83.394531 35.765625 83.40625 35.585938 C 83.417969 35.40625 83.394531 35.226562 83.335938 35.054688 C 83.277344 34.882812 83.1875 34.730469 83.066406 34.59375 C 82.945312 34.457031 82.804688 34.351562 82.640625 34.273438 C 82.476562 34.195312 82.300781 34.152344 82.121094 34.144531 C 81.9375 34.136719 81.761719 34.164062 81.589844 34.226562 L 81.179688 34.367188 C 81.140625 34.234375 81.117188 34.101562 81.074219 33.972656 C 80.464844 32.222656 79.488281 30.714844 78.140625 29.445312 L 76.011719 19.183594 C 75.957031 18.925781 75.839844 18.703125 75.652344 18.511719 C 75.46875 18.324219 75.246094 18.199219 74.988281 18.140625 C 74.730469 18.082031 74.476562 18.097656 74.230469 18.1875 C 73.980469 18.277344 73.777344 18.425781 73.617188 18.636719 L 68.496094 25.300781 C 67.410156 25.191406 66.324219 25.195312 65.242188 25.320312 C 64.160156 25.445312 63.101562 25.679688 62.070312 26.03125 C 61.035156 26.382812 60.054688 26.839844 59.121094 27.402344 C 58.1875 27.964844 57.324219 28.621094 56.53125 29.367188 L 48.402344 27.214844 C 48.144531 27.144531 47.890625 27.152344 47.640625 27.234375 C 47.386719 27.3125 47.179688 27.457031 47.011719 27.660156 C 46.84375 27.863281 46.742188 28.09375 46.710938 28.355469 C 46.679688 28.617188 46.722656 28.867188 46.839844 29.105469 L 47.382812 30.222656 C 47.304688 30.207031 47.230469 30.191406 47.144531 30.183594 C 46.277344 27.058594 44.421875 24.695312 41.601562 23.164062 C 40.304688 22.460938 39.183594 22.34375 38.367188 22.257812 C 37.976562 22.21875 37.605469 22.179688 37.4375 22.089844 C 37.269531 21.996094 37.03125 21.707031 36.785156 21.402344 C 36.273438 20.761719 35.566406 19.886719 34.265625 19.183594 C 31.449219 17.652344 28.457031 17.378906 25.363281 18.347656 C 24.929688 17.796875 24.378906 17.417969 23.707031 17.214844 C 22.382812 16.820312 20.824219 17.226562 19.199219 18.382812 L 10.363281 24.640625 C 8.1875 26.183594 6.972656 29.027344 7.417969 31.550781 C 7.769531 33.558594 9.113281 35.007812 10.867188 35.464844 C 10.75 36.773438 10.804688 38.074219 11.035156 39.371094 C 11.09375 39.726562 11.046875 40.066406 10.894531 40.390625 C 10.742188 40.71875 10.511719 40.972656 10.203125 41.160156 L 4.6875 44.550781 C 4.433594 44.707031 4.25 44.925781 4.136719 45.207031 C 4.027344 45.488281 4.015625 45.773438 4.097656 46.066406 C 4.179688 46.355469 4.34375 46.589844 4.582031 46.773438 C 4.824219 46.953125 5.097656 47.042969 5.398438 47.042969 Z M 41.890625 46.332031 L 46.308594 32.890625 L 46.332031 32.886719 C 46.335938 32.886719 46.339844 32.886719 46.34375 32.886719 C 46.347656 32.882812 46.347656 32.882812 46.351562 32.882812 L 46.359375 32.878906 C 46.960938 32.757812 47.171875 32.933594 47.238281 32.992188 C 47.53125 33.238281 47.820312 33.960938 47.765625 35.238281 L 47.535156 40.570312 C 47.515625 41 47.503906 41.425781 47.488281 41.855469 C 47.425781 44.007812 47.363281 46.046875 46.539062 47.878906 C 46.332031 48.355469 46.058594 48.789062 45.714844 49.175781 C 45.300781 49.644531 44.789062 49.945312 44.171875 50.070312 C 43.75 50.171875 43.335938 50.132812 42.9375 49.957031 C 42.539062 49.78125 42.234375 49.503906 42.023438 49.125 C 41.609375 48.386719 41.558594 47.34375 41.890625 46.332031 Z M 70.195312 55.710938 C 68.859375 56.691406 67.476562 57.707031 66.171875 58.753906 L 62.867188 61.398438 C 64.34375 58.664062 65.371094 55.734375 64.929688 52.597656 C 65.246094 52.613281 65.5625 52.640625 65.878906 52.640625 C 67.632812 52.660156 69.335938 52.382812 70.992188 51.800781 C 72.644531 51.222656 74.152344 50.378906 75.507812 49.269531 L 76.402344 50.808594 C 74.460938 52.566406 72.308594 54.152344 70.195312 55.710938 Z M 81.230469 45.011719 C 80.421875 46.390625 79.472656 47.667969 78.378906 48.835938 L 77.535156 47.382812 C 78.296875 46.558594 78.96875 45.671875 79.554688 44.714844 Z M 56.570312 32.167969 C 57.074219 32.300781 57.507812 32.183594 57.875 31.816406 C 58.578125 31.082031 59.355469 30.441406 60.210938 29.894531 C 61.070312 29.347656 61.980469 28.910156 62.941406 28.582031 C 63.902344 28.257812 64.890625 28.046875 65.90625 27.960938 C 66.917969 27.871094 67.925781 27.902344 68.929688 28.054688 C 69.445312 28.121094 69.859375 27.949219 70.179688 27.539062 L 73.964844 22.613281 L 75.582031 30.414062 C 75.644531 30.699219 75.78125 30.945312 76 31.140625 C 77.164062 32.15625 78.003906 33.386719 78.515625 34.839844 C 78.5625 34.96875 78.585938 35.105469 78.625 35.234375 L 73.269531 37.058594 C 73.09375 37.109375 72.9375 37.195312 72.796875 37.3125 C 72.660156 37.429688 72.546875 37.570312 72.464844 37.734375 C 72.382812 37.894531 72.335938 38.066406 72.320312 38.246094 C 72.308594 38.429688 72.332031 38.605469 72.390625 38.777344 C 72.449219 38.949219 72.539062 39.105469 72.660156 39.242188 C 72.78125 39.375 72.925781 39.484375 73.089844 39.5625 C 73.253906 39.640625 73.425781 39.683594 73.609375 39.691406 C 73.792969 39.699219 73.96875 39.671875 74.140625 39.605469 L 78.957031 37.96875 C 78.882812 39.273438 78.582031 40.519531 78.050781 41.710938 L 73.410156 40.894531 C 73.230469 40.863281 73.054688 40.867188 72.882812 40.90625 C 72.707031 40.945312 72.546875 41.015625 72.398438 41.117188 C 72.253906 41.21875 72.132812 41.347656 72.035156 41.496094 C 71.9375 41.648438 71.875 41.8125 71.84375 41.988281 C 71.8125 42.164062 71.816406 42.335938 71.855469 42.511719 C 71.894531 42.6875 71.964844 42.847656 72.066406 42.992188 C 72.167969 43.140625 72.296875 43.261719 72.449219 43.355469 C 72.597656 43.453125 72.761719 43.515625 72.9375 43.546875 L 76.648438 44.203125 C 74.96875 46.554688 72.550781 48.425781 70.015625 49.289062 C 67.996094 49.972656 65.652344 50.101562 63.386719 49.710938 C 63.332031 49.699219 63.28125 49.691406 63.226562 49.6875 C 62.777344 49.605469 62.332031 49.503906 61.894531 49.382812 L 64.238281 46.460938 C 64.347656 46.320312 64.421875 46.164062 64.46875 45.996094 C 64.515625 45.824219 64.527344 45.652344 64.507812 45.476562 C 64.488281 45.304688 64.433594 45.140625 64.347656 44.984375 C 64.261719 44.832031 64.148438 44.699219 64.011719 44.589844 C 63.875 44.480469 63.71875 44.398438 63.550781 44.347656 C 63.382812 44.296875 63.210938 44.28125 63.035156 44.300781 C 62.859375 44.316406 62.691406 44.367188 62.535156 44.449219 C 62.378906 44.53125 62.246094 44.640625 62.132812 44.777344 L 59.277344 48.332031 C 58.019531 47.695312 56.929688 46.839844 56.003906 45.773438 L 60.820312 44.136719 C 60.996094 44.082031 61.152344 43.996094 61.292969 43.878906 C 61.429688 43.761719 61.539062 43.621094 61.625 43.460938 C 61.707031 43.300781 61.753906 43.128906 61.765625 42.945312 C 61.777344 42.765625 61.757812 42.589844 61.699219 42.417969 C 61.640625 42.246094 61.550781 42.089844 61.429688 41.953125 C 61.308594 41.820312 61.164062 41.710938 61 41.632812 C 60.835938 41.554688 60.664062 41.511719 60.480469 41.503906 C 60.296875 41.496094 60.121094 41.523438 59.953125 41.585938 L 54.59375 43.410156 C 54.542969 43.28125 54.480469 43.160156 54.4375 43.03125 C 53.953125 41.566406 53.863281 40.082031 54.164062 38.570312 C 54.21875 38.277344 54.179688 38 54.050781 37.734375 L 50.558594 30.574219 Z M 51.433594 38.527344 C 51.144531 40.355469 51.292969 42.148438 51.882812 43.902344 C 51.925781 44.03125 51.988281 44.152344 52.035156 44.277344 L 50.960938 44.644531 C 50.785156 44.699219 50.628906 44.785156 50.492188 44.902344 C 50.351562 45.019531 50.238281 45.160156 50.15625 45.320312 C 50.074219 45.484375 50.027344 45.65625 50.011719 45.835938 C 50 46.019531 50.023438 46.195312 50.082031 46.367188 C 50.140625 46.539062 50.230469 46.691406 50.351562 46.828125 C 50.472656 46.964844 50.617188 47.070312 50.78125 47.148438 C 50.945312 47.226562 51.121094 47.269531 51.300781 47.277344 C 51.484375 47.285156 51.660156 47.257812 51.832031 47.195312 L 53.324219 46.6875 C 54.453125 48.265625 55.867188 49.523438 57.566406 50.464844 L 56.878906 51.316406 C 56.761719 51.457031 56.679688 51.613281 56.625 51.785156 C 56.570312 51.960938 56.550781 52.136719 56.570312 52.316406 C 56.585938 52.5 56.640625 52.667969 56.726562 52.828125 C 56.8125 52.988281 56.929688 53.125 57.070312 53.238281 C 57.210938 53.351562 57.371094 53.433594 57.546875 53.480469 C 57.71875 53.53125 57.898438 53.546875 58.078125 53.523438 C 58.257812 53.5 58.429688 53.445312 58.585938 53.355469 C 58.746094 53.265625 58.878906 53.148438 58.988281 53.003906 L 60.097656 51.625 C 60.753906 51.859375 61.425781 52.050781 62.105469 52.203125 C 63.109375 56.417969 60.433594 60.464844 57.839844 64.386719 C 57.355469 65.117188 56.890625 65.824219 56.453125 66.523438 L 44.851562 75.804688 L 38.574219 70.789062 C 39.011719 69.570312 39.15625 68.316406 39.003906 67.027344 C 38.855469 65.742188 38.421875 64.554688 37.714844 63.46875 L 37.210938 62.703125 C 36.617188 61.796875 36.316406 60.808594 36.300781 59.726562 L 36.242188 55.21875 C 36.230469 54.863281 36.320312 54.539062 36.507812 54.238281 C 36.699219 53.9375 36.957031 53.714844 37.285156 53.574219 C 38.480469 53.066406 39.589844 52.414062 40.613281 51.617188 C 41.492188 52.417969 42.527344 52.816406 43.71875 52.8125 C 44.046875 52.8125 44.375 52.777344 44.699219 52.714844 C 45.890625 52.476562 46.890625 51.902344 47.703125 51 C 48.242188 50.398438 48.675781 49.726562 49 48.984375 C 50.046875 46.660156 50.117188 44.257812 50.1875 41.933594 C 50.199219 41.519531 50.210938 41.105469 50.230469 40.6875 L 50.414062 36.441406 Z M 10.078125 31.085938 C 9.8125 29.574219 10.589844 27.789062 11.925781 26.839844 L 20.761719 20.578125 C 21.609375 19.976562 22.269531 19.765625 22.6875 19.765625 C 22.773438 19.765625 22.855469 19.777344 22.9375 19.800781 C 23.023438 19.824219 23.28125 19.902344 23.507812 20.476562 C 23.515625 20.492188 23.519531 20.507812 23.527344 20.523438 L 14.617188 31.527344 C 13.945312 32.351562 13.042969 32.878906 12.1875 32.933594 C 11.085938 33.003906 10.289062 32.292969 10.078125 31.085938 Z M 10.078125 31.085938 " fill-opacity="1" fill-rule="nonzero"/></g><path fill="#5fa2ad" d="M 24.816406 27.792969 C 25.863281 28.363281 25.867188 29.839844 25.863281 29.898438 C 25.859375 30.074219 25.886719 30.246094 25.953125 30.414062 C 26.015625 30.578125 26.109375 30.726562 26.230469 30.855469 C 26.351562 30.988281 26.492188 31.089844 26.65625 31.160156 C 26.820312 31.234375 26.988281 31.273438 27.167969 31.28125 C 27.183594 31.28125 27.199219 31.28125 27.214844 31.28125 C 27.390625 31.28125 27.558594 31.25 27.722656 31.183594 C 27.882812 31.117188 28.027344 31.023438 28.152344 30.902344 C 28.277344 30.78125 28.378906 30.640625 28.449219 30.480469 C 28.519531 30.324219 28.558594 30.15625 28.5625 29.980469 C 28.605469 28.808594 28.132812 26.527344 26.105469 25.425781 C 25.949219 25.335938 25.78125 25.28125 25.601562 25.261719 C 25.421875 25.238281 25.242188 25.253906 25.070312 25.304688 C 24.894531 25.351562 24.738281 25.433594 24.597656 25.546875 C 24.457031 25.660156 24.339844 25.796875 24.253906 25.957031 C 24.167969 26.113281 24.117188 26.285156 24.097656 26.464844 C 24.078125 26.644531 24.097656 26.820312 24.148438 26.992188 C 24.203125 27.164062 24.285156 27.320312 24.402344 27.460938 C 24.519531 27.597656 24.65625 27.710938 24.816406 27.792969 Z M 24.816406 27.792969 " fill-opacity="1" fill-rule="nonzero"/><path fill="#5fa2ad" d="M 37.160156 36.019531 C 37.171875 36.011719 38.417969 35.179688 39.492188 35.761719 C 39.648438 35.851562 39.816406 35.90625 40 35.925781 C 40.179688 35.949219 40.355469 35.933594 40.53125 35.886719 C 40.703125 35.835938 40.863281 35.753906 41.003906 35.640625 C 41.144531 35.527344 41.261719 35.390625 41.347656 35.234375 C 41.433594 35.074219 41.484375 34.902344 41.503906 34.722656 C 41.523438 34.542969 41.503906 34.367188 41.453125 34.195312 C 41.398438 34.019531 41.3125 33.863281 41.199219 33.726562 C 41.082031 33.585938 40.941406 33.476562 40.78125 33.390625 C 38.757812 32.292969 36.582031 33.136719 35.613281 33.808594 C 35.46875 33.910156 35.34375 34.035156 35.25 34.1875 C 35.152344 34.335938 35.089844 34.5 35.058594 34.675781 C 35.027344 34.851562 35.03125 35.027344 35.066406 35.203125 C 35.105469 35.375 35.175781 35.539062 35.28125 35.683594 C 35.382812 35.832031 35.507812 35.953125 35.660156 36.046875 C 35.808594 36.144531 35.972656 36.207031 36.148438 36.238281 C 36.328125 36.269531 36.5 36.269531 36.675781 36.230469 C 36.851562 36.191406 37.011719 36.121094 37.160156 36.019531 Z M 37.160156 36.019531 " fill-opacity="1" fill-rule="nonzero"/><path fill="#5fa2ad" d="M 59.195312 38.78125 C 60.328125 38.394531 61.421875 39.402344 61.457031 39.4375 C 61.585938 39.5625 61.730469 39.65625 61.898438 39.722656 C 62.0625 39.792969 62.238281 39.824219 62.414062 39.820312 C 62.59375 39.820312 62.765625 39.785156 62.933594 39.714844 C 63.097656 39.644531 63.242188 39.542969 63.367188 39.417969 C 63.492188 39.289062 63.589844 39.140625 63.65625 38.976562 C 63.722656 38.8125 63.753906 38.636719 63.753906 38.460938 C 63.75 38.28125 63.714844 38.109375 63.644531 37.945312 C 63.574219 37.78125 63.476562 37.636719 63.347656 37.511719 C 62.511719 36.6875 60.507812 35.488281 58.324219 36.230469 C 58.15625 36.289062 58.003906 36.375 57.871094 36.492188 C 57.734375 36.613281 57.628906 36.75 57.550781 36.910156 C 57.472656 37.070312 57.425781 37.242188 57.414062 37.417969 C 57.402344 37.597656 57.425781 37.769531 57.484375 37.941406 C 57.542969 38.109375 57.628906 38.261719 57.746094 38.394531 C 57.863281 38.53125 58.003906 38.636719 58.164062 38.714844 C 58.324219 38.792969 58.496094 38.839844 58.675781 38.851562 C 58.851562 38.863281 59.027344 38.839844 59.195312 38.78125 Z M 59.195312 38.78125 " fill-opacity="1" fill-rule="nonzero"/><path fill="#5fa2ad" d="M 69.230469 37.40625 C 69.292969 37.417969 69.359375 37.421875 69.421875 37.421875 C 69.757812 37.421875 70.050781 37.3125 70.304688 37.09375 C 70.554688 36.875 70.707031 36.601562 70.757812 36.273438 C 70.761719 36.257812 71.003906 34.765625 72.148438 34.375 C 72.316406 34.320312 72.46875 34.230469 72.601562 34.113281 C 72.738281 33.996094 72.84375 33.855469 72.921875 33.695312 C 73.003906 33.535156 73.046875 33.367188 73.058594 33.1875 C 73.070312 33.007812 73.046875 32.835938 72.992188 32.664062 C 72.933594 32.496094 72.84375 32.34375 72.726562 32.210938 C 72.609375 32.078125 72.46875 31.96875 72.308594 31.890625 C 72.148438 31.8125 71.976562 31.765625 71.800781 31.753906 C 71.621094 31.742188 71.445312 31.765625 71.277344 31.824219 C 69.09375 32.566406 68.242188 34.734375 68.082031 35.898438 C 68.058594 36.074219 68.070312 36.25 68.117188 36.421875 C 68.160156 36.589844 68.238281 36.75 68.34375 36.890625 C 68.453125 37.03125 68.582031 37.144531 68.734375 37.234375 C 68.890625 37.324219 69.054688 37.382812 69.230469 37.40625 Z M 69.230469 37.40625 " fill-opacity="1" fill-rule="nonzero"/><path fill="#5fa2ad" d="M 7.742188 46.460938 C 7.597656 46.570312 7.480469 46.699219 7.386719 46.851562 C 7.296875 47.007812 7.238281 47.171875 7.214844 47.347656 C 7.1875 47.527344 7.195312 47.703125 7.242188 47.875 C 7.285156 48.046875 7.363281 48.207031 7.46875 48.347656 C 7.78125 48.765625 8.109375 49.171875 8.449219 49.566406 C 8.5625 49.707031 8.699219 49.820312 8.859375 49.90625 C 9.019531 49.992188 9.191406 50.046875 9.375 50.0625 C 9.554688 50.078125 9.734375 50.058594 9.90625 50.003906 C 10.082031 49.949219 10.238281 49.863281 10.375 49.746094 C 10.515625 49.628906 10.625 49.488281 10.707031 49.324219 C 10.789062 49.164062 10.835938 48.988281 10.847656 48.808594 C 10.859375 48.625 10.835938 48.449219 10.777344 48.277344 C 10.714844 48.105469 10.625 47.953125 10.503906 47.816406 C 10.203125 47.464844 9.910156 47.105469 9.632812 46.734375 C 9.523438 46.589844 9.394531 46.472656 9.242188 46.382812 C 9.085938 46.289062 8.921875 46.230469 8.742188 46.207031 C 8.566406 46.179688 8.390625 46.191406 8.214844 46.234375 C 8.042969 46.277344 7.882812 46.355469 7.742188 46.460938 Z M 7.742188 46.460938 " fill-opacity="1" fill-rule="nonzero"/></svg>