<svg xmlns="http://www.w3.org/2000/svg" xmlns:xlink="http://www.w3.org/1999/xlink" width="120" zoomAndPan="magnify" viewBox="0 0 90 89.999999" height="120" preserveAspectRatio="xMidYMid meet" version="1.0"><defs><clipPath id="99669880aa"><path d="M 5.039062 29 L 50 29 L 50 70 L 5.039062 70 Z M 5.039062 29 " clip-rule="nonzero"/></clipPath><clipPath id="67bf12fe12"><path d="M 41 21 L 85.289062 21 L 85.289062 62 L 41 62 Z M 41 21 " clip-rule="nonzero"/></clipPath><clipPath id="57c4d2a37d"><path d="M 25 5.039062 L 66 5.039062 L 66 85.289062 L 25 85.289062 Z M 25 5.039062 " clip-rule="nonzero"/></clipPath></defs><g clip-path="url(#99669880aa)"><path fill="#5fa2ad" d="M 29.113281 69.238281 L 17.078125 69.238281 C 16.285156 69.238281 15.503906 69.160156 14.730469 69.003906 C 13.953125 68.851562 13.203125 68.621094 12.472656 68.320312 C 11.742188 68.015625 11.046875 67.644531 10.390625 67.207031 C 9.734375 66.765625 9.125 66.269531 8.566406 65.710938 C 8.007812 65.152344 7.511719 64.542969 7.070312 63.886719 C 6.632812 63.230469 6.261719 62.535156 5.957031 61.804688 C 5.65625 61.078125 5.425781 60.324219 5.273438 59.550781 C 5.117188 58.773438 5.039062 57.992188 5.039062 57.203125 L 5.039062 41.152344 C 5.039062 40.359375 5.117188 39.578125 5.273438 38.804688 C 5.425781 38.027344 5.65625 37.277344 5.957031 36.546875 C 6.261719 35.816406 6.632812 35.125 7.070312 34.464844 C 7.511719 33.808594 8.007812 33.203125 8.566406 32.644531 C 9.125 32.085938 9.734375 31.585938 10.390625 31.144531 C 11.046875 30.707031 11.742188 30.335938 12.472656 30.035156 C 13.203125 29.730469 13.953125 29.5 14.730469 29.347656 C 15.503906 29.191406 16.285156 29.113281 17.078125 29.113281 L 45.164062 29.113281 C 45.425781 29.113281 45.6875 29.140625 45.945312 29.191406 C 46.207031 29.242188 46.457031 29.320312 46.699219 29.417969 C 46.941406 29.519531 47.175781 29.644531 47.394531 29.789062 C 47.613281 29.9375 47.816406 30.101562 48 30.289062 C 48.1875 30.476562 48.355469 30.679688 48.5 30.898438 C 48.648438 31.117188 48.769531 31.347656 48.871094 31.589844 C 48.972656 31.835938 49.046875 32.085938 49.097656 32.34375 C 49.152344 32.601562 49.175781 32.863281 49.175781 33.125 C 49.175781 33.390625 49.152344 33.652344 49.097656 33.910156 C 49.046875 34.167969 48.972656 34.417969 48.871094 34.660156 C 48.769531 34.90625 48.648438 35.136719 48.5 35.355469 C 48.355469 35.574219 48.1875 35.777344 48 35.964844 C 47.816406 36.148438 47.613281 36.316406 47.394531 36.460938 C 47.175781 36.609375 46.941406 36.734375 46.699219 36.832031 C 46.457031 36.933594 46.207031 37.011719 45.945312 37.0625 C 45.6875 37.113281 45.425781 37.140625 45.164062 37.140625 L 17.078125 37.140625 C 16.8125 37.140625 16.550781 37.164062 16.292969 37.214844 C 16.035156 37.265625 15.785156 37.34375 15.539062 37.445312 C 15.296875 37.546875 15.066406 37.667969 14.847656 37.816406 C 14.628906 37.960938 14.425781 38.128906 14.238281 38.3125 C 14.054688 38.5 13.886719 38.703125 13.738281 38.921875 C 13.59375 39.140625 13.46875 39.371094 13.371094 39.617188 C 13.269531 39.859375 13.191406 40.109375 13.140625 40.367188 C 13.089844 40.628906 13.0625 40.886719 13.0625 41.152344 L 13.0625 57.203125 C 13.0625 57.464844 13.089844 57.726562 13.140625 57.984375 C 13.191406 58.242188 13.269531 58.492188 13.371094 58.738281 C 13.46875 58.980469 13.59375 59.210938 13.738281 59.429688 C 13.886719 59.648438 14.054688 59.851562 14.238281 60.039062 C 14.425781 60.226562 14.628906 60.390625 14.847656 60.539062 C 15.066406 60.683594 15.296875 60.808594 15.539062 60.910156 C 15.785156 61.007812 16.035156 61.085938 16.292969 61.136719 C 16.550781 61.1875 16.8125 61.214844 17.078125 61.214844 L 29.113281 61.214844 C 29.378906 61.214844 29.636719 61.238281 29.898438 61.292969 C 30.15625 61.34375 30.40625 61.417969 30.648438 61.519531 C 30.894531 61.621094 31.125 61.742188 31.34375 61.890625 C 31.5625 62.035156 31.765625 62.203125 31.953125 62.390625 C 32.136719 62.574219 32.304688 62.777344 32.449219 62.996094 C 32.597656 63.214844 32.71875 63.449219 32.820312 63.691406 C 32.921875 63.933594 32.996094 64.183594 33.050781 64.445312 C 33.101562 64.703125 33.125 64.964844 33.125 65.226562 C 33.125 65.488281 33.101562 65.75 33.050781 66.007812 C 32.996094 66.269531 32.921875 66.519531 32.820312 66.761719 C 32.71875 67.003906 32.597656 67.238281 32.449219 67.457031 C 32.304688 67.675781 32.136719 67.878906 31.953125 68.0625 C 31.765625 68.25 31.5625 68.417969 31.34375 68.5625 C 31.125 68.710938 30.894531 68.832031 30.648438 68.933594 C 30.40625 69.035156 30.15625 69.109375 29.898438 69.160156 C 29.636719 69.214844 29.378906 69.238281 29.113281 69.238281 Z M 29.113281 69.238281 " fill-opacity="1" fill-rule="nonzero"/></g><g clip-path="url(#67bf12fe12)"><path fill="#5fa2ad" d="M 73.25 61.214844 L 45.164062 61.214844 C 44.902344 61.214844 44.640625 61.1875 44.382812 61.136719 C 44.121094 61.085938 43.871094 61.007812 43.628906 60.910156 C 43.386719 60.808594 43.152344 60.683594 42.933594 60.539062 C 42.714844 60.390625 42.511719 60.226562 42.328125 60.039062 C 42.140625 59.851562 41.972656 59.648438 41.828125 59.429688 C 41.679688 59.210938 41.558594 58.980469 41.457031 58.738281 C 41.355469 58.492188 41.28125 58.242188 41.226562 57.984375 C 41.175781 57.726562 41.152344 57.464844 41.152344 57.203125 C 41.152344 56.9375 41.175781 56.675781 41.226562 56.417969 C 41.28125 56.160156 41.355469 55.910156 41.457031 55.664062 C 41.558594 55.421875 41.679688 55.191406 41.828125 54.972656 C 41.972656 54.753906 42.140625 54.550781 42.328125 54.363281 C 42.511719 54.179688 42.714844 54.011719 42.933594 53.863281 C 43.152344 53.71875 43.386719 53.59375 43.628906 53.496094 C 43.871094 53.394531 44.121094 53.316406 44.382812 53.265625 C 44.640625 53.214844 44.902344 53.1875 45.164062 53.1875 L 73.25 53.1875 C 73.515625 53.1875 73.777344 53.164062 74.035156 53.113281 C 74.292969 53.058594 74.542969 52.984375 74.785156 52.882812 C 75.03125 52.78125 75.261719 52.660156 75.480469 52.511719 C 75.699219 52.367188 75.902344 52.199219 76.089844 52.015625 C 76.273438 51.828125 76.441406 51.625 76.585938 51.40625 C 76.734375 51.1875 76.859375 50.957031 76.957031 50.710938 C 77.058594 50.46875 77.136719 50.21875 77.1875 49.960938 C 77.238281 49.699219 77.265625 49.441406 77.265625 49.175781 L 77.265625 33.125 C 77.265625 32.863281 77.238281 32.601562 77.1875 32.34375 C 77.136719 32.085938 77.058594 31.835938 76.957031 31.589844 C 76.859375 31.347656 76.734375 31.117188 76.585938 30.898438 C 76.441406 30.679688 76.273438 30.476562 76.089844 30.289062 C 75.902344 30.101562 75.699219 29.9375 75.480469 29.789062 C 75.261719 29.644531 75.03125 29.519531 74.785156 29.417969 C 74.542969 29.320312 74.292969 29.242188 74.035156 29.191406 C 73.777344 29.140625 73.515625 29.113281 73.25 29.113281 L 61.214844 29.113281 C 60.949219 29.113281 60.691406 29.089844 60.429688 29.035156 C 60.171875 28.984375 59.921875 28.910156 59.679688 28.808594 C 59.433594 28.707031 59.203125 28.585938 58.984375 28.4375 C 58.765625 28.292969 58.5625 28.125 58.375 27.9375 C 58.191406 27.753906 58.023438 27.550781 57.878906 27.332031 C 57.730469 27.113281 57.609375 26.878906 57.507812 26.636719 C 57.40625 26.394531 57.328125 26.144531 57.277344 25.882812 C 57.226562 25.625 57.203125 25.363281 57.203125 25.101562 C 57.203125 24.839844 57.226562 24.578125 57.277344 24.320312 C 57.328125 24.058594 57.40625 23.808594 57.507812 23.566406 C 57.609375 23.324219 57.730469 23.089844 57.878906 22.871094 C 58.023438 22.652344 58.191406 22.449219 58.375 22.265625 C 58.5625 22.078125 58.765625 21.910156 58.984375 21.765625 C 59.203125 21.617188 59.433594 21.496094 59.679688 21.394531 C 59.921875 21.292969 60.171875 21.21875 60.429688 21.167969 C 60.691406 21.113281 60.949219 21.089844 61.214844 21.089844 L 73.25 21.089844 C 74.042969 21.089844 74.824219 21.167969 75.597656 21.320312 C 76.375 21.476562 77.125 21.707031 77.855469 22.007812 C 78.585938 22.3125 79.28125 22.683594 79.9375 23.121094 C 80.59375 23.558594 81.199219 24.058594 81.757812 24.617188 C 82.320312 25.175781 82.816406 25.785156 83.257812 26.441406 C 83.695312 27.097656 84.066406 27.792969 84.371094 28.523438 C 84.671875 29.25 84.902344 30.003906 85.054688 30.777344 C 85.210938 31.554688 85.289062 32.335938 85.289062 33.125 L 85.289062 49.175781 C 85.289062 49.964844 85.210938 50.75 85.054688 51.523438 C 84.902344 52.300781 84.671875 53.050781 84.371094 53.78125 C 84.066406 54.511719 83.695312 55.203125 83.257812 55.859375 C 82.816406 56.519531 82.320312 57.125 81.757812 57.683594 C 81.199219 58.242188 80.59375 58.742188 79.9375 59.179688 C 79.28125 59.621094 78.585938 59.992188 77.855469 60.292969 C 77.125 60.597656 76.375 60.824219 75.597656 60.980469 C 74.824219 61.136719 74.042969 61.214844 73.25 61.214844 Z M 73.25 61.214844 " fill-opacity="1" fill-rule="nonzero"/></g><g clip-path="url(#57c4d2a37d)"><path fill="#5fa2ad" d="M 53.1875 85.289062 L 37.140625 85.289062 C 36.347656 85.289062 35.566406 85.210938 34.792969 85.054688 C 34.015625 84.902344 33.265625 84.671875 32.535156 84.371094 C 31.804688 84.066406 31.109375 83.695312 30.453125 83.257812 C 29.796875 82.816406 29.1875 82.320312 28.628906 81.757812 C 28.070312 81.199219 27.574219 80.59375 27.132812 79.9375 C 26.695312 79.28125 26.324219 78.585938 26.019531 77.855469 C 25.71875 77.125 25.488281 76.375 25.335938 75.597656 C 25.179688 74.824219 25.101562 74.042969 25.101562 73.25 L 25.101562 53.1875 C 25.101562 52.398438 25.179688 51.617188 25.335938 50.839844 C 25.488281 50.066406 25.71875 49.3125 26.019531 48.585938 C 26.324219 47.855469 26.695312 47.160156 27.132812 46.503906 C 27.574219 45.847656 28.070312 45.238281 28.628906 44.679688 C 29.1875 44.121094 29.796875 43.621094 30.453125 43.183594 C 31.109375 42.746094 31.804688 42.375 32.535156 42.070312 C 33.265625 41.769531 34.015625 41.539062 34.792969 41.382812 C 35.566406 41.230469 36.347656 41.152344 37.140625 41.152344 L 53.1875 41.152344 C 53.453125 41.152344 53.714844 41.125 53.972656 41.074219 C 54.230469 41.023438 54.480469 40.945312 54.722656 40.847656 C 54.96875 40.746094 55.199219 40.621094 55.417969 40.476562 C 55.636719 40.328125 55.839844 40.164062 56.027344 39.976562 C 56.210938 39.789062 56.378906 39.585938 56.523438 39.367188 C 56.671875 39.148438 56.796875 38.917969 56.894531 38.675781 C 56.996094 38.429688 57.074219 38.179688 57.125 37.921875 C 57.175781 37.664062 57.203125 37.402344 57.203125 37.140625 L 57.203125 17.078125 C 57.203125 16.8125 57.175781 16.550781 57.125 16.292969 C 57.074219 16.035156 56.996094 15.785156 56.894531 15.539062 C 56.796875 15.296875 56.671875 15.066406 56.523438 14.847656 C 56.378906 14.628906 56.210938 14.425781 56.027344 14.238281 C 55.839844 14.054688 55.636719 13.886719 55.417969 13.738281 C 55.199219 13.59375 54.96875 13.46875 54.722656 13.371094 C 54.480469 13.269531 54.230469 13.191406 53.972656 13.140625 C 53.714844 13.089844 53.453125 13.0625 53.1875 13.0625 L 37.140625 13.0625 C 36.875 13.0625 36.613281 13.089844 36.355469 13.140625 C 36.097656 13.191406 35.847656 13.269531 35.601562 13.371094 C 35.359375 13.46875 35.128906 13.59375 34.910156 13.738281 C 34.691406 13.886719 34.488281 14.054688 34.300781 14.238281 C 34.117188 14.425781 33.949219 14.628906 33.800781 14.847656 C 33.65625 15.066406 33.53125 15.296875 33.433594 15.539062 C 33.332031 15.785156 33.253906 16.035156 33.203125 16.292969 C 33.152344 16.550781 33.125 16.8125 33.125 17.078125 L 33.125 33.125 C 33.125 33.390625 33.101562 33.652344 33.050781 33.910156 C 32.996094 34.167969 32.921875 34.417969 32.820312 34.660156 C 32.71875 34.90625 32.597656 35.136719 32.449219 35.355469 C 32.304688 35.574219 32.136719 35.777344 31.953125 35.964844 C 31.765625 36.148438 31.5625 36.316406 31.34375 36.460938 C 31.125 36.609375 30.894531 36.734375 30.648438 36.832031 C 30.40625 36.933594 30.15625 37.011719 29.898438 37.0625 C 29.636719 37.113281 29.378906 37.140625 29.113281 37.140625 C 28.851562 37.140625 28.589844 37.113281 28.332031 37.0625 C 28.074219 37.011719 27.820312 36.933594 27.578125 36.832031 C 27.335938 36.734375 27.105469 36.609375 26.882812 36.460938 C 26.664062 36.316406 26.464844 36.148438 26.277344 35.964844 C 26.089844 35.777344 25.925781 35.574219 25.777344 35.355469 C 25.632812 35.136719 25.507812 34.90625 25.40625 34.660156 C 25.304688 34.417969 25.230469 34.167969 25.179688 33.910156 C 25.128906 33.652344 25.101562 33.390625 25.101562 33.125 L 25.101562 17.078125 C 25.101562 16.285156 25.179688 15.503906 25.335938 14.730469 C 25.488281 13.953125 25.71875 13.203125 26.019531 12.472656 C 26.324219 11.742188 26.695312 11.046875 27.132812 10.390625 C 27.574219 9.734375 28.070312 9.125 28.628906 8.566406 C 29.1875 8.007812 29.796875 7.511719 30.453125 7.070312 C 31.109375 6.632812 31.804688 6.261719 32.535156 5.957031 C 33.265625 5.65625 34.015625 5.425781 34.792969 5.273438 C 35.566406 5.117188 36.347656 5.039062 37.140625 5.039062 L 53.1875 5.039062 C 53.980469 5.039062 54.761719 5.117188 55.535156 5.273438 C 56.3125 5.425781 57.0625 5.65625 57.792969 5.957031 C 58.523438 6.261719 59.21875 6.632812 59.875 7.070312 C 60.53125 7.511719 61.136719 8.007812 61.695312 8.566406 C 62.257812 9.125 62.753906 9.734375 63.195312 10.390625 C 63.632812 11.046875 64.003906 11.742188 64.308594 12.472656 C 64.609375 13.203125 64.839844 13.953125 64.992188 14.730469 C 65.148438 15.503906 65.226562 16.285156 65.226562 17.078125 L 65.226562 37.140625 C 65.226562 37.929688 65.148438 38.710938 64.992188 39.488281 C 64.839844 40.261719 64.609375 41.015625 64.308594 41.742188 C 64.003906 42.472656 63.632812 43.167969 63.195312 43.824219 C 62.753906 44.480469 62.257812 45.089844 61.695312 45.648438 C 61.136719 46.207031 60.53125 46.703125 59.875 47.144531 C 59.21875 47.582031 58.523438 47.953125 57.792969 48.257812 C 57.0625 48.558594 56.3125 48.789062 55.535156 48.941406 C 54.761719 49.097656 53.980469 49.175781 53.1875 49.175781 L 37.140625 49.175781 C 36.875 49.175781 36.613281 49.203125 36.355469 49.253906 C 36.097656 49.304688 35.847656 49.382812 35.601562 49.480469 C 35.359375 49.582031 35.128906 49.707031 34.910156 49.851562 C 34.691406 50 34.488281 50.164062 34.300781 50.351562 C 34.117188 50.539062 33.949219 50.742188 33.800781 50.960938 C 33.65625 51.179688 33.53125 51.410156 33.433594 51.652344 C 33.332031 51.898438 33.253906 52.148438 33.203125 52.40625 C 33.152344 52.664062 33.125 52.925781 33.125 53.1875 L 33.125 73.25 C 33.125 73.515625 33.152344 73.777344 33.203125 74.035156 C 33.253906 74.292969 33.332031 74.542969 33.433594 74.785156 C 33.53125 75.03125 33.65625 75.261719 33.800781 75.480469 C 33.949219 75.699219 34.117188 75.902344 34.300781 76.089844 C 34.488281 76.273438 34.691406 76.441406 34.910156 76.585938 C 35.128906 76.734375 35.359375 76.859375 35.601562 76.957031 C 35.847656 77.058594 36.097656 77.136719 36.355469 77.1875 C 36.613281 77.238281 36.875 77.265625 37.140625 77.265625 L 53.1875 77.265625 C 53.453125 77.265625 53.714844 77.238281 53.972656 77.1875 C 54.230469 77.136719 54.480469 77.058594 54.722656 76.957031 C 54.96875 76.859375 55.199219 76.734375 55.417969 76.585938 C 55.636719 76.441406 55.839844 76.273438 56.027344 76.089844 C 56.210938 75.902344 56.378906 75.699219 56.523438 75.480469 C 56.671875 75.261719 56.796875 75.03125 56.894531 74.785156 C 56.996094 74.542969 57.074219 74.292969 57.125 74.035156 C 57.175781 73.777344 57.203125 73.515625 57.203125 73.25 L 57.203125 57.203125 C 57.203125 56.9375 57.226562 56.675781 57.277344 56.417969 C 57.328125 56.160156 57.40625 55.910156 57.507812 55.664062 C 57.609375 55.421875 57.730469 55.191406 57.878906 54.972656 C 58.023438 54.753906 58.191406 54.550781 58.375 54.363281 C 58.5625 54.179688 58.765625 54.011719 58.984375 53.863281 C 59.203125 53.71875 59.433594 53.59375 59.679688 53.496094 C 59.921875 53.394531 60.171875 53.316406 60.429688 53.265625 C 60.691406 53.214844 60.949219 53.1875 61.214844 53.1875 C 61.476562 53.1875 61.738281 53.214844 61.996094 53.265625 C 62.253906 53.316406 62.507812 53.394531 62.75 53.496094 C 62.992188 53.59375 63.222656 53.71875 63.441406 53.863281 C 63.664062 54.011719 63.863281 54.179688 64.050781 54.363281 C 64.238281 54.550781 64.402344 54.753906 64.550781 54.972656 C 64.695312 55.191406 64.820312 55.421875 64.921875 55.664062 C 65.023438 55.910156 65.097656 56.160156 65.148438 56.417969 C 65.199219 56.675781 65.226562 56.9375 65.226562 57.203125 L 65.226562 73.25 C 65.226562 74.042969 65.148438 74.824219 64.992188 75.597656 C 64.839844 76.375 64.609375 77.125 64.308594 77.855469 C 64.003906 78.585938 63.632812 79.28125 63.195312 79.9375 C 62.753906 80.59375 62.257812 81.199219 61.695312 81.757812 C 61.136719 82.320312 60.53125 82.816406 59.875 83.257812 C 59.21875 83.695312 58.523438 84.066406 57.792969 84.371094 C 57.0625 84.671875 56.3125 84.902344 55.535156 85.054688 C 54.761719 85.210938 53.980469 85.289062 53.1875 85.289062 Z M 53.1875 85.289062 " fill-opacity="1" fill-rule="nonzero"/></g><path fill="#5fa2ad" d="M 41.152344 25.140625 C 40.886719 25.140625 40.625 25.117188 40.367188 25.066406 C 40.109375 25.015625 39.855469 24.941406 39.613281 24.839844 C 39.367188 24.738281 39.136719 24.617188 38.917969 24.46875 C 38.695312 24.324219 38.492188 24.160156 38.304688 23.972656 C 38.121094 23.785156 37.953125 23.585938 37.804688 23.367188 C 37.65625 23.148438 37.53125 22.914062 37.429688 22.671875 C 37.328125 22.429688 37.25 22.179688 37.199219 21.917969 C 37.148438 21.660156 37.121094 21.398438 37.117188 21.136719 C 37.117188 20.871094 37.140625 20.609375 37.191406 20.351562 C 37.242188 20.09375 37.316406 19.839844 37.417969 19.597656 C 37.519531 19.351562 37.640625 19.121094 37.785156 18.898438 C 37.933594 18.679688 38.097656 18.476562 38.28125 18.289062 C 38.46875 18.101562 38.671875 17.933594 38.890625 17.785156 C 39.109375 17.636719 39.339844 17.511719 39.582031 17.410156 C 39.824219 17.308594 40.078125 17.230469 40.335938 17.179688 C 40.59375 17.125 40.855469 17.097656 41.117188 17.097656 C 41.382812 17.09375 41.644531 17.121094 41.902344 17.167969 C 42.160156 17.21875 42.414062 17.292969 42.65625 17.394531 C 42.902344 17.492188 43.132812 17.613281 43.355469 17.761719 C 43.574219 17.90625 43.777344 18.070312 43.96875 18.253906 C 44.15625 18.441406 44.324219 18.644531 44.472656 18.863281 C 44.617188 19.078125 44.746094 19.308594 44.847656 19.554688 C 44.949219 19.796875 45.027344 20.046875 45.082031 20.304688 C 45.132812 20.5625 45.160156 20.824219 45.164062 21.089844 L 45.164062 21.128906 C 45.164062 21.390625 45.136719 21.652344 45.085938 21.910156 C 45.035156 22.171875 44.960938 22.421875 44.859375 22.664062 C 44.757812 22.90625 44.632812 23.140625 44.488281 23.359375 C 44.339844 23.578125 44.175781 23.78125 43.988281 23.964844 C 43.800781 24.152344 43.601562 24.320312 43.378906 24.464844 C 43.160156 24.613281 42.929688 24.734375 42.6875 24.835938 C 42.445312 24.9375 42.191406 25.011719 41.933594 25.066406 C 41.675781 25.117188 41.414062 25.140625 41.152344 25.140625 Z M 41.152344 25.140625 " fill-opacity="1" fill-rule="nonzero"/><path fill="#5fa2ad" d="M 49.175781 73.292969 C 48.914062 73.292969 48.652344 73.265625 48.390625 73.214844 C 48.132812 73.164062 47.882812 73.089844 47.636719 72.988281 C 47.394531 72.890625 47.160156 72.765625 46.941406 72.621094 C 46.722656 72.476562 46.519531 72.308594 46.332031 72.121094 C 46.144531 71.9375 45.976562 71.734375 45.828125 71.515625 C 45.683594 71.296875 45.558594 71.066406 45.457031 70.820312 C 45.355469 70.578125 45.277344 70.328125 45.222656 70.070312 C 45.171875 69.8125 45.144531 69.550781 45.144531 69.285156 C 45.144531 69.023438 45.167969 68.761719 45.21875 68.5 C 45.269531 68.242188 45.34375 67.992188 45.441406 67.746094 C 45.542969 67.503906 45.664062 67.269531 45.8125 67.050781 C 45.957031 66.832031 46.121094 66.625 46.308594 66.4375 C 46.492188 66.25 46.695312 66.082031 46.914062 65.9375 C 47.132812 65.789062 47.363281 65.664062 47.605469 65.5625 C 47.851562 65.457031 48.101562 65.382812 48.359375 65.328125 C 48.617188 65.273438 48.878906 65.25 49.144531 65.246094 C 49.40625 65.246094 49.667969 65.269531 49.925781 65.320312 C 50.1875 65.367188 50.4375 65.445312 50.683594 65.542969 C 50.925781 65.644531 51.160156 65.765625 51.378906 65.910156 C 51.601562 66.054688 51.804688 66.21875 51.992188 66.40625 C 52.179688 66.589844 52.347656 66.792969 52.496094 67.011719 C 52.644531 67.230469 52.769531 67.460938 52.871094 67.703125 C 52.972656 67.945312 53.050781 68.195312 53.105469 68.457031 C 53.160156 68.714844 53.1875 68.976562 53.1875 69.238281 L 53.1875 69.277344 C 53.1875 69.542969 53.164062 69.804688 53.113281 70.0625 C 53.058594 70.320312 52.984375 70.570312 52.882812 70.816406 C 52.78125 71.058594 52.660156 71.289062 52.511719 71.507812 C 52.367188 71.726562 52.199219 71.929688 52.015625 72.117188 C 51.828125 72.300781 51.625 72.46875 51.40625 72.617188 C 51.1875 72.761719 50.957031 72.886719 50.710938 72.984375 C 50.46875 73.085938 50.21875 73.164062 49.960938 73.214844 C 49.699219 73.265625 49.441406 73.292969 49.175781 73.292969 Z M 49.175781 73.292969 " fill-opacity="1" fill-rule="nonzero"/></svg>